<svg width="16" height="16" viewBox="0 0 16 16" fill="none" xmlns="http://www.w3.org/2000/svg">
<path d="M8.00001 11C5.88728 11 4.05277 11.8664 3.13154 13.1373C2.48326 14.0316 3.39544 15 4.50001 15L11.5 15C12.6046 15 13.5168 14.0316 12.8685 13.1373C11.9473 11.8664 10.1128 11 8.00001 11Z" fill="black"/>
<path d="M11.5 14V15H4.50001V14H11.5ZM8.00001 11C10.1127 11 11.9469 11.8668 12.8682 13.1377C13.5162 14.032 12.6045 15 11.5 15V14C11.78 14 11.9855 13.872 12.0625 13.7764C12.0691 13.7682 12.0726 13.7605 12.0762 13.7549C12.072 13.7474 12.0674 13.7368 12.0586 13.7246C11.3676 12.7714 9.87157 12 8.00001 12C6.12844 12 4.63239 12.7714 3.94141 13.7246C3.93243 13.737 3.92706 13.7473 3.92286 13.7549C3.92646 13.7605 3.93074 13.768 3.93751 13.7764C4.01451 13.872 4.21999 14 4.50001 14V15L4.2959 14.9893C3.32144 14.8835 2.5752 14.0355 3.0752 13.2217L3.13184 13.1377C4.05307 11.8668 5.88727 11 8.00001 11Z" fill="black"/>
<path d="M14 8C14 4.68629 11.3137 2 8 2C4.68629 2 2 4.68629 2 8C2 8.645 2.10137 9.26567 2.28906 9.84668C2.37376 10.1094 2.22948 10.3907 1.9668 10.4756C1.70411 10.5603 1.42274 10.416 1.33789 10.1533C1.11857 9.47429 1 8.75051 1 8C1 4.13401 4.13401 1 8 1C11.866 1 15 4.13401 15 8C15 8.75051 14.8814 9.47429 14.6621 10.1533C14.5773 10.416 14.2959 10.5603 14.0332 10.4756C13.7705 10.3907 13.6262 10.1094 13.7109 9.84668C13.8986 9.26567 14 8.645 14 8Z" fill="black"/>
<path d="M11 7C11 8.65685 9.65685 10 8 10C6.34315 10 5 8.65685 5 7C5 5.34315 6.34315 4 8 4C9.65685 4 11 5.34315 11 7Z" fill="black"/>
</svg>
