<svg width="16" height="16" viewBox="0 0 16 16" fill="none" xmlns="http://www.w3.org/2000/svg">
<path d="M11.5 7C13.9853 7 16 9.01472 16 11.5C16 13.9853 13.9853 16 11.5 16C9.01472 16 7 13.9853 7 11.5C7 9.01472 9.01472 7 11.5 7ZM11.5 8.2998C11.224 8.29991 11.0001 8.52382 11 8.7998V11H8.7998C8.52382 11.0001 8.29991 11.224 8.2998 11.5C8.29991 11.776 8.52382 11.9999 8.7998 12H11V14.2002C11.0002 14.4761 11.2241 14.7001 11.5 14.7002C11.7759 14.7001 11.9998 14.4761 12 14.2002V12H14.2002C14.4761 11.9998 14.7001 11.7759 14.7002 11.5C14.7001 11.2241 14.4761 11.0002 14.2002 11H12V8.7998C11.9999 8.52382 11.776 8.29991 11.5 8.2998Z" fill="black"/>
<path d="M5.79297 2C6.05815 2.00002 6.31248 2.10545 6.5 2.29297L8.20703 4H12.5C13.8807 4 15 5.11929 15 6.5V7.25684C14.693 7.00335 14.3576 6.78341 14 6.60059V6.5C14 5.67158 13.3284 5 12.5 5H8.24023L6.54102 7.125C6.35126 7.36219 6.06352 7.49997 5.75977 7.5H2V11.5C2 12.3284 2.67158 13 3.5 13H6.20801C6.30669 13.3488 6.43948 13.6831 6.60156 14H3.5C2.11929 14 1 12.8807 1 11.5V4.5C1 3.11929 2.11929 2 3.5 2H5.79297ZM3.5 3C2.67158 3 2 3.67158 2 4.5V6.5H5.75977L7.3291 4.53613L5.79297 3H3.5Z" fill="black"/>
</svg>
