<svg width="16" height="16" viewBox="0 0 16 16" fill="none" xmlns="http://www.w3.org/2000/svg">
<path d="M11.25 14V15H4.75V14H11.25ZM2.75 13V3C2.75 1.89543 3.64543 1 4.75 1H8.53516C8.78673 1.00008 9.02916 1.09483 9.21387 1.26562L12.9287 4.70312C13.1333 4.8924 13.25 5.15879 13.25 5.4375V13C13.25 14.1046 12.3546 15 11.25 15V14C11.8023 14 12.25 13.5523 12.25 13V5.4375L8.53516 2H4.75C4.19772 2 3.75 2.44772 3.75 3V13C3.75 13.5523 4.19772 14 4.75 14V15C3.64543 15 2.75 14.1046 2.75 13Z" fill="black"/>
<path d="M7.5 4.66699V1.5H8.5V4.66699C8.50019 4.94298 8.72397 5.16699 9 5.16699H12.7246V6.16699H9C8.17169 6.16699 7.50019 5.49526 7.5 4.66699Z" fill="black"/>
<path d="M7.5 12.5V10.5H5.5C5.22386 10.5 5 10.2761 5 10C5 9.72386 5.22386 9.5 5.5 9.5H7.5V7.5C7.5 7.22386 7.72386 7 8 7C8.27614 7 8.5 7.22386 8.5 7.5V9.5H10.5C10.7761 9.5 11 9.72386 11 10C11 10.2761 10.7761 10.5 10.5 10.5H8.5V12.5C8.5 12.7761 8.27614 13 8 13C7.72386 13 7.5 12.7761 7.5 12.5Z" fill="black"/>
</svg>
