<svg width="16" height="16" viewBox="0 0 16 16" fill="none" xmlns="http://www.w3.org/2000/svg">
<path d="M8.47656 1C8.73676 1 8.98719 1.1019 9.17383 1.2832L12.6973 4.70508C12.8911 4.89337 13 5.15264 13 5.42285V6.20801C12.5231 6.0731 12.0201 6 11.5 6C11.0343 6 10.5822 6.05805 10.1504 6.16699H9C8.17169 6.16699 7.50019 5.49526 7.5 4.66699V2H5C4.44772 2 4 2.44772 4 3V13C4 13.5523 4.44772 14 5 14H6.60156C6.78445 14.3576 7.00425 14.693 7.25781 15H5C3.89543 15 3 14.1046 3 13V3C3 1.89543 3.89543 1 5 1H8.47656ZM8.5 4.66699C8.50019 4.94297 8.72397 5.16699 9 5.16699H11.7363L8.5 2.02246V4.66699Z" fill="black"/>
<path d="M11.5 7C13.9853 7 16 9.01472 16 11.5C16 13.9853 13.9853 16 11.5 16C9.01472 16 7 13.9853 7 11.5C7 9.01472 9.01472 7 11.5 7ZM11.5 8.2998C11.224 8.29991 11.0001 8.52382 11 8.7998V11H8.7998C8.52382 11.0001 8.29991 11.224 8.2998 11.5C8.29991 11.776 8.52382 11.9999 8.7998 12H11V14.2002C11.0002 14.4761 11.2241 14.7001 11.5 14.7002C11.7759 14.7001 11.9998 14.4761 12 14.2002V12H14.2002C14.4761 11.9998 14.7001 11.7759 14.7002 11.5C14.7001 11.2241 14.4761 11.0002 14.2002 11H12V8.7998C11.9999 8.52382 11.776 8.29991 11.5 8.2998Z" fill="black"/>
</svg>
