<svg width="16" height="16" viewBox="0 0 16 16" fill="none" xmlns="http://www.w3.org/2000/svg">
<path d="M12 14V15H4V14H12ZM2 13V3C2 1.89543 2.89543 1 4 1H8.70508C8.93401 1.00006 9.15603 1.07862 9.33398 1.22266L13.6289 4.7002C13.8634 4.89006 14 5.17578 14 5.47754V13C14 14.1046 13.1046 15 12 15V14C12.5523 14 13 13.5523 13 13V5.47754L8.70508 2H4C3.44772 2 3 2.44772 3 3V13C3 13.5523 3.44772 14 4 14V15C2.89543 15 2 14.1046 2 13Z" fill="black"/>
<path d="M7.5 4.66699V1.5H8.5V4.66699C8.50019 4.94298 8.72397 5.16699 9 5.16699H13.4004V6.16699H9C8.17169 6.16699 7.50019 5.49526 7.5 4.66699Z" fill="black"/>
<path d="M7.5 13V10.5H5C4.72386 10.5 4.5 10.2761 4.5 10C4.5 9.72386 4.72386 9.5 5 9.5H7.5V7C7.5 6.72386 7.72386 6.5 8 6.5C8.27614 6.5 8.5 6.72386 8.5 7V9.5H11C11.2761 9.5 11.5 9.72386 11.5 10C11.5 10.2761 11.2761 10.5 11 10.5H8.5V13C8.5 13.2761 8.27614 13.5 8 13.5C7.72386 13.5 7.5 13.2761 7.5 13Z" fill="black"/>
</svg>
