<svg width="16" height="16" viewBox="0 0 16 16" fill="none" xmlns="http://www.w3.org/2000/svg">
<path d="M14 3.5C14 3.22386 13.7761 3 13.5 3H2.5C2.22386 3 2 3.22386 2 3.5V4.5C2 4.77614 2.22386 5 2.5 5H13.5C13.7761 5 14 4.77614 14 4.5V3.5ZM15 4.5C15 5.32843 14.3284 6 13.5 6H2.5C1.67157 6 1 5.32843 1 4.5V3.5C1 2.67157 1.67157 2 2.5 2H13.5C14.3284 2 15 2.67157 15 3.5V4.5Z" fill="black"/>
<path d="M12.5 6H3.5V11.5C3.5 12.3284 4.17157 13 5 13H11C11.8284 13 12.5 12.3284 12.5 11.5V6ZM13.5 11.5C13.5 12.8807 12.3807 14 11 14H5C3.61929 14 2.5 12.8807 2.5 11.5V5H13.5V11.5Z" fill="black"/>
<path d="M10 7.5C10.2761 7.5 10.5 7.72386 10.5 8C10.5 8.27614 10.2761 8.5 10 8.5H6C5.72386 8.5 5.5 8.27614 5.5 8C5.5 7.72386 5.72386 7.5 6 7.5H10Z" fill="black"/>
</svg>
