<svg width="16" height="16" viewBox="0 0 16 16" fill="none" xmlns="http://www.w3.org/2000/svg">
<path d="M7.35352 12.8535C7.15825 13.0488 6.84175 13.0488 6.64648 12.8535L2.14648 8.35349C2.05272 8.25973 2 8.13259 2 7.99998C2 7.86737 2.05271 7.74023 2.14648 7.64646L6.64648 3.14646C6.84175 2.9512 7.15825 2.9512 7.35351 3.14646C7.54878 3.34172 7.54878 3.65823 7.35351 3.85349L3.70703 7.49998L13.5 7.49998C13.7761 7.49998 14 7.72383 14 7.99998C14 8.27612 13.7761 8.49998 13.5 8.49998L3.70703 8.49998L7.35352 12.1465C7.54878 12.3417 7.54878 12.6582 7.35352 12.8535Z" fill="black"/>
</svg>
