<svg width="16" height="16" viewBox="0 0 16 16" fill="none" xmlns="http://www.w3.org/2000/svg">
<path d="M12.8535 8.64645C13.0488 8.84172 13.0488 9.15822 12.8535 9.35349L8.35349 13.8535C8.25972 13.9473 8.13258 14 7.99998 14C7.86737 14 7.74023 13.9473 7.64646 13.8535L3.14646 9.35348C2.9512 9.15822 2.9512 8.84172 3.14646 8.64645C3.34172 8.45119 3.65823 8.45119 3.85349 8.64645L7.49998 12.2929L7.49998 2.49997C7.49998 2.22383 7.72383 1.99997 7.99998 1.99997C8.27612 1.99997 8.49998 2.22383 8.49998 2.49997L8.49998 12.2929L12.1465 8.64645C12.3417 8.45119 12.6582 8.45119 12.8535 8.64645Z" fill="black"/>
</svg>
