<svg width="16" height="16" viewBox="0 0 16 16" fill="none" xmlns="http://www.w3.org/2000/svg">
<path d="M14 8C14 4.68629 11.3137 2 8 2C4.68629 2 2 4.68629 2 8C2 11.3137 4.68629 14 8 14V15C4.13401 15 1 11.866 1 8C1 4.13401 4.13401 1 8 1C11.866 1 15 4.13401 15 8C15 11.866 11.866 15 8 15V14C11.3137 14 14 11.3137 14 8Z" fill="black"/>
<path d="M10.8447 8.5127C11.0446 8.70308 11.0526 9.01975 10.8623 9.21973L8.36231 11.8447C8.26794 11.9438 8.13685 12 8.00001 12C7.86317 12 7.73208 11.9438 7.6377 11.8447L5.1377 9.21973C4.94743 9.01975 4.95537 8.70308 5.15528 8.5127C5.35526 8.32242 5.67192 8.33037 5.86231 8.53027L7.50001 10.25L7.50001 4.875C7.50001 4.59886 7.72387 4.375 8.00001 4.375C8.27615 4.375 8.50001 4.59886 8.50001 4.875L8.50001 10.25L10.1377 8.53027C10.3281 8.33037 10.6448 8.32242 10.8447 8.5127Z" fill="black"/>
</svg>
