<svg width="16" height="16" viewBox="0 0 16 16" fill="none" xmlns="http://www.w3.org/2000/svg">
<path d="M3.14651 7.35352C2.95125 7.15825 2.95125 6.84175 3.14651 6.64648L7.64651 2.14648C7.74028 2.05272 7.86741 2 8.00002 2C8.13263 2 8.25977 2.05272 8.35354 2.14648L12.8535 6.64648C13.0488 6.84175 13.0488 7.15825 12.8535 7.35352C12.6583 7.54878 12.3418 7.54878 12.1465 7.35352L8.50002 3.70703L8.50002 13.5C8.50002 13.7761 8.27617 14 8.00002 14C7.72388 14 7.50002 13.7761 7.50002 13.5L7.50002 3.70703L3.85354 7.35352C3.65828 7.54878 3.34177 7.54878 3.14651 7.35352Z" fill="black"/>
</svg>
