<svg width="16" height="16" viewBox="0 0 16 16" fill="none" xmlns="http://www.w3.org/2000/svg">
<path d="M14 8C14 4.68629 11.3137 2 8 2C4.68629 2 2 4.68629 2 8C2 11.3137 4.68629 14 8 14V15C4.13401 15 1 11.866 1 8C1 4.13401 4.13401 1 8 1C11.866 1 15 4.13401 15 8C15 11.866 11.866 15 8 15V14C11.3137 14 14 11.3137 14 8Z" fill="black"/>
<path d="M8.3252 5.34276C8.51558 5.14286 8.83225 5.13491 9.03223 5.32519L11.6572 7.82519C11.7563 7.91956 11.8125 8.05065 11.8125 8.18749C11.8125 8.32433 11.7563 8.45542 11.6572 8.5498L9.03223 11.0498C8.83225 11.2401 8.51558 11.2321 8.3252 11.0322C8.13492 10.8322 8.14287 10.5156 8.34277 10.3252L10.0625 8.68749H4.6875C4.41136 8.68749 4.1875 8.46363 4.1875 8.18749C4.1875 7.91135 4.41136 7.68749 4.6875 7.68749L10.0625 7.68749L8.34277 6.0498C8.14287 5.85941 8.13492 5.54274 8.3252 5.34276Z" fill="black"/>
</svg>
