<svg width="16" height="16" viewBox="0 0 16 16" fill="none" xmlns="http://www.w3.org/2000/svg">
<path d="M14 8C14 4.68629 11.3137 2 8 2C4.68629 2 2 4.68629 2 8C2 11.3137 4.68629 14 8 14V15C4.13401 15 1 11.866 1 8C1 4.13401 4.13401 1 8 1C11.866 1 15 4.13401 15 8C15 11.866 11.866 15 8 15V14C11.3137 14 14 11.3137 14 8Z" fill="black"/>
<path d="M5.15526 7.8623C4.95536 7.67192 4.94741 7.35525 5.13769 7.15527L7.63769 4.53027C7.73206 4.43118 7.86315 4.375 7.99999 4.375C8.13683 4.375 8.26792 4.43118 8.3623 4.53027L10.8623 7.15527C11.0526 7.35525 11.0446 7.67192 10.8447 7.8623C10.6447 8.05258 10.3281 8.04463 10.1377 7.84473L8.49999 6.125L8.49999 11.5C8.49999 11.7761 8.27613 12 7.99999 12C7.72385 12 7.49999 11.7761 7.49999 11.5L7.49999 6.125L5.8623 7.84473C5.67191 8.04463 5.35524 8.05258 5.15526 7.8623Z" fill="black"/>
</svg>
