<svg width="16" height="16" viewBox="0 0 16 16" fill="none" xmlns="http://www.w3.org/2000/svg">
<path d="M2.5 8.49995C2.22386 8.49995 2 8.27609 2 7.99995C2.00001 7.72381 2.22386 7.49995 2.5 7.49995L12.293 7.49995L8.64648 3.85346C8.45123 3.6582 8.45122 3.34169 8.64648 3.14643C8.84174 2.95118 9.15825 2.95118 9.35352 3.14643L13.8535 7.64643C13.9473 7.7402 14 7.86734 14 7.99995C14 8.13255 13.9473 8.25969 13.8535 8.35346L9.35352 12.8535C9.15825 13.0487 8.84175 13.0487 8.64648 12.8535C8.45122 12.6582 8.45122 12.3417 8.64648 12.1464L12.293 8.49995L2.5 8.49995Z" fill="black"/>
</svg>
