<svg width="16" height="16" viewBox="0 0 16 16" fill="none" xmlns="http://www.w3.org/2000/svg">
<path d="M14 8C14 4.68629 11.3137 2 8 2C4.68629 2 2 4.68629 2 8C2 11.3137 4.68629 14 8 14V15C4.13401 15 1 11.866 1 8C1 4.13401 4.13401 1 8 1C11.866 1 15 4.13401 15 8C15 11.866 11.866 15 8 15V14C11.3137 14 14 11.3137 14 8Z" fill="black"/>
<path d="M7.6748 11.0322C7.48442 11.2321 7.16775 11.2401 6.96777 11.0498L4.34277 8.54981C4.24368 8.45544 4.1875 8.32435 4.1875 8.18751C4.1875 8.05067 4.24368 7.91957 4.34277 7.8252L6.96777 5.3252C7.16775 5.13493 7.48442 5.14287 7.67481 5.34278C7.86508 5.54276 7.85714 5.85942 7.65723 6.04981L5.9375 7.68751L11.3125 7.68751C11.5886 7.68751 11.8125 7.91137 11.8125 8.18751C11.8125 8.46365 11.5886 8.68751 11.3125 8.68751L5.9375 8.68751L7.65723 10.3252C7.85713 10.5156 7.86508 10.8323 7.6748 11.0322Z" fill="black"/>
</svg>
