<svg width="16" height="16" viewBox="0 0 16 16" fill="none" xmlns="http://www.w3.org/2000/svg">
<path d="M13.2041 4.07324C14.2128 4.1755 15 5.02685 15 6.0625V13L14.9893 13.2041C14.887 14.2128 14.0357 15 13 15H6.0625C4.95793 15 4.0625 14.1046 4.0625 13V12.0068H5.0625V13C5.0625 13.5523 5.51022 14 6.0625 14H13C13.5523 14 14 13.5523 14 13V6.0625C14 5.51022 13.5523 5.0625 13 5.0625H11.5068V4.0625H13L13.2041 4.07324Z" fill="black"/>
<path d="M3.5 6.22727L6.5 9.5M6.5 9.5L6.5 1.5M6.5 9.5L9.5 6.22727" stroke="black" stroke-linecap="round" stroke-linejoin="round"/>
<path d="M3.77273 2.5H3.5C2.39543 2.5 1.5 3.39543 1.5 4.5V9.5C1.5 10.6046 2.39543 11.5 3.5 11.5H9.5C10.6046 11.5 11.5 10.6046 11.5 9.5V4.5C11.5 3.39543 10.6046 2.5 9.5 2.5H9.22727" stroke="black" stroke-linecap="round"/>
</svg>
