<svg width="16" height="16" viewBox="0 0 16 16" fill="none" xmlns="http://www.w3.org/2000/svg">
<path d="M10.4375 12C10.4773 12.177 10.5 12.3608 10.5 12.5498C10.5 13.9305 9.38071 15.0498 8 15.0498C6.61929 15.0498 5.5 13.9305 5.5 12.5498C5.50002 12.3608 5.52273 12.177 5.5625 12H6.60547C6.53822 12.1704 6.50003 12.3555 6.5 12.5498C6.5 13.3782 7.17157 14.0498 8 14.0498C8.82843 14.0498 9.5 13.3782 9.5 12.5498C9.49997 12.3555 9.46178 12.1704 9.39453 12H10.4375Z" fill="black"/>
<path d="M12 6.5C12 4.29086 10.2091 2.5 8 2.5C5.79086 2.5 4 4.29086 4 6.5V8.94238C4 9.68632 3.74686 10.4083 3.28223 10.9893L3.03027 11.3037C3.08257 11.4192 3.19803 11.4999 3.33301 11.5H12.667C12.8018 11.4999 12.9164 11.419 12.9688 11.3037L12.7178 10.9893C12.2531 10.4083 12 9.68632 12 8.94238V6.5ZM13 8.94238C13 9.45943 13.176 9.96149 13.499 10.3652L14 10.9912V11.167C13.9998 11.9031 13.4031 12.4998 12.667 12.5H3.33301C2.59689 12.4998 2.00018 11.9031 2 11.167V10.9912L2.50098 10.3652C2.82397 9.96149 3 9.45943 3 8.94238V6.5C3 3.73858 5.23858 1.5 8 1.5C10.7614 1.5 13 3.73858 13 6.5V8.94238Z" fill="black"/>
<path d="M1.64651 1.64648C1.84177 1.45121 2.15828 1.45121 2.35354 1.64648L14.3535 13.6465C14.5488 13.8417 14.5488 14.1582 14.3535 14.3535C14.1583 14.5488 13.8418 14.5488 13.6465 14.3535L1.64651 2.35351C1.45125 2.15825 1.45125 1.84174 1.64651 1.64648Z" fill="black"/>
</svg>
