<svg width="16" height="16" viewBox="0 0 16 16" fill="none" xmlns="http://www.w3.org/2000/svg">
<path d="M11.5004 1.5C12.2246 1.50003 12.8501 1.57238 13.4194 1.84668C13.9942 2.12374 14.456 2.57915 14.9116 3.23926C14.9692 3.32275 15.0004 3.42199 15.0004 3.52344V14C15.0004 14.2188 14.8578 14.4124 14.6489 14.4775C14.4399 14.5426 14.2126 14.4643 14.0883 14.2842C13.6888 13.7053 13.3476 13.3984 12.9848 13.2236C12.6165 13.0463 12.1695 12.9766 11.5004 12.9766C10.1706 12.9766 9.12803 13.2459 8.41156 14.2842C8.3183 14.4192 8.16456 14.4999 8.00043 14.5C7.83611 14.5 7.68166 14.4194 7.58832 14.2842C6.87192 13.246 5.83001 12.9766 4.50043 12.9766C3.83092 12.9766 3.38589 13.0465 3.01996 13.2236C2.65933 13.3982 2.31948 13.7044 1.91937 14.2842C1.79509 14.464 1.56854 14.5424 1.3598 14.4775C1.15086 14.4124 1.00824 14.2189 1.00824 14V3.52344C1.00824 3.42199 1.03949 3.32275 1.09711 3.23926C1.55205 2.58003 2.01146 2.12398 2.58441 1.84668C3.15206 1.572 3.77625 1.5 4.50043 1.5C5.76791 1.50005 7.03663 1.72673 7.99945 2.73242C8.96245 1.72616 10.2326 1.5 11.5004 1.5ZM4.50043 2.5C3.83089 2.5 3.38589 2.56997 3.01996 2.74707C2.686 2.9087 2.37086 3.18344 2.00824 3.68359V12.6914C2.18919 12.5454 2.3794 12.4225 2.58441 12.3232C3.15205 12.0486 3.77627 11.9766 4.50043 11.9766C5.55962 11.9766 6.61866 12.1365 7.50043 12.7754V3.68848C6.78769 2.74924 5.77732 2.50006 4.50043 2.5ZM11.5004 2.5C10.2241 2.5 9.21318 2.74855 8.50043 3.68652V12.7744C9.38211 12.1361 10.4415 11.9766 11.5004 11.9766C12.2246 11.9766 12.8501 12.0489 13.4194 12.3232C13.6262 12.4229 13.8179 12.5463 14.0004 12.6934V3.68457C13.6378 3.18466 13.3209 2.90903 12.9848 2.74707C12.6165 2.56969 12.1695 2.50003 11.5004 2.5Z" fill="black"/>
</svg>
