<svg width="16" height="16" viewBox="0 0 16 16" fill="none" xmlns="http://www.w3.org/2000/svg">
<path d="M3.27536 11.2998V10.5215C3.27531 10.1047 3.10211 9.7066 2.79685 9.42285L2.05368 8.73242C1.6281 8.33685 1.6281 7.66315 2.05368 7.26758L2.79685 6.57715C3.10211 6.2934 3.27531 5.89529 3.27536 5.47852V4.7002C3.27536 3.20382 4.50051 2 5.99997 2C6.27612 2 6.49997 2.22386 6.49997 2.5C6.49997 2.77614 6.27612 3 5.99997 3C5.04233 3 4.27536 3.76652 4.27536 4.7002V5.47852C4.27531 6.17322 3.98636 6.83662 3.47751 7.30957L2.73435 8L3.47751 8.69043C3.98636 9.16338 4.27531 9.82678 4.27536 10.5215V11.2998C4.27536 12.2335 5.04233 13 5.99997 13C6.27612 13 6.49997 13.2239 6.49997 13.5C6.49997 13.7761 6.27612 14 5.99997 14C4.50051 14 3.27536 12.7962 3.27536 11.2998Z" fill="black"/>
<path d="M12.7246 4.7002L12.7246 5.47852C12.7247 5.89529 12.8979 6.2934 13.2032 6.57715L13.9463 7.26758C14.3719 7.66315 14.3719 8.33685 13.9463 8.73242L13.2032 9.42285C12.8979 9.7066 12.7247 10.1047 12.7246 10.5215L12.7246 11.2998C12.7246 12.7962 11.4995 14 10 14C9.72389 14 9.50003 13.7761 9.50003 13.5C9.50003 13.2239 9.72389 13 10 13C10.9577 13 11.7246 12.2335 11.7246 11.2998L11.7246 10.5215C11.7247 9.82678 12.0136 9.16338 12.5225 8.69043L13.2657 8L12.5225 7.30957C12.0136 6.83662 11.7247 6.17322 11.7246 5.47852L11.7246 4.7002C11.7246 3.76652 10.9577 3 10 3C9.72389 3 9.50003 2.77614 9.50003 2.5C9.50003 2.22386 9.72389 2 10 2C11.4995 2 12.7246 3.20382 12.7246 4.7002Z" fill="black"/>
</svg>
