<svg width="16" height="16" viewBox="0 0 16 16" fill="none" xmlns="http://www.w3.org/2000/svg">
<path d="M11.3018 12.5C11.3018 12.4317 11.2948 12.1776 11.4395 11.9326C11.5973 11.6656 11.8728 11.5008 12.2354 11.4473C12.3728 11.4143 12.5453 11.3087 12.7422 11.1035C12.9116 10.9269 13.0713 10.7045 13.2158 10.4707C13.0811 10.489 12.9369 10.5 12.7832 10.5C12.3517 10.5 12.221 10.5656 12.1455 10.6094C12.0799 10.6475 11.8164 10.8565 11.4717 10.9736C11.2104 11.0621 10.9268 10.9223 10.8379 10.6611C10.7491 10.3997 10.8889 10.1152 11.1504 10.0264C11.3801 9.94832 11.3623 9.90731 11.6436 9.74414C11.9149 9.58676 12.2336 9.5 12.7832 9.5C13.1855 9.49997 13.4765 9.39827 13.6602 9.30469C13.7235 9.2724 13.7737 9.23943 13.8125 9.21289C13.8337 9.1272 13.8616 9.01192 13.8887 8.88086C13.9486 8.59094 14.0006 8.25638 14 8.00098C13.9985 7.3983 13.935 7.11314 13.7002 6.59375C13.4687 6.08161 13.1047 5.74101 12.6992 5.42871C12.6777 5.58334 12.6535 5.75197 12.6211 5.92773C12.4836 6.67301 12.2218 7.65439 11.7031 8.31055C11.2996 8.82074 10.7948 9.02551 10.4297 9.1875C10.0541 9.35413 9.8056 9.48123 9.61133 9.77539C9.42356 10.0598 9.30863 10.2848 9.2334 10.5107C9.17317 10.6917 9.13349 10.8879 9.10938 11.1348C9.15016 11.1745 9.20276 11.222 9.26562 11.2734C9.32312 11.3205 9.37706 11.3622 9.41699 11.3916C9.43671 11.4061 9.45325 11.4173 9.46387 11.4248C9.46917 11.4286 9.47317 11.4319 9.47559 11.4336C9.47665 11.4343 9.47712 11.4353 9.47754 11.4355C9.48524 11.4409 9.49359 11.4464 9.50098 11.4521L9.50293 11.4541C9.50447 11.4553 9.50706 11.4569 9.50977 11.459C9.51513 11.4632 9.52277 11.4691 9.53223 11.4766C9.55135 11.4917 9.57819 11.5138 9.61035 11.54C9.67443 11.5923 9.76141 11.6653 9.84961 11.7441C9.93549 11.8209 10.0337 11.9121 10.1133 12.002C10.1523 12.0461 10.197 12.1019 10.2354 12.1631C10.2617 12.2052 10.3398 12.332 10.3398 12.5C10.3398 12.9019 10.3851 13.1709 10.4678 13.3271C10.503 13.3936 10.5392 13.4285 10.5762 13.4502C10.6149 13.4728 10.687 13.4999 10.8203 13.5C10.9539 13.5 11.0267 13.4728 11.0654 13.4502C11.1024 13.4285 11.1386 13.3936 11.1738 13.3271C11.2565 13.1709 11.3018 12.9019 11.3018 12.5ZM12.3018 12.5C12.3018 12.9265 12.2623 13.4083 12.0576 13.7949C11.9494 13.9992 11.7921 14.1845 11.5693 14.3145C11.3479 14.4437 11.0931 14.5 10.8203 14.5C10.5477 14.4999 10.2936 14.4436 10.0723 14.3145C9.84934 14.1844 9.69125 13.9994 9.58301 13.7949C9.40118 13.4514 9.35194 13.0327 9.34277 12.6445C9.30204 12.6011 9.24768 12.5466 9.18359 12.4893C9.11035 12.4238 9.03553 12.361 8.97852 12.3145C8.95037 12.2915 8.92723 12.2725 8.91113 12.2598C8.90323 12.2535 8.89663 12.2493 8.89258 12.2461C8.89055 12.2445 8.8886 12.2429 8.8877 12.2422C8.88677 12.2415 8.88575 12.2409 8.88477 12.2402C8.87002 12.2297 8.84916 12.2147 8.82422 12.1963C8.77468 12.1598 8.70659 12.1082 8.63281 12.0479C8.60838 12.0279 8.58277 12.0026 8.55371 11.9775C8.08272 12.3044 7.51359 12.4999 6.89648 12.5C5.97976 12.5 5.16611 12.0744 4.62695 11.415C4.41153 11.4674 4.1867 11.5 3.95312 11.5C2.31339 11.5 1 10.1478 1 8.5C1 7.57384 1.4141 6.7448 2.06543 6.19434C2.01267 5.97208 1.98145 5.74015 1.98145 5.5C1.98145 3.93463 3.16615 2.63679 4.69043 2.51074C5.22869 1.89456 6.01478 1.5 6.89648 1.5C7.43411 1.50005 7.93499 1.65028 8.36719 1.9043C8.7997 1.64984 9.30167 1.5 9.83984 1.5C11.3927 1.50012 12.6513 2.71306 12.7803 4.24121C13.3298 4.6379 14.1687 5.20259 14.6113 6.18164C14.9056 6.83262 14.9981 7.25806 15 7.99902C15.0009 8.36103 14.9303 8.77737 14.8672 9.08301C14.8348 9.23986 14.8027 9.37622 14.7783 9.47363C14.7661 9.52248 14.7554 9.56232 14.748 9.58984C14.7444 9.60341 14.7423 9.61453 14.7402 9.62207L14.7363 9.63379V9.63477L14.7305 9.65527L14.7227 9.6748L14.2549 9.5L14.7227 9.67578V9.67676L14.7217 9.67871C14.7211 9.68021 14.7206 9.68222 14.7197 9.68457C14.7178 9.68974 14.7145 9.69693 14.7109 9.70605C14.7039 9.72421 14.6938 9.74995 14.6807 9.78223C14.6543 9.84719 14.6159 9.93948 14.5664 10.0498C14.4676 10.2699 14.3223 10.5686 14.1396 10.8779C13.9584 11.185 13.7309 11.5175 13.4639 11.7959C13.202 12.0688 12.8638 12.3299 12.4551 12.4238L12.4287 12.4297L12.4014 12.4336C12.3533 12.4392 12.3221 12.4467 12.3037 12.4531C12.3031 12.4637 12.3018 12.4778 12.3018 12.5ZM2.98145 5.5C2.98145 5.64308 2.99751 5.78262 3.02637 5.91797L3.99512 6.00195C4.27025 6.02554 4.47476 6.26784 4.45117 6.54297C4.42746 6.81797 4.1852 7.02161 3.91016 6.99805L2.78223 6.90137C2.30837 7.26567 2 7.84435 2 8.5C2 9.61359 2.88354 10.5 3.95312 10.5C4.19317 10.5 4.42457 10.4527 4.64258 10.3682L4.66699 10.3584L4.69238 10.3516C5.48058 10.1361 6.13264 9.3258 6.13281 8.33887C6.13281 7.21706 5.82435 6.4703 5.71484 6.29004C5.57176 6.05408 5.64692 5.74681 5.88281 5.60352C6.11879 5.46032 6.42601 5.53554 6.56934 5.77148C6.72017 6.0198 6.9298 6.54377 7.0459 7.26758C7.24557 7.02811 7.45366 6.74303 7.63672 6.43066C7.84022 6.08343 7.99908 5.72985 8.08594 5.4082C8.17447 5.0802 8.17614 4.82951 8.12012 4.6582C8.0343 4.39575 8.17701 4.11318 8.43945 4.02734C8.70192 3.94151 8.98448 4.08519 9.07031 4.34766C9.21045 4.7763 9.1666 5.24346 9.05176 5.66895C8.93523 6.10048 8.7327 6.53676 8.49902 6.93555C8.10856 7.6018 7.58291 8.23645 7.12109 8.60156C7.03609 9.6342 6.45682 10.5374 5.63574 11.0254C5.97705 11.3225 6.41746 11.5 6.89648 11.5C7.35585 11.4999 7.7775 11.335 8.11328 11.0586C8.14244 10.7479 8.19295 10.4684 8.28418 10.1943C8.3955 9.85999 8.55789 9.55554 8.77637 9.22461C9.14421 8.66746 9.63889 8.44405 10.0234 8.27344C10.4184 8.09821 10.6909 7.97799 10.9189 7.68945C11.2744 7.23966 11.5037 6.47267 11.6377 5.74609C11.7024 5.39539 11.7411 5.07595 11.7637 4.84473C11.7749 4.72985 11.7818 4.63734 11.7861 4.57422C11.7883 4.54263 11.7901 4.51777 11.791 4.50195C11.7912 4.49779 11.7909 4.49418 11.791 4.49121C11.7864 3.38183 10.9065 2.50012 9.83984 2.5C9.40312 2.5 8.99975 2.64801 8.67188 2.89941L8.36816 3.13281L8.06348 2.89941C7.73571 2.64819 7.33299 2.50006 6.89648 2.5C6.34888 2.5 5.85279 2.7325 5.49609 3.11035L5.89941 4.34473C5.98523 4.60718 5.84252 4.88975 5.58008 4.97559C5.31762 5.06142 5.03506 4.91774 4.94922 4.65527L4.58203 3.5332C3.67739 3.70245 2.98145 4.51137 2.98145 5.5Z" fill="black"/>
</svg>
