<svg width="16" height="16" viewBox="0 0 16 16" fill="none" xmlns="http://www.w3.org/2000/svg">
<path d="M8 1.5C11.5899 1.5 14.5 4.41015 14.5 8C14.5 10.4055 13.1923 12.5039 11.25 13.6279V13.6289L11.249 13.6279C10.2929 14.1811 9.18408 14.5 8 14.5C4.41015 14.5 1.5 11.5899 1.5 8C1.5 4.41015 4.41015 1.5 8 1.5ZM4.48828 3.7666C3.27344 4.77546 2.5 6.29747 2.5 8C2.5 11.0376 4.96243 13.5 8 13.5C8.67221 13.5 9.31571 13.378 9.91113 13.1572C6.26004 11.5479 4.05659 7.73317 4.48828 3.7666ZM5.50684 3.68359C5.02094 7.34932 7.07377 10.9042 10.4912 12.3164C10.9774 8.65009 8.92515 5.09555 5.50684 3.68359ZM8 2.5C7.32759 2.5 6.68346 2.62094 6.08789 2.8418C9.73942 4.45066 11.9421 8.26574 11.5107 12.2324C12.7256 11.2236 13.5 9.70258 13.5 8C13.5 4.96243 11.0376 2.5 8 2.5Z" fill="black"/>
<path d="M9.30566 1.63184C9.63646 1.6993 9.95812 1.79159 10.2686 1.90723C9.41293 5.40434 6.26079 8 2.5 8C2.16189 8 1.82903 7.97627 1.50195 7.93555C1.50525 7.59631 1.53354 7.26338 1.58691 6.93848C1.88587 6.97744 2.19043 7 2.5 7C5.80388 7 8.5702 4.7104 9.30566 1.63184Z" fill="black"/>
<path d="M6.53027 14.3242C6.20145 14.2482 5.88184 14.1492 5.57422 14.0254C6.7549 11.0807 9.63333 9 13 9C13.4779 9 13.9455 9.04466 14.4004 9.125C14.3419 9.45834 14.2586 9.7829 14.1514 10.0967C13.7767 10.0346 13.3923 10 13 10C10.0818 10 7.58124 11.7859 6.53027 14.3242Z" fill="black"/>
</svg>
