<svg width="16" height="16" viewBox="0 0 16 16" fill="none" xmlns="http://www.w3.org/2000/svg">
<path d="M13.5 8C13.5 4.96243 11.0376 2.5 8 2.5C4.96243 2.5 2.5 4.96243 2.5 8C2.5 11.0376 4.96243 13.5 8 13.5V14.5C4.41015 14.5 1.5 11.5899 1.5 8C1.5 4.41015 4.41015 1.5 8 1.5C11.5899 1.5 14.5 4.41015 14.5 8C14.5 11.5899 11.5899 14.5 8 14.5V13.5C11.0376 13.5 13.5 11.0376 13.5 8Z" fill="black"/>
<path d="M13.5711 5.64285C13.8473 5.64285 14.0711 5.86671 14.0711 6.14285C14.0711 6.419 13.8473 6.64285 13.5711 6.64285L2.42856 6.64285C2.15242 6.64285 1.92856 6.419 1.92856 6.14285C1.92856 5.86671 2.15242 5.64285 2.42856 5.64285L13.5711 5.64285Z" fill="black"/>
<path d="M8 1.5C11.5899 5.08985 11.5899 10.9101 8 14.5C4.41015 10.9101 4.41015 5.08985 8 1.5ZM7.99931 3.01572C5.74555 5.94751 5.74555 10.0525 7.99931 12.9843C10.2538 10.0522 10.2538 5.94778 7.99931 3.01572Z" fill="black"/>
<path d="M13.5711 9.35715C13.8473 9.35715 14.0711 9.581 14.0711 9.85715C14.0711 10.1333 13.8473 10.3571 13.5711 10.3571L2.42856 10.3571C2.15242 10.3571 1.92856 10.1333 1.92856 9.85715C1.92856 9.581 2.15242 9.35715 2.42856 9.35715L13.5711 9.35715Z" fill="black"/>
</svg>
