<svg width="16" height="16" viewBox="0 0 16 16" fill="none" xmlns="http://www.w3.org/2000/svg">
<path d="M4 1.5H12C13.3807 1.5 14.5 2.61929 14.5 4V12C14.5 13.3807 13.3807 14.5 12 14.5H4C2.61929 14.5 1.5 13.3807 1.5 12V4C1.5 2.61929 2.61929 1.5 4 1.5Z" stroke="black"/>
<path d="M1.5 5H14.5" stroke="black"/>
<rect x="4" y="7" width="2" height="2" rx="1" fill="black"/>
<rect x="4" y="10" width="2" height="2" rx="1" fill="black"/>
<rect x="7" y="10" width="2" height="2" rx="1" fill="black"/>
<rect x="7" y="7" width="2" height="2" rx="1" fill="black"/>
<rect x="10" y="7" width="2" height="2" rx="1" fill="black"/>
</svg>
