<svg width="16" height="16" viewBox="0 0 16 16" fill="none" xmlns="http://www.w3.org/2000/svg">
<path d="M14.5 12C14.7761 12 15 12.2239 15 12.5C15 12.7761 14.7761 13 14.5 13H7C6.72386 13 6.5 12.7761 6.5 12.5C6.5 12.2239 6.72386 12 7 12H14.5ZM14.5 7.5C14.7761 7.5 15 7.72386 15 8C15 8.27614 14.7761 8.5 14.5 8.5H7C6.72386 8.5 6.5 8.27614 6.5 8C6.5 7.72386 6.72386 7.5 7 7.5H14.5ZM14.5 3C14.7761 3 15 3.22386 15 3.5C15 3.77614 14.7761 4 14.5 4H7C6.72386 4 6.5 3.77614 6.5 3.5C6.5 3.22386 6.72386 3 7 3H14.5Z" fill="black"/>
<path d="M4.12793 11.166C4.31241 10.9606 4.62853 10.9435 4.83398 11.1279C5.0394 11.3124 5.05649 11.6285 4.87207 11.834L3.07617 13.834C2.98643 13.9339 2.85975 13.9941 2.72558 14C2.59148 14.0059 2.46041 13.9569 2.3623 13.8652L1.15918 12.7412C0.957358 12.5527 0.946283 12.236 1.13476 12.0342C1.32325 11.8327 1.63909 11.8224 1.84082 12.0108L2.67187 12.7861L4.12793 11.166Z" fill="black"/>
<path d="M4.11815 6.67677C4.29648 6.46611 4.61244 6.43994 4.82323 6.61818C5.03389 6.79651 5.06006 7.11247 4.88182 7.32326L3.08592 9.44728C2.99758 9.55175 2.86995 9.61496 2.73338 9.62306C2.59673 9.63111 2.46233 9.5827 2.36229 9.48927L1.15916 8.36525C0.957395 8.17682 0.946413 7.86102 1.13475 7.6592C1.32318 7.45743 1.63898 7.44644 1.8408 7.63478L2.66112 8.40041L4.11815 6.67677Z" fill="black"/>
<path d="M4.12793 2.16603C4.31241 1.96061 4.62853 1.94352 4.83398 2.12794C5.0394 2.31243 5.05649 2.62854 4.87207 2.83399L3.07617 4.83399C2.98643 4.93391 2.85975 4.99412 2.72558 5.00001C2.59148 5.00585 2.46041 4.95687 2.3623 4.86524L1.15918 3.74122C0.957358 3.55274 0.946283 3.23601 1.13476 3.03419C1.32326 2.83264 1.63908 2.82239 1.84082 3.01075L2.67187 3.78614L4.12793 2.16603Z" fill="black"/>
</svg>
