<svg width="16" height="16" viewBox="0 0 16 16" fill="none" xmlns="http://www.w3.org/2000/svg">
<path d="M7.64651 5.14648C7.84177 4.95121 8.15828 4.95121 8.35354 5.14648L12.8535 9.64648C13.0488 9.84174 13.0488 10.1582 12.8535 10.3535C12.6583 10.5488 12.3418 10.5488 12.1465 10.3535L7.64651 5.85351C7.45125 5.65825 7.45125 5.34174 7.64651 5.14648Z" fill="black"/>
<path d="M7.64651 5.14648C7.84177 4.95121 8.15828 4.95121 8.35354 5.14648C8.5488 5.34174 8.5488 5.65825 8.35354 5.85351L3.85354 10.3535C3.65828 10.5488 3.34177 10.5488 3.14651 10.3535C2.95125 10.1582 2.95125 9.84174 3.14651 9.64648L7.64651 5.14648Z" fill="black"/>
</svg>
