<svg width="16" height="16" viewBox="0 0 16 16" fill="none" xmlns="http://www.w3.org/2000/svg">
<path d="M5.14651 8.35352C4.95125 8.15826 4.95125 7.84175 5.14651 7.64649L9.64651 3.14649C9.84177 2.95123 10.1583 2.95123 10.3535 3.14649C10.5488 3.34175 10.5488 3.65826 10.3535 3.85352L5.85354 8.35352C5.65828 8.54878 5.34177 8.54879 5.14651 8.35352Z" fill="black"/>
<path d="M5.14651 8.35352C4.95125 8.15826 4.95125 7.84175 5.14651 7.64649C5.34177 7.45123 5.65828 7.45123 5.85354 7.64649L10.3535 12.1465C10.5488 12.3418 10.5488 12.6583 10.3535 12.8535C10.1583 13.0488 9.84177 13.0488 9.64651 12.8535L5.14651 8.35352Z" fill="black"/>
</svg>
