<svg width="16" height="16" viewBox="0 0 16 16" fill="none" xmlns="http://www.w3.org/2000/svg">
<path d="M3.14651 5.64648C3.34177 5.45121 3.65828 5.45121 3.85354 5.64648L8.35354 10.1465C8.5488 10.3417 8.5488 10.6582 8.35354 10.8535C8.15828 11.0488 7.84177 11.0488 7.64651 10.8535L3.14651 6.35351C2.95125 6.15825 2.95125 5.84174 3.14651 5.64648Z" fill="black"/>
<path d="M12.1465 5.64648C12.3418 5.45121 12.6583 5.45121 12.8535 5.64648C13.0488 5.84174 13.0488 6.15825 12.8535 6.35351L8.35354 10.8535C8.15828 11.0488 7.84177 11.0488 7.64651 10.8535C7.45125 10.6582 7.45125 10.3417 7.64651 10.1465L12.1465 5.64648Z" fill="black"/>
</svg>
