<svg width="16" height="16" viewBox="0 0 16 16" fill="none" xmlns="http://www.w3.org/2000/svg">
<path d="M10.8535 7.64648C11.0488 7.84174 11.0488 8.15825 10.8535 8.35351L6.35349 12.8535C6.15823 13.0488 5.84172 13.0488 5.64646 12.8535C5.4512 12.6582 5.4512 12.3417 5.64646 12.1465L10.1465 7.64648C10.3417 7.45121 10.6582 7.45122 10.8535 7.64648Z" fill="black"/>
<path d="M10.8535 7.64648C11.0488 7.84174 11.0488 8.15825 10.8535 8.35351C10.6582 8.54877 10.3417 8.54877 10.1465 8.35351L5.64646 3.85351C5.4512 3.65825 5.4512 3.34174 5.64646 3.14648C5.84172 2.95121 6.15823 2.95121 6.35349 3.14648L10.8535 7.64648Z" fill="black"/>
</svg>
