<svg width="16" height="16" viewBox="0 0 16 16" fill="none" xmlns="http://www.w3.org/2000/svg">
<path d="M14 8C14 4.68629 11.3137 2 8 2C4.68629 2 2 4.68629 2 8C2 11.3137 4.68629 14 8 14V15C4.13401 15 1 11.866 1 8C1 4.13401 4.13401 1 8 1C11.866 1 15 4.13401 15 8C15 11.866 11.866 15 8 15V14C11.3137 14 14 11.3137 14 8Z" fill="black"/>
<path d="M12.1465 3.14648C12.3417 2.95122 12.6582 2.95122 12.8535 3.14648C13.0488 3.34174 13.0488 3.65825 12.8535 3.85351L3.85351 12.8535C3.65825 13.0488 3.34174 13.0488 3.14648 12.8535C2.95122 12.6582 2.95122 12.3417 3.14648 12.1465L12.1465 3.14648Z" fill="black"/>
</svg>
