<svg width="16" height="16" viewBox="0 0 16 16" fill="none" xmlns="http://www.w3.org/2000/svg">
<path d="M11.6436 3.64941C11.8373 3.45279 12.1539 3.45004 12.3506 3.64355C12.5472 3.83725 12.55 4.15385 12.3565 4.35058L8.73342 8.02636L12.3535 11.6465C12.5488 11.8417 12.5488 12.1582 12.3535 12.3535C12.1583 12.5488 11.8418 12.5488 11.6465 12.3535L8.03225 8.73925L4.47463 12.3506C4.2809 12.5472 3.96433 12.55 3.7676 12.3564C3.57102 12.1628 3.56832 11.8461 3.76174 11.6494L7.32522 8.03222L3.64651 4.35351C3.45125 4.15825 3.45125 3.84174 3.64651 3.64648C3.84177 3.45121 4.15828 3.45121 4.35354 3.64648L8.02639 7.31933L11.6436 3.64941Z" fill="black"/>
</svg>
