<svg width="16" height="16" viewBox="0 0 16 16" fill="none" xmlns="http://www.w3.org/2000/svg">
<path d="M3.74316 6.99609C3.85615 4.77016 5.69607 3 7.9502 3C10.0194 3 11.7367 4.49169 12.0928 6.45801C13.7039 6.66858 14.9481 8.04647 14.9482 9.71484C14.9482 11.529 13.4773 13 11.6631 13H3.82031C2.26291 12.9997 1.0003 11.7371 1 10.1797C1 8.64892 2.21953 7.40499 3.74023 7.3623C3.73848 7.31271 3.7373 7.26291 3.7373 7.21289L3.74316 6.99609ZM4.7373 7.21289C4.7373 7.41846 4.75696 7.62012 4.79395 7.81543C4.82496 7.97965 4.77176 8.14869 4.65234 8.26562C4.53288 8.38248 4.36274 8.43199 4.19922 8.39746C4.07828 8.37193 3.95127 8.3584 3.82031 8.3584C2.81511 8.35864 2 9.17411 2 10.1797L2.00977 10.3652C2.10294 11.2833 2.87776 11.9998 3.82031 12H11.6631C12.925 12 13.9482 10.9768 13.9482 9.71484C13.9481 8.45298 12.9249 7.42969 11.6631 7.42969C11.656 7.42969 11.6561 7.42968 11.6533 7.42969C11.3912 7.43071 11.1723 7.22913 11.1523 6.96777C11.0309 5.35981 9.72689 4.08197 8.10742 4.00391L7.9502 4C6.17575 4 4.73748 5.43837 4.7373 7.21289Z" fill="black"/>
</svg>
