<svg width="16" height="16" viewBox="0 0 16 16" fill="none" xmlns="http://www.w3.org/2000/svg">
<path d="M9.75399 4.6465C9.94925 4.45125 10.2658 4.45124 10.461 4.6465L12.6153 6.8008C12.8101 6.99609 12.8104 7.31272 12.6153 7.50783L10.461 9.66115C10.2658 9.85641 9.94925 9.85641 9.75399 9.66115C9.55876 9.46588 9.55874 9.14937 9.75399 8.95412L11.5538 7.15334L9.75399 5.35353C9.55873 5.15827 9.55873 4.84176 9.75399 4.6465Z" fill="black"/>
<path d="M6.35349 9.66123C6.15823 9.85649 5.84172 9.85649 5.64646 9.66123L3.49216 7.50693C3.29735 7.31164 3.29705 6.99502 3.49216 6.7999L5.64646 4.64658C5.84172 4.45132 6.15823 4.45132 6.35349 4.64658C6.54871 4.84185 6.54874 5.15837 6.35349 5.35361L4.55369 7.1544L6.35349 8.9542C6.54875 9.14946 6.54875 9.46597 6.35349 9.66123Z" fill="black"/>
<path d="M14 9.5V4.5C14 3.67158 13.3284 3 12.5 3H3.5C2.67157 3 2 3.67158 2 4.5V9.5C2 10.3284 2.67157 11 3.5 11H4.5C5.32843 11 6 11.6716 6 12.5V14.1689L8.3252 11.5127C8.61003 11.1872 9.02156 11 9.4541 11H12.5C13.3284 11 14 10.3284 14 9.5ZM15 9.5C15 10.8807 13.8807 12 12.5 12H9.4541C9.30992 12 9.17209 12.0624 9.07715 12.1709L6.75293 14.8281C6.14488 15.523 5 15.0923 5 14.1689V12.5C5 12.2239 4.77614 12 4.5 12H3.5C2.11929 12 1 10.8807 1 9.5V4.5C1 3.11929 2.11929 2 3.5 2H12.5C13.8807 2 15 3.11929 15 4.5V9.5Z" fill="black"/>
</svg>
