<svg width="16" height="16" viewBox="0 0 16 16" fill="none" xmlns="http://www.w3.org/2000/svg">
<path d="M9.64645 4.14648C9.84171 3.95121 10.1582 3.95121 10.3535 4.14648L13.8535 7.64648C14.0487 7.84174 14.0487 8.15825 13.8535 8.35351L10.3535 11.8535C10.1582 12.0488 9.84171 12.0488 9.64645 11.8535C9.45118 11.6582 9.45118 11.3417 9.64645 11.1465L12.7929 7.99999L9.64645 4.85351C9.45118 4.65825 9.45118 4.34174 9.64645 4.14648Z" fill="black"/>
<path d="M6.35349 11.8535C6.15823 12.0488 5.84172 12.0488 5.64646 11.8535L2.14646 8.35352C1.9512 8.15826 1.9512 7.84175 2.14646 7.64649L5.64646 4.14649C5.84172 3.95123 6.15823 3.95123 6.35349 4.14649C6.54875 4.34175 6.54875 4.65826 6.35349 4.85352L3.20701 8.00001L6.35349 11.1465C6.54875 11.3418 6.54875 11.6583 6.35349 11.8535Z" fill="black"/>
</svg>
