<svg width="16" height="16" viewBox="0 0 16 16" fill="none" xmlns="http://www.w3.org/2000/svg">
<path d="M13 8C13 5.23858 10.7614 3 8 3C5.23858 3 3 5.23858 3 8C3 10.7614 5.23858 13 8 13V15C4.13401 15 1 11.866 1 8C1 4.13401 4.13401 1 8 1C11.866 1 15 4.13401 15 8C15 11.866 11.866 15 8 15V13C10.7614 13 13 10.7614 13 8Z" fill="black"/>
<path d="M9.79295 4.79295C10.1835 4.40243 10.8165 4.40243 11.207 4.79295C11.5975 5.18348 11.5975 5.81649 11.207 6.20702L9.41405 7.99999L11.207 9.79295C11.5975 10.1835 11.5975 10.8165 11.207 11.207C10.8165 11.5975 10.1835 11.5975 9.79295 11.207L7.99999 9.41405L6.20702 11.207C5.81649 11.5975 5.18348 11.5975 4.79295 11.207C4.40243 10.8165 4.40243 10.1835 4.79295 9.79295L6.58592 7.99999L4.79295 6.20702C4.40243 5.81649 4.40243 5.18348 4.79295 4.79295C5.18348 4.40243 5.81649 4.40243 6.20702 4.79295L7.99999 6.58592L9.79295 4.79295Z" fill="black"/>
</svg>
