<svg width="16" height="16" viewBox="0 0 16 16" fill="none" xmlns="http://www.w3.org/2000/svg">
<path d="M14 9.5V4.5C14 3.67157 13.3284 3 12.5 3H3.5C2.67157 3 2 3.67157 2 4.5V9.5C2 10.3284 2.67157 11 3.5 11H4.5C5.32843 11 6 11.6716 6 12.5V14.1689L8.3252 11.5127C8.61003 11.1872 9.02156 11 9.4541 11H12.5C13.3284 11 14 10.3284 14 9.5ZM15 9.5C15 10.8807 13.8807 12 12.5 12H9.4541C9.30992 12 9.17209 12.0624 9.07715 12.1709L6.75293 14.8281C6.14488 15.523 5 15.0923 5 14.1689V12.5C5 12.2239 4.77614 12 4.5 12H3.5C2.11929 12 1 10.8807 1 9.5V4.5C1 3.11929 2.11929 2 3.5 2H12.5C13.8807 2 15 3.11929 15 4.5V9.5Z" fill="black"/>
<path d="M8.69336 8C8.96945 8.00006 9.19335 8.2239 9.19336 8.5C9.19336 8.77611 8.96945 8.99994 8.69336 9H4C3.72386 9 3.5 8.77614 3.5 8.5C3.50001 8.22386 3.72386 8 4 8H8.69336ZM12 5C12.2761 5 12.5 5.22386 12.5 5.5C12.5 5.77614 12.2761 6 12 6H4C3.72386 6 3.5 5.77614 3.5 5.5C3.5 5.22386 3.72386 5 4 5H12Z" fill="black"/>
</svg>
