<svg width="16" height="16" viewBox="0 0 16 16" fill="none" xmlns="http://www.w3.org/2000/svg">
<path d="M5.83301 10.167H4.66699C4.02277 10.167 3.50018 10.6888 3.5 11.333C3.5 11.9773 4.02266 12.5 4.66699 12.5C5.31117 12.4998 5.83301 11.9772 5.83301 11.333V10.167ZM12.5 11.333C12.4998 10.6888 11.9772 10.167 11.333 10.167H10.167V11.333C10.167 11.9772 10.6888 12.4998 11.333 12.5C11.9773 12.5 12.5 11.9773 12.5 11.333ZM6.83301 9.16699H9.16699V6.83301H6.83301V9.16699ZM5.83301 4.66699C5.83301 4.02277 5.31117 3.50018 4.66699 3.5C4.02266 3.5 3.5 4.02266 3.5 4.66699C3.50018 5.31118 4.02277 5.83301 4.66699 5.83301H5.83301V4.66699ZM12.5 4.66699C12.5 4.02266 11.9773 3.5 11.333 3.5C10.6888 3.50018 10.167 4.02277 10.167 4.66699V5.83301H11.333C11.9772 5.83301 12.4998 5.31117 12.5 4.66699ZM13.5 4.66699C13.4998 5.86346 12.5295 6.83301 11.333 6.83301H10.167V9.16699H11.333C12.5295 9.16699 13.4998 10.1365 13.5 11.333C13.5 12.5296 12.5296 13.5 11.333 13.5C10.1365 13.4998 9.16699 12.5295 9.16699 11.333V10.167H6.83301V11.333C6.83301 12.5295 5.86346 13.4998 4.66699 13.5C3.47038 13.5 2.5 12.5296 2.5 11.333C2.50018 10.1365 3.47048 9.16699 4.66699 9.16699H5.83301V6.83301H4.66699C3.47048 6.83301 2.50018 5.86346 2.5 4.66699C2.5 3.47038 3.47038 2.5 4.66699 2.5C5.86346 2.50018 6.83301 3.47048 6.83301 4.66699V5.83301H9.16699V4.66699C9.16699 3.47049 10.1365 2.50018 11.333 2.5C12.5296 2.5 13.5 3.47037 13.5 4.66699Z" fill="black"/>
</svg>
