<svg width="16" height="16" viewBox="0 0 16 16" fill="none" xmlns="http://www.w3.org/2000/svg">
<path d="M9.375 13V14H4V13H9.375ZM10.375 12V6.625C10.375 6.07272 9.92728 5.625 9.375 5.625H4C3.44772 5.625 3 6.07272 3 6.625V12C3 12.5523 3.44772 13 4 13V14L3.7959 13.9893C2.85435 13.8938 2.1062 13.1457 2.01074 12.2041L2 12V6.625C2 5.52043 2.89543 4.625 4 4.625H9.375C10.4796 4.625 11.375 5.52043 11.375 6.625V12C11.375 13.0357 10.5878 13.887 9.5791 13.9893L9.375 14V13C9.92728 13 10.375 12.5523 10.375 12Z" fill="black"/>
<path d="M12 2C13.1046 2 14 2.89543 14 4V9.375C14 10.4107 13.2128 11.262 12.2041 11.3643L12 11.375H11.375V10.375H12C12.5523 10.375 13 9.92728 13 9.375V4C13 3.44772 12.5523 3 12 3H6.625C6.07272 3 5.625 3.44772 5.625 4V4.625H4.625V4C4.625 2.89543 5.52043 2 6.625 2H12Z" fill="black"/>
</svg>
