<svg width="16" height="16" viewBox="0 0 16 16" fill="none" xmlns="http://www.w3.org/2000/svg">
<path d="M12.5 10.9858C12.2675 11.1334 12.0051 11.265 11.7217 11.3784C10.7444 11.7693 9.42804 12.0005 8 12.0005C6.57196 12.0005 5.25564 11.7693 4.27832 11.3784C3.99493 11.265 3.73252 11.1334 3.5 10.9858V12.0005C3.50016 12.0948 3.54593 12.2355 3.73633 12.4155C3.92812 12.5969 4.2329 12.7827 4.65039 12.9497C5.48271 13.2826 6.66667 13.5005 8 13.5005C9.33333 13.5005 10.5173 13.2826 11.3496 12.9497C11.7671 12.7827 12.0719 12.5969 12.2637 12.4155C12.4541 12.2355 12.4998 12.0948 12.5 12.0005V10.9858ZM12.5 8.23584C12.2675 8.38341 12.0051 8.51504 11.7217 8.62842C10.7444 9.01935 9.42804 9.25049 8 9.25049C6.57196 9.25049 5.25564 9.01935 4.27832 8.62842C3.99493 8.51504 3.73252 8.38341 3.5 8.23584V9.50049L3.50977 9.57959C3.53161 9.66734 3.59337 9.78033 3.73633 9.91553C3.92812 10.0969 4.2329 10.2827 4.65039 10.4497C5.48271 10.7826 6.66667 11.0005 8 11.0005C9.33333 11.0005 10.5173 10.7826 11.3496 10.4497C11.7671 10.2827 12.0719 10.0969 12.2637 9.91553C12.4066 9.78033 12.4684 9.66734 12.4902 9.57959L12.5 9.50049V8.23584ZM12.5 5.47412C12.2675 5.62166 12.005 5.75334 11.7217 5.8667C10.7444 6.25763 9.42804 6.48779 8 6.48779C6.57196 6.48779 5.25564 6.25763 4.27832 5.8667C3.99496 5.75334 3.73252 5.62166 3.5 5.47412V6.75049L3.50977 6.82959C3.53161 6.91734 3.59337 7.03033 3.73633 7.16553C3.92812 7.34688 4.2329 7.53271 4.65039 7.69971C5.48271 8.03261 6.66667 8.25049 8 8.25049C9.33333 8.25049 10.5173 8.03261 11.3496 7.69971C11.7671 7.53271 12.0719 7.34688 12.2637 7.16553C12.4066 7.03033 12.4684 6.91734 12.4902 6.82959L12.5 6.75049V5.47412ZM12.5 3.98779C12.5 3.89346 12.4543 3.75305 12.2637 3.57275C12.0719 3.39138 11.7672 3.20462 11.3496 3.0376C10.5173 2.70473 9.33324 2.48779 8 2.48779C6.66676 2.48779 5.4827 2.70473 4.65039 3.0376C4.23284 3.20462 3.92811 3.39138 3.73633 3.57275C3.54574 3.75305 3.5 3.89346 3.5 3.98779C3.5 4.08212 3.54574 4.22253 3.73633 4.40283C3.92811 4.5842 4.23284 4.77097 4.65039 4.93799C5.4827 5.27086 6.66676 5.48779 8 5.48779C9.33324 5.48779 10.5173 5.27086 11.3496 4.93799C11.7672 4.77097 12.0719 4.5842 12.2637 4.40283C12.4543 4.22253 12.5 4.08212 12.5 3.98779ZM13.5 12.0005C13.4998 12.4582 13.2654 12.844 12.9502 13.1421C12.6361 13.439 12.2086 13.6836 11.7217 13.8784C10.7444 14.2694 9.42804 14.5005 8 14.5005C6.57196 14.5005 5.25564 14.2694 4.27832 13.8784C3.79141 13.6836 3.36392 13.439 3.0498 13.1421C2.73462 12.844 2.50017 12.4582 2.5 12.0005V3.98779C2.5 3.52987 2.73451 3.14437 3.0498 2.84619C3.36398 2.54912 3.79122 2.30375 4.27832 2.10889C5.25564 1.71796 6.57196 1.48779 8 1.48779C9.42804 1.48779 10.7444 1.71796 11.7217 2.10889C12.2088 2.30375 12.636 2.54912 12.9502 2.84619C13.2655 3.14437 13.5 3.52987 13.5 3.98779V12.0005Z" fill="black"/>
</svg>
