<svg width="16" height="16" viewBox="0 0 16 16" fill="none" xmlns="http://www.w3.org/2000/svg">
<path d="M13 10.8975V7.49999C13 6.67157 12.3284 5.99999 11.5 5.99999L5.20703 5.99999L7.85352 8.64648C8.04878 8.84174 8.04878 9.15825 7.85352 9.35351C7.65825 9.54877 7.34175 9.54877 7.14648 9.35351L3.64648 5.85351C3.45122 5.65825 3.45122 5.34174 3.64648 5.14648L7.14648 1.64648C7.34175 1.45121 7.65825 1.45121 7.85352 1.64648C8.04878 1.84174 8.04878 2.15825 7.85352 2.35351L5.20703 4.99999H11.5C12.8807 4.99999 14 6.11928 14 7.49999V10.8975C14 12.2781 12.8807 13.3975 11.5 13.3975H2.5C2.22389 13.3975 2.00005 13.1736 2 12.8975C2 12.6213 2.22386 12.3975 2.5 12.3975H11.5C12.3284 12.3975 13 11.7258 13 10.8975Z" fill="black"/>
</svg>
