<svg width="16" height="16" viewBox="0 0 16 16" fill="none" xmlns="http://www.w3.org/2000/svg">
<path d="M3 3C3 1.96435 3.78722 1.113 4.7959 1.01074L5 1H8.78516C9.03673 1.00008 9.27916 1.09483 9.46387 1.26562L13.1787 4.70312C13.3833 4.8924 13.5 5.15879 13.5 5.4375V8H3V3ZM4 7H12.5V5.4375L8.78516 2H5C4.44772 2 4 2.44772 4 3V7Z" fill="black"/>
<path d="M7.75 4.66699V1.5H8.75V4.66699C8.75019 4.94298 8.97397 5.16699 9.25 5.16699H12.9746V6.16699H9.25C8.42169 6.16699 7.75019 5.49526 7.75 4.66699Z" fill="black"/>
<path d="M13 14V15H3V14H13ZM14 13V9C14 8.44772 13.5523 8 13 8H3C2.44772 8 2 8.44772 2 9V13C2 13.5523 2.44772 14 3 14V15L2.7959 14.9893C1.78722 14.887 1 14.0357 1 13V9C1 7.89543 1.89543 7 3 7H13C14.1046 7 15 7.89543 15 9V13L14.9893 13.2041C14.8938 14.1457 14.1457 14.8938 13.2041 14.9893L13 15V14C13.5523 14 14 13.5523 14 13Z" fill="black"/>
<path d="M10 11C10 9.89543 10.8954 9 12 9H12.5C12.7761 9 13 9.22386 13 9.5C13 9.77614 12.7761 10 12.5 10H12C11.4477 10 11 10.4477 11 11C11 11.5523 11.4477 12 12 12H12.5C12.7761 12 13 12.2239 13 12.5C13 12.7761 12.7761 13 12.5 13H12C10.8954 13 10 12.1046 10 11Z" fill="black"/>
<path d="M5 11C5 10.6077 4.85427 10.3938 4.64062 10.2539C4.48314 10.1508 4.2674 10.076 4 10.0352V11.9639C4.26734 11.9231 4.48317 11.8492 4.64062 11.7461C4.85427 11.6062 5 11.3923 5 11ZM6 11C6 11.7122 5.69859 12.249 5.18848 12.583C4.71077 12.8957 4.09816 13 3.5 13C3.22386 13 3 12.7761 3 12.5V9.5C3 9.22386 3.22386 9 3.5 9C4.09816 9 4.71077 9.10427 5.18848 9.41699C5.69859 9.75096 6 10.2878 6 11Z" fill="black"/>
<path d="M8.5 11.5V10.5C8.5 10.2239 8.27614 10 8 10C7.72386 10 7.5 10.2239 7.5 10.5V11.5C7.5 11.7761 7.72386 12 8 12V13C7.17157 13 6.5 12.3284 6.5 11.5V10.5C6.5 9.67157 7.17157 9 8 9C8.82843 9 9.5 9.67157 9.5 10.5V11.5C9.5 12.3284 8.82843 13 8 13V12C8.27614 12 8.5 11.7761 8.5 11.5Z" fill="black"/>
</svg>
