<svg width="16" height="16" viewBox="0 0 16 16" fill="none" xmlns="http://www.w3.org/2000/svg">
<path d="M3 3C3 1.96435 3.78722 1.113 4.7959 1.01074L5 1H8.78516C9.03673 1.00008 9.27916 1.09483 9.46387 1.26562L13.1787 4.70312C13.3833 4.8924 13.5 5.15879 13.5 5.4375V8H3V3ZM4 7H12.5V5.4375L8.78516 2H5C4.44772 2 4 2.44772 4 3V7Z" fill="black"/>
<path d="M7.75 4.66699V1.5H8.75V4.66699C8.75019 4.94298 8.97397 5.16699 9.25 5.16699H12.9746V6.16699H9.25C8.42169 6.16699 7.75019 5.49526 7.75 4.66699Z" fill="black"/>
<path d="M13 7C14.1046 7 15 7.89543 15 9V13C15 14.1046 14.1046 15 13 15H3C1.89543 15 1 14.1046 1 13V9C1 7.89543 1.89543 7 3 7H13ZM3 9C2.72386 9 2.5 9.22386 2.5 9.5V12.5C2.5 12.7761 2.72386 13 3 13C3.59816 13 4.21077 12.8957 4.68848 12.583C5.19859 12.249 5.5 11.7122 5.5 11C5.5 10.2878 5.19859 9.75096 4.68848 9.41699C4.21077 9.10427 3.59816 9 3 9ZM8 9C7.17157 9 6.5 9.67157 6.5 10.5V11.5C6.5 12.3284 7.17157 13 8 13C8.82843 13 9.5 12.3284 9.5 11.5V10.5C9.5 9.67157 8.82843 9 8 9ZM12.5 9C11.3954 9 10.5 9.89544 10.5 11C10.5 12.1046 11.3954 13 12.5 13H13C13.2761 13 13.5 12.7761 13.5 12.5C13.5 12.2239 13.2761 12 13 12H12.5C11.9477 12 11.5 11.5523 11.5 11C11.5 10.4477 11.9477 10 12.5 10H13C13.2761 10 13.5 9.77614 13.5 9.5C13.5 9.22387 13.2761 9 13 9H12.5ZM8 10C8.27614 10 8.5 10.2239 8.5 10.5V11.5C8.5 11.7761 8.27614 12 8 12C7.72386 12 7.5 11.7761 7.5 11.5V10.5C7.5 10.2239 7.72386 10 8 10ZM3.5 10.0352C3.7674 10.076 3.98314 10.1508 4.14062 10.2539C4.35427 10.3938 4.5 10.6077 4.5 11C4.5 11.3923 4.35427 11.6062 4.14062 11.7461C3.98317 11.8492 3.76734 11.9231 3.5 11.9639V10.0352Z" fill="#0059FF"/>
</svg>
