<svg width="16" height="16" viewBox="0 0 16 16" fill="none" xmlns="http://www.w3.org/2000/svg">
<path d="M4 13.5L12 13.5C12.2761 13.5 12.5 13.7239 12.5 14C12.5 14.2761 12.2761 14.5 12 14.5L4 14.5C3.72386 14.5 3.5 14.2761 3.5 14C3.5 13.7239 3.72386 13.5 4 13.5Z" fill="black"/>
<path d="M12.3535 7.64648C12.5488 7.84175 12.5488 8.15825 12.3535 8.35352L8.35349 12.3535C8.15823 12.5488 7.84172 12.5488 7.64646 12.3535L3.64646 8.35352C3.4512 8.15825 3.4512 7.84175 3.64646 7.64648C3.84172 7.45122 4.15823 7.45122 4.35349 7.64648L7.49998 10.793L7.49998 2.5C7.49998 2.22386 7.72383 2 7.99998 2C8.27612 2 8.49998 2.22386 8.49998 2.5L8.49998 10.793L11.6465 7.64648C11.8417 7.45122 12.1582 7.45122 12.3535 7.64648Z" fill="black"/>
</svg>
