<svg width="16" height="16" viewBox="0 0 16 16" fill="none" xmlns="http://www.w3.org/2000/svg">
<path d="M5.14651 5.64648C5.34177 5.45122 5.65828 5.45122 5.85354 5.64648C6.0488 5.84175 6.0488 6.15825 5.85354 6.35352L3.20705 9H11.5C12.3285 9 13 8.32843 13 7.5V3C13 2.72386 13.2239 2.5 13.5 2.5C13.7762 2.5 14 2.72386 14 3V7.5C14 8.88071 12.8807 10 11.5 10H3.20705L5.85354 12.6465C6.0488 12.8417 6.0488 13.1583 5.85354 13.3535C5.65828 13.5488 5.34177 13.5488 5.14651 13.3535L1.64651 9.85352C1.45125 9.65825 1.45125 9.34175 1.64651 9.14648L5.14651 5.64648Z" fill="black"/>
</svg>
