<svg width="16" height="16" viewBox="0 0 16 16" fill="none" xmlns="http://www.w3.org/2000/svg">
<path d="M14 8C14 4.68629 11.3137 2 8 2C4.68629 2 2 4.68629 2 8C2 11.3137 4.68629 14 8 14V15C4.13401 15 1 11.866 1 8C1 4.13401 4.13401 1 8 1C11.866 1 15 4.13401 15 8C15 11.866 11.866 15 8 15V14C11.3137 14 14 11.3137 14 8Z" fill="black"/>
<path d="M10.1465 5.14648C10.3417 4.95121 10.6582 4.95121 10.8535 5.14648C11.0488 5.34174 11.0488 5.65825 10.8535 5.85351L8.70702 7.99999L10.8535 10.1465C11.0488 10.3417 11.0488 10.6582 10.8535 10.8535C10.6582 11.0488 10.3417 11.0488 10.1465 10.8535L7.99999 8.70702L5.85351 10.8535C5.65825 11.0488 5.34174 11.0488 5.14648 10.8535C4.95121 10.6582 4.95121 10.3417 5.14648 10.1465L7.29296 7.99999L5.14648 5.85351C4.95121 5.65825 4.95121 5.34174 5.14648 5.14648C5.34174 4.95121 5.65825 4.95121 5.85351 5.14648L7.99999 7.29296L10.1465 5.14648Z" fill="black"/>
</svg>
