<svg width="16" height="16" viewBox="0 0 16 16" fill="none" xmlns="http://www.w3.org/2000/svg">
<path d="M9.14648 3.64648C9.34175 3.45121 9.65825 3.45121 9.85352 3.64648L13.8535 7.64648C14.0488 7.84174 14.0488 8.15825 13.8535 8.35351L9.85352 12.3535C9.65825 12.5488 9.34175 12.5488 9.14648 12.3535C8.95122 12.1582 8.95122 11.8417 9.14648 11.6465L12.293 8.49999H4C3.72386 8.49999 3.5 8.27614 3.5 7.99999C3.5 7.72385 3.72386 7.49999 4 7.49999H12.293L9.14648 4.35351C8.95122 4.15825 8.95122 3.84174 9.14648 3.64648Z" fill="black"/>
<path d="M1.5 12.1797V4C1.5 3.72386 1.72386 3.5 2 3.5C2.27614 3.5 2.5 3.72386 2.5 4V12.1797C2.5 12.4558 2.27614 12.6797 2 12.6797C1.72386 12.6797 1.5 12.4558 1.5 12.1797Z" fill="black"/>
</svg>
