<svg width="16" height="16" viewBox="0 0 16 16" fill="none" xmlns="http://www.w3.org/2000/svg">
<path d="M1.5 12V10C1.5 9.72386 1.72386 9.5 2 9.5C2.27614 9.5 2.5 9.72386 2.5 10V12C2.5 12.8284 3.17157 13.5 4 13.5H12C12.8284 13.5 13.5 12.8284 13.5 12V10C13.5 9.72386 13.7239 9.5 14 9.5C14.2761 9.5 14.5 9.72386 14.5 10V12C14.5 13.3807 13.3807 14.5 12 14.5H4C2.61929 14.5 1.5 13.3807 1.5 12Z" fill="black"/>
<path d="M3.64651 6.85352C3.45125 6.65825 3.45125 6.34175 3.64651 6.14648L7.64651 2.14648C7.84177 1.95122 8.15828 1.95122 8.35354 2.14648L12.3535 6.14648C12.5488 6.34175 12.5488 6.65825 12.3535 6.85352C12.1583 7.04878 11.8418 7.04878 11.6465 6.85352L8.50002 3.70703L8.50002 12C8.50002 12.2761 8.27617 12.5 8.00002 12.5C7.72388 12.5 7.50002 12.2761 7.50002 12L7.50002 3.70703L4.35354 6.85352C4.15828 7.04878 3.84177 7.04878 3.64651 6.85352Z" fill="black"/>
</svg>
