<svg width="16" height="16" viewBox="0 0 16 16" fill="none" xmlns="http://www.w3.org/2000/svg">
<path d="M13.5 9C13.5 8.72386 13.2761 8.5 13 8.5H8.5V13.5H12C12.8284 13.5 13.5 12.8284 13.5 12V9ZM2.5 12C2.5 12.8284 3.17157 13.5 4 13.5H7.5V8.5H2.5V12ZM7.5 3C7.5 2.72386 7.27614 2.5 7 2.5H3C2.72386 2.5 2.5 2.72386 2.5 3V7.5H7.5V3ZM8.5 7.5H13C13.8284 7.5 14.5 8.17157 14.5 9V12C14.5 13.3807 13.3807 14.5 12 14.5H4C2.61929 14.5 1.5 13.3807 1.5 12V3C1.5 2.17157 2.17157 1.5 3 1.5H7C7.82843 1.5 8.5 2.17157 8.5 3V7.5Z" fill="black"/>
<path d="M11.8891 2.06065C11.6938 1.86539 11.3773 1.86539 11.182 2.06065L9.06067 4.18197C8.86541 4.37723 8.86541 4.69381 9.06067 4.88908L11.182 7.0104C11.3773 7.20566 11.6938 7.20566 11.8891 7.0104L14.0104 4.88908C14.2057 4.69381 14.2057 4.37723 14.0104 4.18197L11.8891 2.06065ZM14.7175 3.47486C15.3033 4.06065 15.3033 5.0104 14.7175 5.59618L12.5962 7.7175C12.0104 8.30329 11.0607 8.30329 10.4749 7.7175L8.35357 5.59618C7.76778 5.0104 7.76778 4.06065 8.35357 3.47486L10.4749 1.35354C11.0607 0.767755 12.0104 0.767756 12.5962 1.35354L14.7175 3.47486Z" fill="black"/>
</svg>
