<svg width="16" height="16" viewBox="0 0 16 16" fill="none" xmlns="http://www.w3.org/2000/svg">
<path d="M7.55431 2.3765C7.73965 2.012 8.26035 2.012 8.44569 2.3765L9.89059 5.21805C9.96455 5.36351 10.1049 5.46373 10.2664 5.48652L13.4722 5.93864C13.8869 5.99713 14.0502 6.50909 13.746 6.79695L11.4456 8.9733C11.3235 9.08883 11.2676 9.25799 11.2969 9.42352L11.8425 12.5113C11.9143 12.9177 11.4905 13.2313 11.1229 13.0436L8.22726 11.5661C8.08451 11.4933 7.91549 11.4933 7.77274 11.5661L4.87713 13.0436C4.50946 13.2313 4.08567 12.9177 4.1575 12.5113L4.70314 9.42352C4.73239 9.25799 4.67651 9.08883 4.5544 8.9733L2.25401 6.79695C1.94975 6.50909 2.11307 5.99713 2.52781 5.93864L5.73355 5.48652C5.89514 5.46373 6.03545 5.36351 6.10941 5.21805L7.55431 2.3765Z" stroke="black" stroke-linejoin="round"/>
</svg>
