<svg width="16" height="16" viewBox="0 0 16 16" fill="none" xmlns="http://www.w3.org/2000/svg">
<path d="M7.39424 2.40849C7.57764 2.03687 8.10756 2.03687 8.29097 2.40849L9.78352 5.43272C9.85635 5.58029 9.99713 5.68258 10.16 5.70624L13.4974 6.1912C13.9075 6.25079 14.0713 6.75478 13.7745 7.04404L11.3595 9.39808C11.2417 9.51294 11.1879 9.67844 11.2157 9.84064L11.7858 13.1646C11.8559 13.573 11.4272 13.8845 11.0604 13.6917L8.07527 12.1223C7.92961 12.0457 7.7556 12.0457 7.60993 12.1223L4.62484 13.6917C4.25803 13.8845 3.82931 13.573 3.89937 13.1646L4.46947 9.84064C4.49729 9.67844 4.44351 9.51294 4.32567 9.39808L1.91068 7.04404C1.61392 6.75478 1.77768 6.25079 2.18779 6.1912L5.52522 5.70624C5.68808 5.68258 5.82886 5.58029 5.90169 5.43272L7.39424 2.40849Z" stroke="black" stroke-linejoin="round"/>
</svg>
