<svg width="16" height="16" viewBox="0 0 16 16" fill="none" xmlns="http://www.w3.org/2000/svg">
<path d="M9 14V15H4V14H9ZM2 13V5C2 3.89543 2.89543 3 4 3H6.90234C7.15412 3 7.39722 3.09464 7.58203 3.26562L10.6787 6.13183C10.8833 6.32111 11 6.5875 11 6.86621V13L10.9893 13.2041C10.887 14.2128 10.0356 15 9 15V14C9.55228 14 10 13.5523 10 13V6.86621L6.90234 4H4C3.44771 4 3 4.44772 3 5V13C3 13.5523 3.44772 14 4 14V15L3.7959 14.9893C2.85435 14.8938 2.1062 14.1456 2.01074 13.2041L2 13Z" fill="black"/>
<path d="M6 5.99988V3.42859H7V5.99988C7 6.27602 7.22386 6.49988 7.5 6.49988H10.5498V7.49988H7.5C6.67157 7.49988 6 6.82831 6 5.99988Z" fill="black"/>
<path d="M10.9678 1.00293C10.9785 1.00225 10.9891 1 11 1C11.0768 1 11.1489 1.0189 11.2139 1.0498C11.3495 1.09414 11.4756 1.16714 11.582 1.26562L14.6797 4.13184C14.884 4.32108 15 4.58773 15 4.86621V11C14.9998 12.1044 14.1044 12.9999 13 13H11V12H13C13.5521 11.9999 13.9998 11.5521 14 11V5.5H12C11.1717 5.5 10.5002 4.82828 10.5 4V2H8C7.44771 2 7 2.44772 7 3H6C6 1.96436 6.78724 1.11302 7.7959 1.01074L8 1H10.9023C10.9242 1 10.946 1.00151 10.9678 1.00293ZM11.5 4C11.5002 4.27599 11.724 4.5 12 4.5H13.6045L11.5 2.55273V4Z" fill="black"/>
</svg>
