<svg width="16" height="16" viewBox="0 0 16 16" fill="none" xmlns="http://www.w3.org/2000/svg">
<path d="M3 3C3 1.96435 3.78722 1.113 4.7959 1.01074L5 1H8.78516C9.03673 1.00008 9.27916 1.09483 9.46387 1.26562L13.1787 4.70312C13.3833 4.8924 13.5 5.15879 13.5 5.4375V8H3V3ZM4 7H12.5V5.4375L8.78516 2H5C4.44772 2 4 2.44772 4 3V7Z" fill="black"/>
<path d="M7.75 4.66699V1.5H8.75V4.66699C8.75019 4.94298 8.97397 5.16699 9.25 5.16699H12.9746V6.16699H9.25C8.42169 6.16699 7.75019 5.49526 7.75 4.66699Z" fill="black"/>
<path d="M13 14V15H3V14H13ZM14 13V9C14 8.44772 13.5523 8 13 8H3C2.44772 8 2 8.44772 2 9V13C2 13.5523 2.44772 14 3 14V15L2.7959 14.9893C1.78722 14.887 1 14.0357 1 13V9C1 7.89543 1.89543 7 3 7H13C14.1046 7 15 7.89543 15 9V13L14.9893 13.2041C14.8938 14.1457 14.1457 14.8938 13.2041 14.9893L13 15V14C13.5523 14 14 13.5523 14 13Z" fill="black"/>
<path d="M5 10.4141C5 10.138 4.77614 9.91412 4.5 9.91412H4V10.9141H4.5C4.77614 10.9141 5 10.6903 5 10.4141ZM6 10.4141C6 11.2425 5.32843 11.9141 4.5 11.9141H4V12.5001C3.99997 12.7762 3.77612 13.0001 3.5 13.0001C3.22388 13.0001 3.00003 12.7762 3 12.5001V9.41412C3 9.13798 3.22386 8.91412 3.5 8.91412H4.5C5.32843 8.91412 6 9.5857 6 10.4141Z" fill="black"/>
<path d="M8.5 11C8.5 10.6077 8.35427 10.3938 8.14062 10.2539C7.98314 10.1508 7.7674 10.076 7.5 10.0352V11.9639C7.76734 11.9231 7.98317 11.8492 8.14062 11.7461C8.35427 11.6062 8.5 11.3923 8.5 11ZM9.5 11C9.5 11.7122 9.19859 12.249 8.68848 12.583C8.21077 12.8957 7.59816 13 7 13C6.72386 13 6.5 12.7761 6.5 12.5V9.5C6.5 9.22386 6.72386 9 7 9C7.59816 9 8.21077 9.10427 8.68848 9.41699C9.19859 9.75096 9.5 10.2878 9.5 11Z" fill="black"/>
<path d="M10 12.5V9.50001C10 9.36692 10.0531 9.23936 10.1475 9.14552C10.2419 9.05176 10.3699 8.99923 10.5029 9.00001L12.5029 9.01368C12.779 9.01555 13.0017 9.24062 13 9.51661C12.9981 9.79259 12.773 10.0153 12.4971 10.0137L11 10.0029V10.5H12C12.2761 10.5 12.5 10.7239 12.5 11C12.5 11.2762 12.2761 11.5 12 11.5H11V12.5C11 12.7762 10.7761 13 10.5 13C10.2239 13 10 12.7762 10 12.5Z" fill="black"/>
</svg>
