<svg width="16" height="16" viewBox="0 0 16 16" fill="none" xmlns="http://www.w3.org/2000/svg">
<path d="M8.99999 9.9541C8.99999 9.52156 9.18716 9.11003 9.51269 8.8252L13.165 5.62891C14.2073 4.71683 13.5618 3 12.1768 3H3.82323C2.43822 3 1.79271 4.71683 2.83495 5.62891L6.14648 8.52637C6.68878 9.00101 6.9999 9.68655 6.99999 10.4072V13.5C6.99999 13.7761 7.22385 14 7.49999 14H8.49999C8.77613 14 8.99999 13.7761 8.99999 13.5V9.9541ZM9.99999 13.5C9.99999 14.3284 9.32842 15 8.49999 15H7.49999C6.67157 15 5.99999 14.3284 5.99999 13.5V10.4072C5.9999 9.9748 5.81274 9.56308 5.4873 9.27832L2.17675 6.38184C0.439492 4.86174 1.51482 2 3.82323 2H12.1768C14.4852 2 15.5605 4.86174 13.8232 6.38184L10.1709 9.57715C10.0624 9.67209 9.99999 9.80992 9.99999 9.9541V13.5Z" fill="black"/>
</svg>
