<svg width="16" height="16" viewBox="0 0 16 16" fill="none" xmlns="http://www.w3.org/2000/svg">
<path d="M14 6.5C14 5.67158 13.3284 5 12.5 5H8.24023L6.54102 7.125C6.35126 7.36219 6.06352 7.49997 5.75977 7.5H2V11.5C2 12.3284 2.67157 13 3.5 13H12.5C13.3284 13 14 12.3284 14 11.5V6.5ZM15 11.5C15 12.8807 13.8807 14 12.5 14H3.5C2.11929 14 1 12.8807 1 11.5V4.5C1 3.11929 2.11929 2 3.5 2H5.79297C6.05816 2.00002 6.31248 2.10545 6.5 2.29297L8.20703 4H12.5C13.8807 4 15 5.11929 15 6.5V11.5ZM2 6.5H5.75977L7.3291 4.53613L5.79297 3H3.5C2.67157 3 2 3.67157 2 4.5V6.5Z" fill="black"/>
</svg>
