<svg width="16" height="16" viewBox="0 0 16 16" fill="none" xmlns="http://www.w3.org/2000/svg">
<path d="M5.79297 2C6.05816 2.00002 6.31248 2.10545 6.5 2.29297L8.20703 4H11C12.2262 4 13.2441 4.88317 13.457 6.04785C14.8659 6.34739 15.6267 8.0046 14.7979 9.29395L12.5107 12.8516C12.0508 13.5671 11.2588 14 10.4082 14H3.5C2.11929 14 1 12.8807 1 11.5V4.5C1 3.11929 2.11929 2 3.5 2H5.79297ZM2 11.5C2 12.3284 2.67157 13 3.5 13H10.4082C10.9185 13 11.3939 12.7407 11.6699 12.3115L13.957 8.75293C14.4437 7.99569 13.9002 7 13 7H5.97852C5.51563 7 5.07813 7.21372 4.79395 7.5791L2 11.1709V11.5ZM2 9.54297L4.00488 6.96484C4.47853 6.35602 5.20714 6 5.97852 6H12.4131C12.207 5.41766 11.6529 5 11 5H8.20703C7.94184 4.99998 7.68752 4.89455 7.5 4.70703L5.79297 3H3.5C2.67157 3 2 3.67157 2 4.5V9.54297Z" fill="black"/>
</svg>
