<svg width="16" height="16" viewBox="0 0 16 16" fill="none" xmlns="http://www.w3.org/2000/svg">
<path d="M12 8.13672C12 7.30829 11.3284 6.63672 10.5 6.63672H7.44434L6.11523 8.30469C5.9255 8.54284 5.6375 8.68164 5.33301 8.68164H2V11.5C2 12.3284 2.67157 13 3.5 13H10.5C11.3284 13 12 12.3284 12 11.5V8.13672ZM13 11.5C13 12.8807 11.8807 14 10.5 14H3.5C2.11929 14 1 12.8807 1 11.5V6.5C1 5.11929 2.11929 4 3.5 4H5.36621C5.63211 4 5.88755 4.10556 6.0752 4.29395L7.41211 5.63672H10.5C11.8807 5.63672 13 6.75601 13 8.13672V11.5ZM2 7.68164H5.33301L6.53418 6.17285L5.36621 5H3.5C2.67157 5 2 5.67157 2 6.5V7.68164Z" fill="black"/>
<path d="M7 12.0127H5.43848C5.35211 12.0127 5.26673 12.0086 5.18262 12H7V12.0127ZM7.32812 2C7.59331 2 7.84763 2.10548 8.03516 2.29297L9.38086 3.63867H12.5C13.8807 3.63871 15 4.75801 15 6.13867V9.5127C15 10.8934 13.8807 12.0127 12.5 12.0127H12V11.0127H12.5C13.3284 11.0127 14 10.3411 14 9.5127V6.13867C14 5.3103 13.3284 4.63871 12.5 4.63867H9.38086C9.11577 4.63858 8.86128 4.53315 8.67383 4.3457L7.32812 3H5.43848C4.61008 3.00004 3.93848 3.6716 3.93848 4.5V5H2.93848V4.5C2.93848 3.11931 4.0578 2.00004 5.43848 2H7.32812Z" fill="black"/>
</svg>
