<svg width="16" height="16" viewBox="0 0 16 16" fill="none" xmlns="http://www.w3.org/2000/svg">
<path d="M14 8C14 4.68629 11.3137 2 8 2C4.68629 2 2 4.68629 2 8C2 11.3137 4.68629 14 8 14V15C4.13401 15 1 11.866 1 8C1 4.13401 4.13401 1 8 1C11.866 1 15 4.13401 15 8C15 11.866 11.866 15 8 15V14C11.3137 14 14 11.3137 14 8Z" fill="black"/>
<path d="M14 8C14 4.68629 11.3137 2 8 2C4.68629 2 2 4.68629 2 8C2 11.3137 4.68629 14 8 14V15C4.13401 15 1 11.866 1 8C1 4.13401 4.13401 1 8 1C11.866 1 15 4.13401 15 8C15 11.866 11.866 15 8 15V14C11.3137 14 14 11.3137 14 8Z" fill="black"/>
<path d="M7.5 4.5V1.5C7.5 1.22386 7.72386 1 8 1C8.27614 1 8.5 1.22386 8.5 1.5V4.5C8.5 4.77614 8.27614 5 8 5C7.72386 5 7.5 4.77614 7.5 4.5Z" fill="black"/>
<path d="M14.5 8.5H11.5C11.2239 8.5 11 8.27614 11 8C11 7.72386 11.2239 7.5 11.5 7.5H14.5C14.7761 7.5 15 7.72386 15 8C15 8.27614 14.7761 8.5 14.5 8.5Z" fill="black"/>
<path d="M1.5 8.5C1.22386 8.5 1 8.27614 1 8C1 7.72386 1.22386 7.5 1.5 7.5H4.5C4.77614 7.5 5 7.72386 5 8C5 8.27614 4.77614 8.5 4.5 8.5H1.5Z" fill="black"/>
<path d="M7.5 14.5V11.5C7.5 11.2239 7.72386 11 8 11C8.27614 11 8.5 11.2239 8.5 11.5V14.5C8.5 14.7761 8.27614 15 8 15C7.72386 15 7.5 14.7761 7.5 14.5Z" fill="black"/>
</svg>
