<svg width="16" height="16" viewBox="0 0 16 16" fill="none" xmlns="http://www.w3.org/2000/svg">
<path d="M9.32117 7.99985C9.32109 7.27011 8.72964 6.67856 7.99988 6.67856C7.27018 6.67863 6.67866 7.27015 6.67859 7.99985C6.67859 8.72961 7.27014 9.32106 7.99988 9.32114V10.3211C6.71785 10.3211 5.67859 9.28189 5.67859 7.99985C5.67866 6.71787 6.7179 5.67863 7.99988 5.67856C9.28192 5.67856 10.3211 6.71782 10.3212 7.99985C10.3212 9.28194 9.28197 10.3211 7.99988 10.3211V9.32114C8.72968 9.32114 9.32117 8.72965 9.32117 7.99985Z" fill="black"/>
<path d="M14 8C14 7.71626 13.791 7.47581 13.5098 7.43555L12.9951 7.3623C12.4297 7.28138 12.0169 6.87095 11.8262 6.41309C11.633 5.9494 11.6417 5.37259 11.9834 4.91797L12.2959 4.50293C12.4445 4.30405 12.4457 4.03602 12.3096 3.83789L12.2432 3.75781C12.0423 3.55695 11.7232 3.53473 11.4961 3.70508L11.0801 4.0166C10.6256 4.35732 10.0501 4.36594 9.58691 4.17285C9.12862 3.98177 8.71817 3.56827 8.6377 3.00195L8.56445 2.49023L8.54004 2.3877C8.46301 2.15959 8.24812 2 8 2C7.71626 2 7.47581 2.20901 7.43555 2.49023L7.3623 3.00293C7.28142 3.56859 6.87105 3.98193 6.41309 4.17285C5.94954 4.36601 5.37264 4.35688 4.91797 4.01562L4.50391 3.7041V3.70508C4.30493 3.55585 4.03627 3.55416 3.83789 3.69043L3.75781 3.75684C3.55695 3.9577 3.53473 4.27678 3.70508 4.50391L4.01562 4.91797C4.35688 5.37264 4.36601 5.94954 4.17285 6.41309C3.98193 6.87105 3.56859 7.28142 3.00293 7.3623L2.48926 7.43457C2.20825 7.47502 2 7.7164 2 8L2.00977 8.10449C2.0537 8.34097 2.24433 8.52925 2.49023 8.56445L3.00195 8.6377C3.56827 8.71817 3.98177 9.12862 4.17285 9.58691C4.36594 10.0501 4.35732 10.6256 4.0166 11.0801L3.70508 11.4961C3.53473 11.7232 3.55695 12.0423 3.75781 12.2432L3.83789 12.3096C4.03628 12.4458 4.30494 12.4441 4.50391 12.2949L4.91797 11.9834C5.37259 11.6417 5.9494 11.633 6.41309 11.8262C6.87095 12.0169 7.28138 12.4297 7.3623 12.9951L7.43555 13.5098L7.45996 13.6123C7.53699 13.8404 7.75188 14 8 14C8.28374 14 8.52419 13.791 8.56445 13.5098L8.6377 12.9971C8.71808 12.4309 9.12869 12.0172 9.58691 11.8262C10.0503 11.6331 10.6257 11.6423 11.0801 11.9834L11.4951 12.2949H11.4961C11.7232 12.4653 12.0423 12.443 12.2432 12.2422L12.3096 12.1621C12.4458 11.9637 12.4442 11.6951 12.2949 11.4961L11.9834 11.0801C11.6423 10.6257 11.6331 10.0503 11.8262 9.58691C12.0172 9.12869 12.4309 8.71808 12.9971 8.6377L13.5098 8.56445C13.791 8.52419 14 8.28374 14 8ZM15 8C15 8.78151 14.4255 9.4438 13.6523 9.55469H13.6514L13.1367 9.62793C12.9915 9.64877 12.8345 9.76674 12.749 9.97168C12.6661 10.1711 12.6924 10.3594 12.7822 10.4795L13.0957 10.8965C13.5348 11.4823 13.508 12.2878 13.0479 12.8418L12.9502 12.9492C12.3976 13.5018 11.5218 13.5645 10.8965 13.0957V13.0947L10.4795 12.7822C10.3594 12.6924 10.1711 12.6661 9.97168 12.749C9.76674 12.8345 9.64877 12.9915 9.62793 13.1367L9.55469 13.6514V13.6523C9.4438 14.4255 8.78152 15 8 15C7.21848 15 6.5562 14.4255 6.44531 13.6523V13.6514L6.37207 13.1367C6.35122 12.9915 6.23317 12.8344 6.02832 12.749C5.82825 12.6657 5.63874 12.6929 5.51855 12.7832L5.10449 13.0947L5.10352 13.0957C4.51773 13.5348 3.71217 13.508 3.1582 13.0479L3.05078 12.9502C2.49823 12.3976 2.43553 11.5218 2.9043 10.8965L3.2168 10.4805C3.30693 10.3602 3.33322 10.1714 3.25 9.97168C3.16437 9.76632 3.00689 9.64861 2.86133 9.62793L2.34863 9.55469H2.34766C1.5745 9.4438 1.00001 8.78151 1 8C1 7.21848 1.5745 6.5562 2.34766 6.44531H2.34863L2.86133 6.37207C3.00678 6.35127 3.16452 6.23342 3.25 6.02832C3.33338 5.82822 3.30614 5.6389 3.21582 5.51855L2.90527 5.10352H2.9043C2.43553 4.47817 2.49823 3.60236 3.05078 3.0498L3.1582 2.95215C3.71217 2.49196 4.51773 2.46518 5.10352 2.9043V2.90527L5.51855 3.21582C5.6389 3.30614 5.82822 3.33338 6.02832 3.25C6.23342 3.16452 6.35127 3.00678 6.37207 2.86133L6.44531 2.34766C6.5562 1.5745 7.21848 1 8 1C8.73266 1 9.36036 1.50493 9.52734 2.20508L9.55469 2.34766V2.34863L9.62793 2.86133C9.64861 3.00689 9.76632 3.16437 9.97168 3.25C10.1714 3.33322 10.3602 3.30693 10.4805 3.2168L10.8965 2.9043C11.5218 2.43553 12.3976 2.49823 12.9502 3.05078L13.0479 3.1582C13.508 3.71217 13.5348 4.51773 13.0957 5.10352L13.0947 5.10449L12.7832 5.51855C12.6929 5.63874 12.6657 5.82825 12.749 6.02832C12.8344 6.23317 12.9915 6.35122 13.1367 6.37207L13.6514 6.44531H13.6523C14.4255 6.5562 15 7.21848 15 8Z" fill="black"/>
</svg>
