<svg width="16" height="16" viewBox="0 0 16 16" fill="none" xmlns="http://www.w3.org/2000/svg">
<path d="M6 3.5C6 2.67157 5.32843 2 4.5 2C3.67157 2 3 2.67157 3 3.5C3 4.32843 3.67157 5 4.5 5V6C3.11929 6 2 4.88071 2 3.5C2 2.11929 3.11929 1 4.5 1C5.88071 1 7 2.11929 7 3.5C7 4.88071 5.88071 6 4.5 6V5C5.32843 5 6 4.32843 6 3.5Z" fill="black"/>
<path d="M13 12.5C13 11.6716 12.3284 11 11.5 11C10.6716 11 10 11.6716 10 12.5C10 13.3284 10.6716 14 11.5 14V15C10.1193 15 9 13.8807 9 12.5C9 11.1193 10.1193 10 11.5 10C12.8807 10 14 11.1193 14 12.5C14 13.8807 12.8807 15 11.5 15V14C12.3284 14 13 13.3284 13 12.5Z" fill="black"/>
<path d="M4 12.5V5.5C4 5.22386 4.22386 5 4.5 5C4.77614 5 5 5.22386 5 5.5V12.5C5 12.7761 4.77614 13 4.5 13C4.22386 13 4 12.7761 4 12.5Z" fill="black"/>
<path d="M11 10.5V10H12V10.5C12 10.7761 11.7761 11 11.5 11C11.2239 11 11 10.7761 11 10.5ZM12 8V9H11V8H12ZM12 6V7H11V6H12ZM11 4.5C11 4.43128 10.9861 4.36685 10.9619 4.30859L11.8857 3.92578C11.9594 4.10334 12 4.29753 12 4.5V5H11V4.5ZM10.5 3C10.7025 3 10.8967 3.04063 11.0742 3.11426L10.6914 4.03809C10.6331 4.01393 10.5687 4 10.5 4H10.0625V3H10.5ZM7.4375 3V4H7C6.72386 4 6.5 3.77614 6.5 3.5C6.5 3.22386 6.72386 3 7 3H7.4375ZM9.1875 3V4H8.3125V3H9.1875Z" fill="black"/>
</svg>
