<svg width="16" height="16" viewBox="0 0 16 16" fill="none" xmlns="http://www.w3.org/2000/svg">
<path d="M8 5.5C9.20949 5.5 10.2186 6.35886 10.4502 7.5H14.7139C14.9898 7.50025 15.2139 7.72401 15.2139 8C15.2139 8.27599 14.9898 8.49975 14.7139 8.5H10.4502C10.2186 9.64114 9.20949 10.5 8 10.5C6.79051 10.5 5.78142 9.64114 5.5498 8.5H1.5C1.22386 8.5 1 8.27614 1 8C1 7.72386 1.22386 7.5 1.5 7.5H5.5498C5.78142 6.35886 6.79051 5.5 8 5.5ZM8 6.5C7.17157 6.5 6.5 7.17157 6.5 8C6.5 8.82843 7.17157 9.5 8 9.5C8.82843 9.5 9.5 8.82843 9.5 8C9.5 7.17157 8.82843 6.5 8 6.5Z" fill="black"/>
</svg>
