<svg width="16" height="16" viewBox="0 0 16 16" fill="none" xmlns="http://www.w3.org/2000/svg">
<path d="M6 12.5C6 11.6716 5.32843 11 4.5 11C3.67157 11 3 11.6716 3 12.5C3 13.3284 3.67157 14 4.5 14V15C3.11929 15 2 13.8807 2 12.5C2 11.1193 3.11929 10 4.5 10C5.88071 10 7 11.1193 7 12.5C7 13.8807 5.88071 15 4.5 15V14C5.32843 14 6 13.3284 6 12.5Z" fill="black"/>
<path d="M13 3.29199C13 2.46356 12.3284 1.79199 11.5 1.79199C10.6716 1.79199 10 2.46356 10 3.29199C10 4.12041 10.6716 4.79199 11.5 4.79199V5.79199L11.2441 5.7793C10.0677 5.65972 9.13228 4.72426 9.0127 3.54785L9 3.29199C9 1.91128 10.1193 0.791992 11.5 0.791992C12.8807 0.791992 14 1.91128 14 3.29199L13.9873 3.54785C13.8592 4.80838 12.7943 5.79199 11.5 5.79199V4.79199C12.3284 4.79199 13 4.12041 13 3.29199Z" fill="black"/>
<path d="M4 10V3C4 2.72386 4.22386 2.5 4.5 2.5C4.77614 2.5 5 2.72386 5 3V10C5 10.2761 4.77614 10.5 4.5 10.5C4.22386 10.5 4 10.2761 4 10Z" fill="black"/>
<path d="M11 6C11 5.72386 11.2239 5.5 11.5 5.5C11.7761 5.5 12 5.72386 12 6C12 8.07538 11.7922 9.83675 10.9707 11.0791C10.1128 12.3763 8.66848 13 6.5 13C6.22386 13 6 12.7761 6 12.5C6 12.2239 6.22386 12 6.5 12C8.47366 12 9.53014 11.4446 10.1367 10.5273C10.7794 9.55523 11 8.06644 11 6Z" fill="black"/>
</svg>
