<svg width="16" height="16" viewBox="0 0 16 16" fill="none" xmlns="http://www.w3.org/2000/svg">
<path d="M10.1664 14.6664V12.0863C10.1664 12.0733 10.1673 12.0602 10.1683 12.0472C10.1877 11.8002 10.1546 11.5518 10.0707 11.3187C9.98665 11.0855 9.85356 10.8727 9.681 10.6947C9.54822 10.5577 9.50517 10.3567 9.56968 10.1771C9.6343 9.99784 9.79529 9.87109 9.98471 9.84997C11.0031 9.73645 11.9539 9.49353 12.6498 8.90857C13.2793 8.37919 13.7687 7.50946 13.8275 5.99255L13.8333 5.68005C13.8332 4.87761 13.5243 4.10596 12.971 3.52478C12.8392 3.38624 12.7978 3.18444 12.8646 3.00525C13.0862 2.41141 13.1034 1.76448 12.9212 1.16345C12.875 1.1698 12.8216 1.17737 12.7611 1.19079C12.4112 1.26848 11.8159 1.48468 10.9447 2.06872C10.8245 2.14915 10.6751 2.17394 10.5355 2.13611C9.09335 1.74532 7.57334 1.74532 6.1312 2.13611C5.99162 2.17394 5.8422 2.14915 5.72202 2.06872C4.85075 1.48468 4.25552 1.26848 3.90561 1.19079C3.8447 1.17727 3.79089 1.16981 3.74448 1.16345C3.56241 1.7644 3.58051 2.4115 3.8021 3.00525C3.8689 3.18444 3.82749 3.38624 3.69565 3.52478C3.13821 4.11028 2.82905 4.88922 2.83335 5.69763V5.69958C2.83335 7.39652 3.34435 8.34301 4.01694 8.90857C4.71448 9.49495 5.66709 9.74366 6.68784 9.87048C6.87595 9.89385 7.03494 10.0218 7.098 10.2006C7.16099 10.3793 7.11748 10.578 6.98569 10.7142C6.8152 10.8904 6.68388 11.1011 6.59995 11.3314C6.51614 11.5616 6.48127 11.8068 6.49839 12.0511C6.4992 12.0627 6.50033 12.0747 6.50034 12.0863V14.6664C6.50034 14.9424 6.27633 15.1662 6.00034 15.1664C5.7242 15.1664 5.50034 14.9425 5.50034 14.6664V13.3051C4.89826 13.4202 4.38478 13.4145 3.93784 13.3099C3.33319 13.1684 2.89997 12.857 2.56284 12.5199C2.39727 12.3543 2.25339 12.181 2.12632 12.0218C1.99295 11.8548 1.8888 11.7171 1.77573 11.5843C1.55194 11.3217 1.38756 11.1956 1.21225 11.1517C0.944356 11.0848 0.781022 10.8132 0.847996 10.5453C0.914981 10.2774 1.18658 10.1151 1.45444 10.182C1.94551 10.3048 2.28126 10.6364 2.53647 10.9359C2.66299 11.0844 2.79354 11.255 2.90757 11.3978C3.02766 11.5483 3.14411 11.6871 3.26987 11.8129C3.51602 12.059 3.79197 12.2487 4.16636 12.3363C4.48597 12.411 4.91248 12.4184 5.50034 12.2816V12.101C5.47665 11.7232 5.53087 11.3444 5.6605 10.9886C5.6921 10.9019 5.72695 10.8165 5.76694 10.7338C4.92814 10.5638 4.07392 10.2623 3.37339 9.67322C2.42267 8.87377 1.83335 7.61595 1.83335 5.69958C1.82894 4.73563 2.16244 3.80427 2.76987 3.06384C2.52563 2.20901 2.58133 1.29294 2.93393 0.470091L2.98764 0.373411C3.05174 0.284743 3.14448 0.218577 3.25132 0.186888L3.39292 0.66638C3.25085 0.1874 3.25181 0.187032 3.25229 0.186888H3.25327L3.25522 0.185911C3.25647 0.185552 3.2578 0.185307 3.25913 0.184935C3.26209 0.184107 3.26552 0.182888 3.26889 0.182005C3.27554 0.180266 3.28314 0.178996 3.29136 0.177122C3.30815 0.173305 3.3286 0.169121 3.3519 0.165404C3.39855 0.157964 3.45805 0.15179 3.53061 0.149779C3.67628 0.145769 3.87283 0.158836 4.12241 0.214232C4.58706 0.317386 5.23398 0.566272 6.08823 1.11462C7.56282 0.752724 9.10287 0.752875 10.5775 1.11462C11.4321 0.565962 12.0795 0.317414 12.5443 0.214232C12.7939 0.158836 12.9904 0.145769 13.1361 0.149779C13.2086 0.15179 13.2681 0.157964 13.3148 0.165404C13.3381 0.169121 13.3585 0.173305 13.3753 0.177122C13.3836 0.178996 13.3912 0.180266 13.3978 0.182005C13.4012 0.182888 13.4046 0.184107 13.4076 0.184935C13.4089 0.185307 13.4102 0.185552 13.4115 0.185911L13.4134 0.186888H13.4144C13.4148 0.187009 13.4152 0.1872 13.3314 0.470091L13.4154 0.186888C13.5579 0.229158 13.6742 0.333465 13.7328 0.470091C14.0854 1.29303 14.1402 2.20894 13.8958 3.06384C14.4992 3.79914 14.8332 4.72266 14.8333 5.68005C14.8333 7.60811 14.245 8.87294 13.2933 9.67322C12.5935 10.2617 11.7408 10.5596 10.9027 10.722C10.943 10.806 10.9794 10.8919 11.0111 10.9799C11.1411 11.3409 11.1939 11.7251 11.1664 12.1078V14.6664C11.1664 14.9425 10.9425 15.1664 10.6664 15.1664C10.3904 15.1662 10.1664 14.9424 10.1664 14.6664Z" fill="black"/>
</svg>
