<svg width="16" height="16" viewBox="0 0 16 16" fill="none" xmlns="http://www.w3.org/2000/svg">
<path fill-rule="evenodd" clip-rule="evenodd" d="M7.97859 1C4.12538 1 1 4.12538 1 7.97859C1 11.0612 3.01223 13.6728 5.75229 14.6146C6.0948 14.6575 6.22324 14.4434 6.22324 14.2722C6.22324 14.1009 6.22324 13.6728 6.22324 13.0734C4.29663 13.5016 3.8685 12.1315 3.8685 12.1315C3.56881 11.318 3.09786 11.104 3.09786 11.104C2.45566 10.6758 3.14067 10.6758 3.14067 10.6758C3.82569 10.7186 4.211 11.4037 4.211 11.4037C4.85321 12.474 5.83792 12.1743 6.22324 12.003C6.26606 11.5321 6.48012 11.2324 6.65138 11.0612C5.11009 10.8899 3.48318 10.2905 3.48318 7.59327C3.48318 6.82263 3.74006 6.22324 4.211 5.70948C4.1682 5.58104 3.91132 4.85321 4.29663 3.91132C4.29663 3.91132 4.89602 3.74006 6.22324 4.63914C6.77981 4.46789 7.37921 4.42507 7.97859 4.42507C8.57798 4.42507 9.17737 4.5107 9.73394 4.63914C11.0612 3.74006 11.6606 3.91132 11.6606 3.91132C12.0459 4.85321 11.789 5.58104 11.7461 5.75229C12.1743 6.22324 12.474 6.86544 12.474 7.63609C12.474 10.3334 10.8471 10.8899 9.30581 11.0612C9.56269 11.2752 9.77677 11.7034 9.77677 12.3456C9.77677 13.2874 9.77677 14.0153 9.77677 14.2722C9.77677 14.4434 9.90522 14.6575 10.2477 14.6146C13.0306 13.6728 15 11.0612 15 7.97859C14.9572 4.12538 11.8318 1 7.97859 1Z" fill="black"/>
</svg>
