<svg width="16" height="16" viewBox="0 0 16 16" fill="none" xmlns="http://www.w3.org/2000/svg">
<path d="M8 1C6.61553 1 5.26216 1.41054 4.11101 2.17971C2.95987 2.94888 2.06266 4.04213 1.53285 5.32121C1.00303 6.60032 0.86441 8.00778 1.13451 9.3656C1.4046 10.7235 2.07129 11.9708 3.05026 12.9497C4.02923 13.9287 5.2765 14.5954 6.63438 14.8655C7.99224 15.1356 9.39971 14.997 10.6788 14.4671C11.9579 13.9374 13.0511 13.0401 13.8203 11.889C14.5894 10.7378 15 9.38445 15 8.00002C15 6.14348 14.2625 4.36301 12.9498 3.05025C11.637 1.7375 9.85652 1 8 1ZM9.84503 13.707H9.79101C9.75023 13.7092 9.7094 13.7031 9.67102 13.689C9.63269 13.6749 9.59763 13.6531 9.568 13.625C9.54064 13.596 9.51923 13.562 9.50517 13.5248C9.49112 13.4875 9.48458 13.4478 9.48598 13.408V12.588C9.49001 12.3153 9.49199 12.04 9.49199 11.762C9.49112 11.5588 9.46154 11.3568 9.40403 11.162C9.34954 10.9653 9.23993 10.7883 9.08803 10.652C9.49467 10.6127 9.89437 10.5203 10.277 10.377C10.5996 10.2543 10.8915 10.0625 11.132 9.815C11.3693 9.56557 11.5458 9.26475 11.648 8.93598C11.7723 8.534 11.8314 8.11471 11.823 7.69401C11.8251 7.40012 11.7736 7.10834 11.671 6.83301C11.567 6.55551 11.4097 6.30107 11.208 6.084C11.2513 5.97431 11.2828 5.86034 11.302 5.74399C11.3216 5.62769 11.3313 5.50994 11.331 5.392C11.3312 5.24016 11.3137 5.08881 11.279 4.941C11.2472 4.78966 11.2041 4.64091 11.15 4.49599C11.1293 4.48781 11.1072 4.48373 11.085 4.484H11.021C10.8874 4.48555 10.755 4.50747 10.628 4.549C10.4879 4.58965 10.3508 4.64045 10.218 4.701C10.0856 4.76024 9.95673 4.82702 9.83202 4.901C9.70701 4.975 9.596 5.046 9.498 5.112C8.51672 4.8385 7.47932 4.8385 6.498 5.112C6.398 5.046 6.28901 4.975 6.164 4.901C6.03765 4.8262 5.90673 4.7594 5.77201 4.701C5.63947 4.639 5.50199 4.58816 5.36101 4.549C5.23641 4.50775 5.10623 4.48583 4.975 4.484H4.911C4.88909 4.48381 4.86736 4.48789 4.847 4.49599C4.79193 4.64109 4.74683 4.78977 4.71201 4.941C4.68089 5.08932 4.66514 5.24045 4.66501 5.392C4.66506 5.50997 4.67509 5.62772 4.695 5.74399C4.71386 5.86031 4.74504 5.97428 4.788 6.084C4.58658 6.30111 4.42963 6.55557 4.326 6.83301C4.22306 7.10828 4.1712 7.40006 4.17301 7.69401C4.1648 8.11237 4.22216 8.5294 4.343 8.92997C4.44881 9.25891 4.62488 9.5609 4.85901 9.815C5.10098 10.0608 5.39242 10.2523 5.714 10.377C6.09491 10.523 6.4939 10.6165 6.90001 10.655C6.78654 10.7576 6.69651 10.8835 6.636 11.024C6.57845 11.163 6.53912 11.3089 6.519 11.458C6.30514 11.5606 6.0712 11.6146 5.83401 11.616C5.6136 11.6244 5.39619 11.5628 5.213 11.44C5.03704 11.3099 4.88796 11.1469 4.774 10.96C4.72319 10.8814 4.66636 10.8068 4.604 10.737C4.53813 10.6636 4.46547 10.5967 4.387 10.537C4.30968 10.4792 4.22492 10.4321 4.135 10.397C4.04642 10.3581 3.95074 10.338 3.854 10.338C3.83057 10.3386 3.8072 10.3406 3.784 10.344C3.7523 10.344 3.72071 10.3481 3.69001 10.356C3.66281 10.3631 3.63708 10.3749 3.614 10.391C3.60361 10.3968 3.59491 10.4052 3.58877 10.4153C3.58263 10.4255 3.57926 10.4371 3.579 10.449C3.58155 10.4771 3.59021 10.5042 3.60438 10.5286C3.61854 10.5529 3.63787 10.5739 3.661 10.59C3.715 10.6333 3.76001 10.6667 3.796 10.69L3.813 10.702C3.89124 10.762 3.96571 10.8268 4.036 10.896C4.10178 10.9531 4.16052 11.018 4.211 11.089C4.26381 11.158 4.30907 11.2324 4.34601 11.311C4.38867 11.389 4.43367 11.479 4.48101 11.581C4.59035 11.8573 4.78517 12.0913 5.037 12.249C5.30138 12.3908 5.59808 12.4615 5.898 12.454C5.99994 12.454 6.10178 12.448 6.20301 12.436C6.30301 12.42 6.403 12.403 6.503 12.383V13.4C6.50481 13.4411 6.4979 13.4821 6.48274 13.5204C6.46757 13.5587 6.44449 13.5933 6.41501 13.622C6.38538 13.6501 6.35032 13.6719 6.31197 13.686C6.27362 13.7001 6.2328 13.7062 6.19201 13.704H6.15601C4.79574 13.2645 3.63706 12.3539 2.88862 11.136C2.14018 9.91808 1.85115 8.47299 2.07358 7.06091C2.29602 5.64885 3.0153 4.36259 4.1019 3.43375C5.1885 2.50492 6.57102 1.99455 8.00052 1.99455C9.42998 1.99455 10.8125 2.50492 11.8991 3.43375C12.9857 4.36259 13.705 5.64885 13.9274 7.06091C14.1499 8.47299 13.8608 9.91808 13.1124 11.136C12.364 12.3539 11.2053 13.2645 9.84503 13.704V13.707Z" fill="black"/>
</svg>
