<svg width="16" height="16" viewBox="0 0 16 16" fill="none" xmlns="http://www.w3.org/2000/svg">
<path d="M7 5.5C7 5.22386 7.22386 5 7.5 5C7.77614 5 8 5.22386 8 5.5V7.79297L10.3535 10.1465C10.5488 10.3417 10.5488 10.6583 10.3535 10.8535C10.1583 11.0488 9.84175 11.0488 9.64648 10.8535L7.14648 8.35352C7.05272 8.25975 7 8.13261 7 8V5.5Z" fill="black"/>
<path d="M1.5 8C1.5 7.72386 1.72386 7.5 2 7.5C2.27614 7.5 2.5 7.72386 2.5 8C2.5 11.0376 4.96243 13.5 8 13.5C11.0376 13.5 13.5 11.0376 13.5 8C13.5 4.96243 11.0376 2.5 8 2.5C6.13498 2.5 4.48656 3.42812 3.49121 4.84961L3.08203 4.5625L2.67188 4.27539C3.84634 2.59817 5.79502 1.5 8 1.5C11.5899 1.5 14.5 4.41015 14.5 8C14.5 11.5899 11.5899 14.5 8 14.5C4.41015 14.5 1.5 11.5899 1.5 8Z" fill="black"/>
<path d="M2.5 2C2.5 1.72386 2.72386 1.5 3 1.5C3.27614 1.5 3.5 1.72386 3.5 2V4H5.5C5.77614 4 6 4.22386 6 4.5C6 4.77614 5.77614 5 5.5 5H3C2.72386 5 2.5 4.77614 2.5 4.5V2Z" fill="black"/>
</svg>
