<svg width="16" height="16" viewBox="0 0 16 16" fill="none" xmlns="http://www.w3.org/2000/svg">
<path d="M10.6465 4.14651C10.8418 3.95125 11.1583 3.95125 11.3535 4.14651L14.8535 7.64651C14.9473 7.74028 15 7.86742 15 8.00002C15 8.13263 14.9473 8.25977 14.8535 8.35354L11.3535 11.8535C11.1583 12.0488 10.8418 12.0488 10.6465 11.8535C10.4512 11.6583 10.4512 11.3418 10.6465 11.1465L13.793 8.00002L10.6465 4.85354C10.4512 4.65828 10.4512 4.34177 10.6465 4.14651Z" fill="black"/>
<path d="M5.35352 11.8535C5.15826 12.0488 4.84175 12.0488 4.64649 11.8535L1.14649 8.35352C0.95123 8.15826 0.95123 7.84175 1.14649 7.64649L4.64649 4.14649C4.84175 3.95123 5.15826 3.95123 5.35352 4.14649C5.54879 4.34175 5.54879 4.65826 5.35352 4.85352L2.20704 8.00001L5.35352 11.1465C5.54878 11.3418 5.54878 11.6583 5.35352 11.8535Z" fill="black"/>
<path d="M6.97628 13.6519C6.89243 13.9149 6.61116 14.06 6.34812 13.9763C6.08518 13.8924 5.94006 13.6112 6.02376 13.3481L9.52376 2.34813C9.60761 2.08519 9.88888 1.94007 10.1519 2.02376C10.4148 2.10762 10.56 2.38888 10.4763 2.65192L6.97628 13.6519Z" fill="black"/>
</svg>
