<svg width="16" height="16" viewBox="0 0 16 16" fill="none" xmlns="http://www.w3.org/2000/svg">
<path d="M5.86364 6.315C5.86364 7.10577 5.22259 7.74681 4.43182 7.74681C3.64105 7.74681 3 7.10577 3 6.315C3 5.52423 3.64105 4.88318 4.43182 4.88318C5.22259 4.88318 5.86364 5.52423 5.86364 6.315Z" fill="black"/>
<path d="M4.86328 6.31482C4.86319 6.07641 4.67007 5.88318 4.43164 5.88318C4.19329 5.88327 4.0001 6.07647 4 6.31482C4 6.55325 4.19324 6.74636 4.43164 6.74646V7.74646C3.64095 7.74636 3 7.10553 3 6.31482C3.0001 5.52419 3.64101 4.88327 4.43164 4.88318C5.22235 4.88318 5.86319 5.52413 5.86328 6.31482C5.86328 7.10559 5.22241 7.74646 4.43164 7.74646V6.74646C4.67013 6.74646 4.86328 6.55331 4.86328 6.31482Z" fill="black"/>
<path d="M14 5C14 4.17157 13.3284 3.5 12.5 3.5H3.5C2.67157 3.5 2 4.17157 2 5V11C2 11.8284 2.67157 12.5 3.5 12.5H12.5C13.3284 12.5 14 11.8284 14 11V5ZM15 11C15 12.3807 13.8807 13.5 12.5 13.5H3.5C2.11929 13.5 1 12.3807 1 11V5C1 3.61929 2.11929 2.5 3.5 2.5H12.5C13.8807 2.5 15 3.61929 15 5V11Z" fill="black"/>
<path d="M11.5195 5.00028C11.6586 5.00571 11.7893 5.06942 11.8799 5.17508L14.3984 8.11356C14.7865 8.56658 15 9.14397 15 9.74051V11.0003C14.9998 12.3809 13.8806 13.5003 12.5 13.5003H3.5C2.93634 13.5003 2.41816 13.3111 2 12.9964V12.5003C2 12.3677 2.05281 12.2405 2.14648 12.1468L5.64648 8.64676L5.72461 8.58231C5.91869 8.45414 6.18265 8.4759 6.35352 8.64676L7 9.29324L11.1465 5.14676L11.2266 5.08133C11.3126 5.02517 11.4152 4.99627 11.5195 5.00028Z" fill="black"/>
</svg>
