<svg width="16" height="16" viewBox="0 0 16 16" fill="none" xmlns="http://www.w3.org/2000/svg">
<path d="M5.86364 6.315C5.86364 7.10577 5.22259 7.74681 4.43182 7.74681C3.64105 7.74681 3 7.10577 3 6.315C3 5.52423 3.64105 4.88318 4.43182 4.88318C5.22259 4.88318 5.86364 5.52423 5.86364 6.315Z" fill="black"/>
<path d="M4.86328 6.31482C4.86319 6.07641 4.67007 5.88318 4.43164 5.88318C4.19329 5.88327 4.0001 6.07647 4 6.31482C4 6.55325 4.19324 6.74636 4.43164 6.74646V7.74646C3.64095 7.74636 3 7.10553 3 6.31482C3.0001 5.52419 3.64101 4.88327 4.43164 4.88318C5.22235 4.88318 5.86319 5.52413 5.86328 6.31482C5.86328 7.10559 5.22241 7.74646 4.43164 7.74646V6.74646C4.67013 6.74646 4.86328 6.55331 4.86328 6.31482Z" fill="black"/>
<path d="M14 5C14 4.17157 13.3284 3.5 12.5 3.5H3.5C2.67157 3.5 2 4.17157 2 5V11C2 11.8284 2.67157 12.5 3.5 12.5H12.5C13.3284 12.5 14 11.8284 14 11V5ZM15 11C15 12.3807 13.8807 13.5 12.5 13.5H3.5C2.11929 13.5 1 12.3807 1 11V5C1 3.61929 2.11929 2.5 3.5 2.5H12.5C13.8807 2.5 15 3.61929 15 5V11Z" fill="black"/>
<path d="M11.5195 4.99991C11.6586 5.00534 11.7893 5.06908 11.8799 5.17471L14.3984 8.11319C14.7866 8.56622 15 9.14356 15 9.74014V10.9999C15 12.3806 13.8807 13.4999 12.5 13.4999H3.5C2.93631 13.4999 2.41817 13.3107 2 12.996V12.4999C2.00002 12.3673 2.05274 12.2401 2.14648 12.1464L5.64648 8.64639L5.72461 8.58194C5.91867 8.45381 6.18266 8.47558 6.35352 8.64639L7 9.29288L11.1465 5.14639L11.2266 5.08096C11.3126 5.02482 11.4152 4.9959 11.5195 4.99991Z" fill="black"/>
</svg>
