<svg width="16" height="16" viewBox="0 0 16 16" fill="none" xmlns="http://www.w3.org/2000/svg">
<path d="M4.86328 6.31482C4.86319 6.07641 4.67007 5.88318 4.43164 5.88318C4.19329 5.88327 4.0001 6.07647 4 6.31482C4 6.55325 4.19324 6.74636 4.43164 6.74646V7.74646C3.64095 7.74636 3 7.10553 3 6.31482C3.0001 5.52419 3.64101 4.88327 4.43164 4.88318C5.22235 4.88318 5.86319 5.52413 5.86328 6.31482C5.86328 7.10559 5.22241 7.74646 4.43164 7.74646V6.74646C4.67013 6.74646 4.86328 6.55331 4.86328 6.31482Z" fill="black"/>
<path d="M14 5C14 4.17157 13.3284 3.5 12.5 3.5H3.5C2.67157 3.5 2 4.17157 2 5V11C2 11.8284 2.67157 12.5 3.5 12.5H12.5C13.3284 12.5 14 11.8284 14 11V5ZM15 11C15 12.3807 13.8807 13.5 12.5 13.5H3.5C2.11929 13.5 1 12.3807 1 11V5C1 3.61929 2.11929 2.5 3.5 2.5H12.5C13.8807 2.5 15 3.61929 15 5V11Z" fill="black"/>
<path d="M11.5196 5C11.6586 5.00543 11.7893 5.06915 11.8799 5.17481L14.8799 8.67481C15.0594 8.88447 15.0348 9.20024 14.8252 9.37988C14.6156 9.55937 14.2998 9.53478 14.1201 9.3252L11.4717 6.23535L7.35354 10.3535C7.15828 10.5488 6.84177 10.5488 6.64651 10.3535L6.00002 9.70703L2.85354 12.8535C2.65828 13.0488 2.34177 13.0488 2.14651 12.8535C1.95125 12.6583 1.95125 12.3417 2.14651 12.1465L5.64651 8.64649L5.72463 8.58203C5.91871 8.45387 6.18268 8.47562 6.35354 8.64649L7.00002 9.29297L11.1465 5.14649L11.2266 5.08106C11.3126 5.02489 11.4152 4.99599 11.5196 5Z" fill="black"/>
</svg>
