<svg width="16" height="16" viewBox="0 0 16 16" fill="none" xmlns="http://www.w3.org/2000/svg">
<path d="M12 2C13.1046 2 14 2.89543 14 4V12C14 13.1046 13.1046 14 12 14H4C2.89543 14 2 13.1046 2 12V4C2 2.89543 2.89543 2 4 2H12ZM13.125 8.54883C12.5439 7.8566 11.5108 7.76677 10.8184 8.34766C10.1262 8.92876 10.0353 9.9619 10.6162 10.6543C10.9321 11.0307 11.3751 11.1411 11.6357 11.2148C11.9448 11.3023 12.0725 11.3528 12.1602 11.457C12.3862 11.7264 12.3514 12.1284 12.082 12.3545C11.8126 12.5805 11.4106 12.5448 11.1846 12.2754C11.0071 12.0644 10.6918 12.0367 10.4805 12.2139C10.2691 12.3913 10.2418 12.7064 10.4189 12.918C10.9999 13.6103 12.0321 13.7018 12.7246 13.1211C13.4171 12.54 13.5069 11.507 12.9258 10.8145C12.6101 10.4385 12.1688 10.3266 11.9082 10.2529C11.599 10.1654 11.4704 10.1152 11.3828 10.0107C11.1571 9.74151 11.1921 9.34036 11.4609 9.11426C11.7303 8.88823 12.1333 8.92213 12.3594 9.19141C12.5368 9.40289 12.8519 9.43127 13.0635 9.25391C13.2747 9.07635 13.3024 8.76025 13.125 8.54883ZM9.0127 7.9834C8.73663 7.98247 8.51275 8.20636 8.51172 8.48242L8.49902 11.7305V11.7314C8.49902 12.0202 8.44232 12.2264 8.32422 12.3447C8.14689 12.5216 7.75243 12.5404 7.42383 12.2119C7.22857 12.0167 6.91206 12.0167 6.7168 12.2119C6.52164 12.4072 6.52157 12.7237 6.7168 12.9189C7.27587 13.4779 8.32064 13.762 9.03125 13.0518C9.43893 12.6439 9.49981 12.094 9.5 11.7334L9.51074 8.48535C9.51151 8.20943 9.28866 7.98443 9.0127 7.9834Z" fill="black"/>
</svg>
