<svg width="16" height="16" viewBox="0 0 16 16" fill="none" xmlns="http://www.w3.org/2000/svg">
<g clip-path="url(#clip0_326_1187)">
<path d="M5.75534 2.49857C5.75633 2.22253 5.98067 1.99918 6.25667 2C6.53265 2.00099 6.75596 2.22541 6.75524 2.50133L6.72555 10.4584H6.72693C6.72693 11.2901 6.58318 12.3892 5.79263 13.1797C4.43818 14.5341 2.3497 14.0566 1.14672 12.8538C0.951459 12.6586 0.951459 12.342 1.14672 12.1467C1.34198 11.9514 1.65857 11.9514 1.85383 12.1467C2.82647 13.1191 4.26451 13.2936 5.08553 12.4726C5.58577 11.9724 5.72703 11.2184 5.72703 10.4584V10.457L5.75534 2.49857Z" fill="black"/>
<path d="M12.9633 3.57131C12.1519 2.60463 10.71 2.47899 9.74314 3.29028C8.77646 4.10159 8.65044 5.5428 9.46148 6.50968C9.84177 6.96289 10.3836 7.13047 11.1063 7.33497C11.7801 7.52562 12.6353 7.75361 13.2438 8.47855C14.4101 9.86857 14.2288 11.9418 12.8387 13.1082C11.4487 14.2743 9.37616 14.0924 8.20987 12.7025C8.03256 12.491 8.06003 12.1755 8.2715 11.9981C8.48297 11.8206 8.79838 11.8484 8.97591 12.0597C9.7872 13.0266 11.229 13.1532 12.1959 12.3421C13.1629 11.5307 13.2891 10.0883 12.4777 9.12134C12.0974 8.66828 11.5561 8.50126 10.8336 8.2968C10.1596 8.1061 9.304 7.87773 8.69543 7.15247C7.52939 5.76251 7.7106 3.69055 9.10035 2.52423C10.4903 1.35794 12.5629 1.53877 13.7293 2.92852C13.9068 3.13997 13.879 3.4554 13.6677 3.63294C13.4562 3.81044 13.1408 3.78285 12.9633 3.57131Z" fill="black"/>
</g>
<defs>
<clipPath id="clip0_326_1187">
<rect width="16" height="16" fill="white"/>
</clipPath>
</defs>
</svg>
