<svg width="16" height="16" viewBox="0 0 16 16" fill="none" xmlns="http://www.w3.org/2000/svg">
<path d="M13.5 12V4C13.5 3.72386 13.7239 3.5 14 3.5C14.2761 3.5 14.5 3.72386 14.5 4V12C14.5 12.2761 14.2761 12.5 14 12.5C13.7239 12.5 13.5 12.2761 13.5 12Z" fill="black"/>
<path d="M7.64648 3.64648C7.84175 3.45121 8.15825 3.45121 8.35352 3.64648L12.3535 7.64648C12.5488 7.84174 12.5488 8.15825 12.3535 8.35351L8.35352 12.3535C8.15825 12.5488 7.84175 12.5488 7.64648 12.3535C7.45122 12.1582 7.45122 11.8417 7.64648 11.6465L10.793 8.49999H2.5C2.22386 8.49999 2 8.27614 2 7.99999C2 7.72385 2.22386 7.49999 2.5 7.49999H10.793L7.64648 4.35351C7.45122 4.15825 7.45122 3.84174 7.64648 3.64648Z" fill="black"/>
</svg>
