<svg width="16" height="16" viewBox="0 0 16 16" fill="none" xmlns="http://www.w3.org/2000/svg">
<path d="M8.32028 1.34747L13.5166 4.46857L13.7588 4.61407V11.2469L13.5097 11.3914L8.29001 14.4227L8.03708 14.5692L7.7861 14.4217L2.61325 11.3904L2.36618 11.2459V4.61407L2.60837 4.46857L7.80563 1.34747L8.06247 1.19318L8.32028 1.34747ZM3.84763 4.88947L7.21774 6.85529C6.95217 7.06464 6.76658 7.37024 6.71286 7.71954L3.36618 5.7674V10.6727L7.54196 13.1199L7.55661 9.19611C7.71324 9.2587 7.88353 9.29472 8.06247 9.29474C8.23704 9.29472 8.40312 9.25974 8.55661 9.20001L8.54196 13.1199L12.7588 10.6717V5.7674L9.4111 7.71857C9.35712 7.36946 9.17183 7.06443 8.90622 6.85529L12.2773 4.88947L8.06247 2.35919L3.84763 4.88947Z" fill="black"/>
<path d="M8.92858 7.92857C8.92858 8.40689 8.54083 8.79464 8.06251 8.79464C7.58419 8.79464 7.19644 8.40689 7.19644 7.92857C7.19644 7.45025 7.58419 7.0625 8.06251 7.0625C8.54083 7.0625 8.92858 7.45025 8.92858 7.92857Z" fill="black"/>
<path d="M8.42886 7.92871C8.42886 7.72658 8.26476 7.56258 8.06265 7.5625C7.86048 7.5625 7.69644 7.72654 7.69644 7.92871C7.69652 8.13082 7.86052 8.29492 8.06265 8.29492C8.26472 8.29485 8.42879 8.13078 8.42886 7.92871ZM9.42886 7.92871C9.42879 8.68306 8.817 9.29485 8.06265 9.29492C7.30824 9.29492 6.69652 8.68311 6.69644 7.92871C6.69644 7.17425 7.30819 6.5625 8.06265 6.5625C8.81705 6.56258 9.42886 7.1743 9.42886 7.92871Z" fill="black"/>
<path d="M13.6253 4.89746C13.6253 4.69533 13.4612 4.53133 13.2591 4.53125C13.0569 4.53125 12.8929 4.69529 12.8929 4.89746C12.8929 5.09957 13.0569 5.26367 13.2591 5.26367C13.4611 5.2636 13.6252 5.09953 13.6253 4.89746ZM14.6253 4.89746C14.6252 5.65181 14.0134 6.2636 13.2591 6.26367C12.5046 6.26367 11.8929 5.65186 11.8929 4.89746C11.8929 4.143 12.5046 3.53125 13.2591 3.53125C14.0135 3.53133 14.6253 4.14305 14.6253 4.89746Z" fill="black"/>
<path d="M8.42886 1.86621C8.42886 1.66408 8.26476 1.50008 8.06265 1.5C7.86048 1.5 7.69644 1.66404 7.69644 1.86621C7.69652 2.06832 7.86052 2.23242 8.06265 2.23242C8.26472 2.23235 8.42879 2.06828 8.42886 1.86621ZM9.42886 1.86621C9.42879 2.62056 8.817 3.23235 8.06265 3.23242C7.30824 3.23242 6.69652 2.62061 6.69644 1.86621C6.69644 1.11175 7.30819 0.5 8.06265 0.5C8.81705 0.500075 9.42886 1.1118 9.42886 1.86621Z" fill="black"/>
<path d="M3.23242 10.5269C3.23242 10.3248 3.06832 10.1608 2.86621 10.1607C2.66404 10.1607 2.5 10.3247 2.5 10.5269C2.50008 10.729 2.66408 10.8931 2.86621 10.8931C3.06828 10.8931 3.23235 10.729 3.23242 10.5269ZM4.23242 10.5269C4.23235 11.2813 3.62056 11.8931 2.86621 11.8931C2.1118 11.8931 1.50008 11.2813 1.5 10.5269C1.5 9.77246 2.11175 9.16071 2.86621 9.16071C3.62061 9.16078 4.23242 9.7725 4.23242 10.5269Z" fill="black"/>
<path d="M8.42886 13.9912C8.42886 13.7891 8.26476 13.6251 8.06265 13.625C7.86048 13.625 7.69644 13.789 7.69644 13.9912C7.69652 14.1933 7.86052 14.3574 8.06265 14.3574C8.26472 14.3573 8.42879 14.1933 8.42886 13.9912ZM9.42886 13.9912C9.42879 14.7456 8.817 15.3573 8.06265 15.3574C7.30824 15.3574 6.69652 14.7456 6.69644 13.9912C6.69644 13.2368 7.30819 12.625 8.06265 12.625C8.81705 12.6251 9.42886 13.2368 9.42886 13.9912Z" fill="black"/>
<path d="M13.6253 10.96C13.6253 10.7578 13.4612 10.5938 13.2591 10.5938C13.0569 10.5938 12.8929 10.7578 12.8929 10.96C12.8929 11.1621 13.0569 11.3262 13.2591 11.3262C13.4611 11.3261 13.6252 11.162 13.6253 10.96ZM14.6253 10.96C14.6252 11.7143 14.0134 12.3261 13.2591 12.3262C12.5046 12.3262 11.8929 11.7144 11.8929 10.96C11.8929 10.2055 12.5046 9.59375 13.2591 9.59375C14.0135 9.59383 14.6253 10.2055 14.6253 10.96Z" fill="black"/>
<path d="M3.23242 4.89746C3.23242 4.69533 3.06832 4.53133 2.86621 4.53125C2.66404 4.53125 2.5 4.69529 2.5 4.89746C2.50008 5.09957 2.66408 5.26367 2.86621 5.26367C3.06828 5.2636 3.23235 5.09953 3.23242 4.89746ZM4.23242 4.89746C4.23235 5.65181 3.62056 6.2636 2.86621 6.26367C2.1118 6.26367 1.50008 5.65186 1.5 4.89746C1.5 4.143 2.11175 3.53125 2.86621 3.53125C3.62061 3.53133 4.23242 4.14305 4.23242 4.89746Z" fill="black"/>
</svg>
