<svg width="16" height="16" viewBox="0 0 16 16" fill="none" xmlns="http://www.w3.org/2000/svg">
<path d="M14 5C14 4.17157 13.3284 3.5 12.5 3.5H3.5C2.67157 3.5 2 4.17157 2 5V11C2 11.8284 2.67157 12.5 3.5 12.5H12.5C13.3284 12.5 14 11.8284 14 11V5ZM15 11C15 12.3807 13.8807 13.5 12.5 13.5H3.5C2.11929 13.5 1 12.3807 1 11V5C1 3.61929 2.11929 2.5 3.5 2.5H12.5C13.8807 2.5 15 3.61929 15 5V11Z" fill="black"/>
<path d="M3 10C3 9.72386 3.22386 9.5 3.5 9.5H12.5C12.7761 9.5 13 9.72386 13 10V11C13 11.2761 12.7761 11.5 12.5 11.5H3.5C3.22386 11.5 3 11.2761 3 11V10Z" fill="#C7C7C7"/>
</svg>
