<svg width="16" height="16" viewBox="0 0 16 16" fill="none" xmlns="http://www.w3.org/2000/svg">
<path d="M13 12.5V13.5H3V12.5H13ZM14 11.5V4.5C14 3.94772 13.5523 3.5 13 3.5H3C2.44772 3.5 2 3.94772 2 4.5V11.5C2 12.0523 2.44772 12.5 3 12.5V13.5L2.7959 13.4893C1.85435 13.3938 1.1062 12.6457 1.01074 11.7041L1 11.5V4.5C1 3.39543 1.89543 2.5 3 2.5H13C14.1046 2.5 15 3.39543 15 4.5V11.5L14.9893 11.7041C14.8938 12.6457 14.1457 13.3938 13.2041 13.4893L13 13.5V12.5C13.5523 12.5 14 12.0523 14 11.5Z" fill="black"/>
<path d="M11 5C11 4.72386 11.2239 4.5 11.5 4.5H12.5C12.7761 4.5 13 4.72386 13 5V11C13 11.2761 12.7761 11.5 12.5 11.5H11.5C11.2239 11.5 11 11.2761 11 11V5Z" fill="#C7C7C7"/>
</svg>
