<svg width="16" height="16" viewBox="0 0 16 16" fill="none" xmlns="http://www.w3.org/2000/svg">
<path d="M4 12.5V3.5C4 3.22386 3.77614 3 3.5 3C3.22386 3 3 3.22386 3 3.5V12.5C3 12.7761 3.22386 13 3.5 13V14C2.67157 14 2 13.3284 2 12.5V3.5C2 2.67157 2.67157 2 3.5 2C4.32843 2 5 2.67157 5 3.5V12.5C5 13.3284 4.32843 14 3.5 14V13C3.77614 13 4 12.7761 4 12.5Z" fill="black"/>
<path d="M8 12.5V3.5C8 3.22386 7.77614 3 7.5 3C7.22386 3 7 3.22386 7 3.5V12.5C7 12.7761 7.22386 13 7.5 13V14C6.67157 14 6 13.3284 6 12.5V3.5C6 2.67157 6.67157 2 7.5 2C8.32843 2 9 2.67157 9 3.5V12.5C9 13.3284 8.32843 14 7.5 14V13C7.77614 13 8 12.7761 8 12.5Z" fill="black"/>
<path d="M10.9178 2.12011C11.7297 1.90254 12.5626 2.3946 12.763 3.21095L14.9458 12.1083L14.9746 12.2573C15.0796 12.9989 14.6162 13.716 13.8778 13.9141L13.6189 12.9481C13.8813 12.8776 14.0391 12.6103 13.9743 12.3464L11.7917 3.44996C11.725 3.17793 11.4471 3.01354 11.1766 3.08603C10.9143 3.15656 10.7565 3.42392 10.8212 3.68778L13.004 12.5852C13.0709 12.857 13.3485 13.0206 13.6189 12.9481L13.8778 13.9141L13.7248 13.947C13.0143 14.0609 12.3195 13.6497 12.0775 12.9719L12.0326 12.8232L9.84971 3.92584C9.6554 3.13366 10.13 2.33143 10.9178 2.12011Z" fill="black"/>
</svg>
