<svg width="16" height="16" viewBox="0 0 16 16" fill="none" xmlns="http://www.w3.org/2000/svg">
<path d="M10.944 10.0553C10.944 10.3314 10.7201 10.5553 10.444 10.5553C10.168 10.5551 9.94397 10.3313 9.94398 10.0553V6.53088L5.66273 10.9049C5.4696 11.1022 5.15304 11.1058 4.9557 10.9127C4.75841 10.7196 4.75485 10.403 4.94789 10.2057L9.2555 5.8053L5.80531 5.8053C5.52917 5.8053 5.30531 5.58144 5.30531 5.3053C5.30532 5.02917 5.52917 4.8053 5.80531 4.8053L10.445 4.8053C10.5775 4.80536 10.7048 4.85807 10.7985 4.95178C10.8922 5.04554 10.945 5.17275 10.945 5.3053L10.944 10.0553Z" fill="black"/>
<path d="M12 13V14H4V13H12ZM13 12V4C13 3.44772 12.5523 3 12 3H4C3.44772 3 3 3.44772 3 4V12C3 12.5523 3.44772 13 4 13V14C2.96435 14 2.113 13.2128 2.01074 12.2041L2 12V4C2 2.89543 2.89543 2 4 2H12L12.2041 2.01074C13.2128 2.113 14 2.96435 14 4V12L13.9893 12.2041C13.8938 13.1457 13.1457 13.8938 12.2041 13.9893L12 14V13C12.5523 13 13 12.5523 13 12Z" fill="black"/>
</svg>
