<svg width="16" height="16" viewBox="0 0 16 16" fill="none" xmlns="http://www.w3.org/2000/svg">
<path d="M8 12C8.27614 12 8.5 12.2239 8.5 12.5C8.5 12.7761 8.27614 13 8 13H1.5C1.22386 13 1 12.7761 1 12.5C1 12.2239 1.22386 12 1.5 12H8ZM8 7.5C8.27614 7.5 8.5 7.72386 8.5 8C8.5 8.27614 8.27614 8.5 8 8.5H1.5C1.22386 8.5 1 8.27614 1 8C1 7.72386 1.22386 7.5 1.5 7.5H8ZM8 3C8.27614 3 8.5 3.22386 8.5 3.5C8.5 3.77614 8.27614 4 8 4H1.5C1.22386 4 1 3.77614 1 3.5C1 3.22386 1.22386 3 1.5 3H8Z" fill="black"/>
<path d="M10.0465 5.45353C9.85122 5.25827 9.85121 4.94175 10.0465 4.7465L12.1461 2.64689C12.2397 2.55321 12.3671 2.50051 12.4996 2.5004C12.6322 2.5004 12.7593 2.55313 12.8531 2.64689L14.9537 4.7465C15.1488 4.94173 15.1488 5.25829 14.9537 5.45353C14.7585 5.64876 14.4419 5.64871 14.2467 5.45353L12.4996 3.70744L10.7535 5.45353C10.5582 5.64879 10.2417 5.64879 10.0465 5.45353Z" fill="black"/>
<path d="M14.8535 10.6465C15.0488 10.8417 15.0487 11.1583 14.8535 11.3535L12.7539 13.4531C12.5586 13.6484 12.2421 13.6484 12.0469 13.4531L9.94627 11.3535C9.75115 11.1583 9.75113 10.8417 9.94627 10.6465C10.1415 10.4513 10.458 10.4513 10.6533 10.6465L12.4004 12.3926L14.1465 10.6465C14.3417 10.4513 14.6582 10.4513 14.8535 10.6465Z" fill="black"/>
</svg>
