<svg width="16" height="16" viewBox="0 0 16 16" fill="none" xmlns="http://www.w3.org/2000/svg">
<path d="M14.5 12C14.7761 12 15 12.2239 15 12.5C15 12.7761 14.7761 13 14.5 13H5.5C5.22386 13 5 12.7761 5 12.5C5 12.2239 5.22386 12 5.5 12H14.5ZM14.5 7.5C14.7761 7.5 15 7.72386 15 8C15 8.27614 14.7761 8.5 14.5 8.5H5.5C5.22386 8.5 5 8.27614 5 8C5 7.72386 5.22386 7.5 5.5 7.5H14.5ZM14.5 3C14.7761 3 15 3.22386 15 3.5C15 3.77614 14.7761 4 14.5 4H5.5C5.22386 4 5 3.77614 5 3.5C5 3.22386 5.22386 3 5.5 3H14.5Z" fill="black"/>
<path d="M2.72399 6.04799C2.42799 6.04799 2.27999 5.91399 2.27999 5.64599V2.59199H1.94399C1.81999 2.59199 1.72599 2.55199 1.66199 2.47199C1.60199 2.38799 1.57199 2.29599 1.57199 2.19599C1.57199 2.09599 1.60199 2.00599 1.66199 1.92599C1.72599 1.84199 1.81999 1.79999 1.94399 1.79999H2.70599C2.99799 1.79999 3.14399 1.93399 3.14399 2.20199V5.64599C3.14399 5.78199 3.10999 5.88399 3.04199 5.95199C2.97799 6.01599 2.87199 6.04799 2.72399 6.04799Z" fill="black"/>
<path d="M1.816 10.5C1.704 10.5 1.618 10.474 1.558 10.422C1.498 10.37 1.456 10.304 1.432 10.224C1.412 10.144 1.4 10.058 1.396 9.96601C1.396 9.87401 1.396 9.78801 1.396 9.70801C1.396 9.35201 1.472 9.07001 1.624 8.86201C1.776 8.65401 2.04 8.49401 2.416 8.38201C2.62 8.31401 2.78 8.25201 2.896 8.19601C3.016 8.13601 3.102 8.05601 3.154 7.95601C3.206 7.85201 3.232 7.70601 3.232 7.51801C3.232 7.38601 3.194 7.27201 3.118 7.17601C3.042 7.07601 2.91 7.02601 2.722 7.02601C2.61 7.02601 2.492 7.03401 2.368 7.05001C2.248 7.06601 2.134 7.07401 2.026 7.07401C1.866 7.07401 1.748 7.04401 1.672 6.98401C1.6 6.92401 1.564 6.83201 1.564 6.70801C1.564 6.54401 1.648 6.43001 1.816 6.36601C2.028 6.27801 2.296 6.23401 2.62 6.23401C3.08 6.23401 3.44 6.34801 3.7 6.57601C3.96 6.80001 4.09 7.11201 4.09 7.51201C4.09 7.80801 4.05 8.05601 3.97 8.25601C3.89 8.45601 3.758 8.62201 3.574 8.75401C3.39 8.88601 3.142 8.99801 2.83 9.09001C2.61 9.15401 2.458 9.22201 2.374 9.29401C2.294 9.36201 2.254 9.46401 2.254 9.60001V9.78601C2.334 9.70601 2.44 9.66601 2.572 9.66601H3.646C3.794 9.66601 3.908 9.70201 3.988 9.77401C4.068 9.84601 4.108 9.95001 4.108 10.086C4.108 10.362 3.954 10.5 3.646 10.5H1.816Z" fill="black"/>
<path d="M2.45799 15.048C2.29799 15.048 2.16999 15.042 2.07399 15.03C1.97799 15.022 1.89199 15.01 1.81599 14.994C1.61999 14.954 1.49399 14.892 1.43799 14.808C1.38599 14.72 1.35999 14.632 1.35999 14.544C1.35999 14.452 1.39399 14.376 1.46199 14.316C1.52999 14.252 1.64599 14.22 1.80999 14.22C1.92199 14.22 2.04199 14.226 2.16999 14.238C2.29799 14.25 2.42199 14.256 2.54199 14.256C2.66999 14.256 2.78599 14.244 2.88999 14.22C2.99799 14.192 3.08399 14.144 3.14799 14.076C3.21199 14.004 3.24399 13.9 3.24399 13.764C3.24399 13.632 3.21399 13.532 3.15399 13.464C3.09399 13.396 3.01799 13.35 2.92599 13.326C2.83399 13.302 2.74199 13.29 2.64999 13.29C2.58599 13.29 2.52199 13.292 2.45799 13.296C2.39399 13.296 2.33399 13.296 2.27799 13.296C2.09799 13.296 1.95399 13.274 1.84599 13.23C1.73799 13.186 1.68399 13.076 1.68399 12.9C1.68399 12.724 1.73599 12.614 1.83999 12.57C1.94799 12.526 2.08799 12.504 2.25999 12.504C2.31599 12.504 2.37399 12.506 2.43399 12.51C2.49799 12.51 2.56199 12.51 2.62599 12.51C2.76599 12.51 2.88599 12.47 2.98599 12.39C3.08599 12.306 3.13599 12.166 3.13599 11.97C3.13599 11.818 3.07399 11.704 2.94999 11.628C2.82599 11.552 2.68199 11.514 2.51799 11.514C2.41399 11.514 2.30399 11.524 2.18799 11.544C2.07599 11.564 1.97399 11.574 1.88199 11.574C1.64999 11.574 1.53399 11.462 1.53399 11.238C1.53399 10.902 1.85199 10.734 2.48799 10.734C2.92799 10.734 3.27399 10.846 3.52599 11.07C3.77799 11.29 3.90399 11.59 3.90399 11.97C3.90399 12.166 3.86199 12.352 3.77799 12.528C3.69799 12.704 3.59799 12.824 3.47799 12.888C3.66599 12.972 3.81799 13.096 3.93399 13.26C4.04999 13.424 4.10799 13.596 4.10799 13.776C4.10799 14.028 4.03799 14.25 3.89799 14.442C3.76199 14.634 3.56999 14.784 3.32199 14.892C3.07799 14.996 2.78999 15.048 2.45799 15.048Z" fill="black"/>
</svg>
