<svg width="16" height="16" viewBox="0 0 16 16" fill="none" xmlns="http://www.w3.org/2000/svg">
<path d="M14.5 12C14.7761 12 15 12.2239 15 12.5C15 12.7761 14.7761 13 14.5 13H5.5C5.22386 13 5 12.7761 5 12.5C5 12.2239 5.22386 12 5.5 12H14.5ZM14.5 7.5C14.7761 7.5 15 7.72386 15 8C15 8.27614 14.7761 8.5 14.5 8.5H5.5C5.22386 8.5 5 8.27614 5 8C5 7.72386 5.22386 7.5 5.5 7.5H14.5ZM14.5 3C14.7761 3 15 3.22386 15 3.5C15 3.77614 14.7761 4 14.5 4H5.5C5.22386 4 5 3.77614 5 3.5C5 3.22386 5.22386 3 5.5 3H14.5Z" fill="black"/>
<path d="M2 4.5C1.44772 4.5 1 4.05228 1 3.5C1 2.94772 1.44772 2.5 2 2.5C2.55228 2.5 3 2.94772 3 3.5C3 4.05228 2.55228 4.5 2 4.5Z" fill="black"/>
<path d="M2 9C1.44772 9 1 8.55228 1 8C1 7.44772 1.44772 7 2 7C2.55228 7 3 7.44772 3 8C3 8.55228 2.55228 9 2 9Z" fill="black"/>
<path d="M2 13.5C1.44772 13.5 1 13.0523 1 12.5C1 11.9477 1.44772 11.5 2 11.5C2.55228 11.5 3 11.9477 3 12.5C3 13.0523 2.55228 13.5 2 13.5Z" fill="black"/>
</svg>
