<svg width="16" height="16" viewBox="0 0 16 16" fill="none" xmlns="http://www.w3.org/2000/svg">
<path d="M12 10V11H4V10H12ZM13 9V4C13 3.44772 12.5523 3 12 3H4C3.44772 3 3 3.44772 3 4V9C3 9.55228 3.44772 10 4 10V11C2.96435 11 2.113 10.2128 2.01074 9.2041L2 9V4C2 2.89543 2.89543 2 4 2H12L12.2041 2.01074C13.2128 2.113 14 2.96435 14 4V9C14 10.0357 13.2128 10.887 12.2041 10.9893L12 11V10C12.5523 10 13 9.55228 13 9Z" fill="black"/>
<path d="M14.5 12.5C14.7761 12.5 15 12.7239 15 13C15 13.2761 14.7761 13.5 14.5 13.5H1.5C1.22386 13.5 1 13.2761 1 13C1 12.7239 1.22386 12.5 1.5 12.5H14.5Z" fill="black"/>
</svg>
