<svg width="16" height="16" viewBox="0 0 16 16" fill="none" xmlns="http://www.w3.org/2000/svg">
<path d="M13 9C13 8.17157 12.3284 7.5 11.5 7.5H4.5C3.67157 7.5 3 8.17157 3 9V12C3 12.8284 3.67157 13.5 4.5 13.5H11.5C12.3284 13.5 13 12.8284 13 12V9ZM14 12C14 13.3807 12.8807 14.5 11.5 14.5H4.5C3.11929 14.5 2 13.3807 2 12V9C2 7.61929 3.11929 6.5 4.5 6.5H11.5C12.8807 6.5 14 7.61929 14 9V12Z" fill="black"/>
<path d="M8 1.5C9.65685 1.5 11 2.84315 11 4.5V6.5H10V4.5C10 3.39543 9.10457 2.5 8 2.5C6.89543 2.5 6 3.39543 6 4.5V6.5H5V4.5C5 2.84315 6.34315 1.5 8 1.5Z" fill="black"/>
<path d="M9.43181 10.549C9.43181 11.3397 8.79077 11.9808 7.99999 11.9808C7.20922 11.9808 6.56818 11.3397 6.56818 10.549C6.56818 9.7582 7.20922 9.11716 7.99999 9.11716C8.79077 9.11716 9.43181 9.7582 9.43181 10.549Z" fill="black"/>
<path d="M8.43146 10.5488C8.43136 10.3104 8.23824 10.1172 7.99982 10.1172C7.76148 10.1173 7.56827 10.3105 7.56818 10.5488C7.56818 10.7872 7.76141 10.9803 7.99982 10.9804V11.9804C7.20913 11.9803 6.56818 11.3395 6.56818 10.5488C6.56828 9.75817 7.20919 9.11726 7.99982 9.11716C8.79053 9.11716 9.43136 9.75811 9.43146 10.5488C9.43146 11.3396 8.79059 11.9804 7.99982 11.9804V10.9804C8.2383 10.9804 8.43146 10.7873 8.43146 10.5488Z" fill="black"/>
</svg>
