<svg width="16" height="16" viewBox="0 0 16 16" fill="none" xmlns="http://www.w3.org/2000/svg">
<path d="M13 2.5C14.1046 2.5 15 3.39543 15 4.5V11.5C15 12.6046 14.1046 13.5 13 13.5H3C1.89543 13.5 1 12.6046 1 11.5V4.5C1 3.39543 1.89543 2.5 3 2.5H13ZM2.87598 4.51562C2.65492 4.5724 2.5 4.77177 2.5 5V11C2.5 11.2761 2.72386 11.5 3 11.5C3.27614 11.5 3.5 11.2761 3.5 11V6.94727L4.81152 9.33203C4.8994 9.4918 5.06766 9.59082 5.25 9.59082C5.43234 9.59082 5.6006 9.4918 5.68848 9.33203L7 6.94727V11C7 11.2761 7.22386 11.5 7.5 11.5C7.77614 11.5 8 11.2761 8 11V5C8 4.77177 7.84508 4.57241 7.62402 4.51562C7.40309 4.45905 7.17146 4.55894 7.06152 4.75879L5.25 8.05176L3.43848 4.75879C3.32854 4.55894 3.09691 4.45905 2.87598 4.51562ZM11.5 4.5C11.2239 4.5 11 4.72386 11 5V9.71484L10.3682 9.02539C10.1815 8.82223 9.86553 8.80865 9.66211 8.99512C9.45859 9.18172 9.44525 9.49763 9.63184 9.70117L11.1318 11.3379C11.2265 11.4411 11.3599 11.5 11.5 11.5C11.6401 11.5 11.7735 11.4411 11.8682 11.3379L13.3682 9.70117C13.5547 9.49763 13.5414 9.18172 13.3379 8.99512C13.1345 8.80865 12.8185 8.82223 12.6318 9.02539L12 9.71484V5C12 4.72386 11.7761 4.5 11.5 4.5Z" fill="black"/>
</svg>
