<svg width="16" height="16" viewBox="0 0 16 16" fill="none" xmlns="http://www.w3.org/2000/svg">
<path d="M13 12.5V13.5H3V12.5H13ZM14 11.5V4.5C14 3.94772 13.5523 3.5 13 3.5H3C2.44772 3.5 2 3.94772 2 4.5V11.5C2 12.0523 2.44772 12.5 3 12.5V13.5L2.7959 13.4893C1.85435 13.3938 1.1062 12.6457 1.01074 11.7041L1 11.5V4.5C1 3.39543 1.89543 2.5 3 2.5H13C14.1046 2.5 15 3.39543 15 4.5V11.5L14.9893 11.7041C14.8938 12.6457 14.1457 13.3938 13.2041 13.4893L13 13.5V12.5C13.5523 12.5 14 12.0523 14 11.5Z" fill="black"/>
<path d="M7 11V7.16113L5.94922 9.31055C5.86533 9.48212 5.69099 9.59082 5.5 9.59082C5.30901 9.59082 5.13467 9.48213 5.05078 9.31055L4 7.16113V11C4 11.2761 3.77614 11.5 3.5 11.5C3.22386 11.5 3 11.2761 3 11V5C3 4.76728 3.16096 4.56515 3.3877 4.5127C3.61427 4.46048 3.84704 4.57138 3.94922 4.78027L5.5 7.95215L7.05078 4.78027C7.15296 4.57138 7.38573 4.46048 7.6123 4.5127C7.83904 4.56515 8 4.76728 8 5V11C8 11.2761 7.77614 11.5 7.5 11.5C7.22386 11.5 7 11.2761 7 11Z" fill="black"/>
<path d="M12.8379 8.99512C13.0414 9.18172 13.0547 9.49763 12.8681 9.70117L11.3681 11.3379C11.2735 11.4411 11.14 11.5 11 11.5C10.8599 11.5 10.7265 11.4411 10.6318 11.3379L9.13182 9.70117C8.94524 9.49763 8.95858 9.18172 9.16209 8.99512C9.36552 8.80865 9.6815 8.82223 9.86815 9.02539L10.5 9.71484L10.5 5C10.5 4.72386 10.7238 4.5 11 4.5C11.2761 4.5 11.5 4.72386 11.5 5L11.5 9.71484L12.1318 9.02539C12.3185 8.82223 12.6345 8.80865 12.8379 8.99512Z" fill="black"/>
</svg>
