<svg width="16" height="16" viewBox="0 0 16 16" fill="none" xmlns="http://www.w3.org/2000/svg">
<path d="M10 8C10 6.89543 9.10457 6 8 6C6.89543 6 6 6.89543 6 8C6 9.10457 6.89543 10 8 10V11C6.34315 11 5 9.65685 5 8C5 6.34315 6.34315 5 8 5C9.65685 5 11 6.34315 11 8C11 9.65685 9.65685 11 8 11V10C9.10457 10 10 9.10457 10 8Z" fill="black"/>
<path d="M1.5 8C1.5 4.41015 4.41015 1.5 8 1.5C11.6397 1.5 14.5 4.96278 14.5 8.5C14.5 9.09816 14.3957 9.71077 14.083 10.1885C13.749 10.6986 13.2122 11 12.5 11C11.7878 11 11.251 10.6986 10.917 10.1885C10.6043 9.71077 10.5 9.09816 10.5 8.5V5.5C10.5 5.22386 10.7239 5 11 5C11.2761 5 11.5 5.22386 11.5 5.5V8.5C11.5 9.00641 11.5928 9.39447 11.7539 9.64062C11.8938 9.85427 12.1077 10 12.5 10C12.8923 10 13.1062 9.85427 13.2461 9.64062C13.4072 9.39447 13.5 9.00641 13.5 8.5C13.5 5.4098 10.9877 2.5 8 2.5C4.96243 2.5 2.5 4.96243 2.5 8C2.5 11.0376 4.96243 13.5 8 13.5C9.51902 13.5 10.8938 12.8846 11.8896 11.8887C12.0849 11.6937 12.4015 11.6935 12.5967 11.8887C12.7918 12.0838 12.7917 12.4004 12.5967 12.5957C11.4209 13.7716 9.79491 14.5 8 14.5C4.41015 14.5 1.5 11.5899 1.5 8Z" fill="black"/>
</svg>
