<svg width="16" height="16" viewBox="0 0 16 16" fill="none" xmlns="http://www.w3.org/2000/svg">
<path d="M14 9.5V4.5C14 3.67157 13.3284 3 12.5 3H3.5C2.67157 3 2 3.67157 2 4.5V9.5C2 10.3284 2.67157 11 3.5 11H5C5.55228 11 6 11.4477 6 12V14.1689L8.3252 11.5127C8.61003 11.1872 9.02156 11 9.4541 11H12.5C13.3284 11 14 10.3284 14 9.5ZM15 9.5C15 10.8807 13.8807 12 12.5 12H9.4541C9.30992 12 9.17209 12.0624 9.07715 12.1709L6.75293 14.8281C6.14488 15.523 5 15.0923 5 14.1689V12H3.5C2.11929 12 1 10.8807 1 9.5V4.5C1 3.11929 2.11929 2 3.5 2H12.5C13.8807 2 15 3.11929 15 4.5V9.5Z" fill="black"/>
<path d="M5.5 7.25C5.5 7.66421 5.16421 8 4.75 8C4.33579 8 4 7.66421 4 7.25C4 6.83579 4.33579 6.5 4.75 6.5C5.16421 6.5 5.5 6.83579 5.5 7.25Z" fill="black"/>
<path d="M8.75 7.24847C8.75 7.66269 8.41421 7.99847 8 7.99847C7.58579 7.99847 7.25 7.66269 7.25 7.24847C7.25 6.83426 7.58579 6.49847 8 6.49847C8.41421 6.49847 8.75 6.83426 8.75 7.24847Z" fill="black"/>
<path d="M12 7.24692C12 7.66113 11.6642 7.99692 11.25 7.99692C10.8358 7.99692 10.5 7.66113 10.5 7.24692C10.5 6.8327 10.8358 6.49692 11.25 6.49692C11.6642 6.49692 12 6.8327 12 7.24692Z" fill="black"/>
</svg>
