<svg width="16" height="16" viewBox="0 0 16 16" fill="none" xmlns="http://www.w3.org/2000/svg">
<path d="M9 3.5C9 2.94772 8.55228 2.5 8 2.5C7.44772 2.5 7 2.94772 7 3.5V7C7 7.55228 7.44772 8 8 8C8.55228 8 9 7.55228 9 7V3.5ZM10 7C10 8.10457 9.10457 9 8 9C6.89543 9 6 8.10457 6 7V3.5C6 2.39543 6.89543 1.5 8 1.5C9.10457 1.5 10 2.39543 10 3.5V7Z" fill="black"/>
<path d="M3.5 7C3.5 6.72386 3.72386 6.5 4 6.5C4.27614 6.5 4.5 6.72386 4.5 7C4.5 8.933 6.067 10.5 8 10.5C9.933 10.5 11.5 8.933 11.5 7C11.5 6.72386 11.7239 6.5 12 6.5C12.2761 6.5 12.5 6.72386 12.5 7C12.5 9.31621 10.7499 11.2219 8.5 11.4707V13.5H11C11.2761 13.5 11.5 13.7239 11.5 14C11.5 14.2761 11.2761 14.5 11 14.5H5C4.72386 14.5 4.5 14.2761 4.5 14C4.5 13.7239 4.72386 13.5 5 13.5H7.5V11.4707C5.25012 11.2219 3.5 9.31621 3.5 7Z" fill="black"/>
</svg>
