<svg width="16" height="16" viewBox="0 0 16 16" fill="none" xmlns="http://www.w3.org/2000/svg">
<path d="M9.79437 11.2856C9.74402 11.4677 9.71432 11.6588 9.71429 11.8569C9.71429 12.0036 9.72917 12.1471 9.75726 12.2856H6.24359C6.27166 12.1472 6.28558 12.0035 6.28558 11.8569C6.28556 11.6588 6.25679 11.4676 6.20648 11.2856H9.79437ZM4.71429 9.7934C4.53226 9.7431 4.34104 9.71431 4.14301 9.71429C3.99623 9.71429 3.85277 9.72915 3.71429 9.75726V6.24261C3.85278 6.27073 3.99622 6.28558 4.14301 6.28558C4.34114 6.28557 4.53218 6.25585 4.71429 6.20551V9.7934ZM11.2856 6.20551C11.4677 6.25586 11.6587 6.28556 11.8569 6.28558C12.0036 6.28558 12.1471 6.27071 12.2856 6.24261V9.75726C12.1471 9.72917 12.0036 9.71429 11.8569 9.71429C11.6588 9.71432 11.4676 9.74309 11.2856 9.7934V6.20551ZM9.75824 3.71429C9.7301 3.85283 9.71429 3.99616 9.71429 4.14301C9.71431 4.34113 9.74403 4.53218 9.79437 4.71429H6.20648C6.25678 4.53225 6.28557 4.34105 6.28558 4.14301C6.28558 3.99622 6.27073 3.85278 6.24261 3.71429H9.75824Z" fill="black"/>
<path d="M6.28571 11.8572C6.28571 13.0406 5.32632 14 4.14286 14C2.95939 14 2 13.0406 2 11.8572C2 10.6737 2.95939 9.71429 4.14286 9.71429C5.32632 9.71429 6.28571 10.6737 6.28571 11.8572Z" fill="black"/>
<path d="M5.28613 11.8569C5.28598 11.2258 4.77367 10.7143 4.14258 10.7143C3.51162 10.7144 3.00015 11.2259 3 11.8569C3 12.488 3.51152 13.0003 4.14258 13.0004V14.0004L3.92383 13.9887C2.84326 13.879 2 12.9664 2 11.8569C2.00015 10.6736 2.95933 9.71445 4.14258 9.71429C5.32595 9.71429 6.28598 10.6735 6.28613 11.8569L6.27441 12.0766C6.16451 13.157 5.25195 14.0004 4.14258 14.0004V13.0004C4.77376 13.0004 5.28613 12.4881 5.28613 11.8569Z" fill="black"/>
<path d="M13.0004 11.8569C13.0003 11.2258 12.488 10.7143 11.8569 10.7143C11.2259 10.7144 10.7144 11.2259 10.7143 11.8569C10.7143 12.488 11.2258 13.0003 11.8569 13.0004V14.0004L11.6381 13.9887C10.5576 13.879 9.71429 12.9664 9.71429 11.8569C9.71445 10.6736 10.6736 9.71445 11.8569 9.71429C13.0402 9.71429 14.0003 10.6735 14.0004 11.8569L13.9887 12.0766C13.8788 13.157 12.9662 14.0004 11.8569 14.0004V13.0004C12.4881 13.0004 13.0004 12.4881 13.0004 11.8569Z" fill="black"/>
<path d="M14 4.14286C14 5.32632 13.0406 6.28571 11.8572 6.28571C10.6737 6.28571 9.71429 5.32632 9.71429 4.14286C9.71429 2.95939 10.6737 2 11.8572 2C13.0406 2 14 2.95939 14 4.14286Z" fill="black"/>
<path d="M13.0004 4.14258C13.0003 3.51152 12.488 3 11.8569 3C11.2259 3.00015 10.7144 3.51162 10.7143 4.14258C10.7143 4.77367 11.2258 5.28598 11.8569 5.28613V6.28613L11.6381 6.27441C10.5576 6.1647 9.71429 5.25209 9.71429 4.14258C9.71445 2.95933 10.6736 2.00015 11.8569 2C13.0402 2 14.0003 2.95924 14.0004 4.14258L13.9887 4.3623C13.8788 5.44267 12.9662 6.28613 11.8569 6.28613V5.28613C12.4881 5.28613 13.0004 4.77376 13.0004 4.14258Z" fill="black"/>
<path d="M5.28613 4.14258C5.28598 3.51152 4.77367 3 4.14258 3C3.51162 3.00015 3.00015 3.51162 3 4.14258C3 4.77367 3.51152 5.28598 4.14258 5.28613V6.28613L3.92383 6.27441C2.84326 6.1647 2 5.25209 2 4.14258C2.00015 2.95933 2.95933 2.00015 4.14258 2C5.32595 2 6.28598 2.95924 6.28613 4.14258L6.27441 4.3623C6.16451 5.44267 5.25195 6.28613 4.14258 6.28613V5.28613C4.77376 5.28613 5.28613 4.77376 5.28613 4.14258Z" fill="black"/>
</svg>
