<svg width="16" height="16" viewBox="0 0 16 16" fill="none" xmlns="http://www.w3.org/2000/svg">
<path d="M8 13.29V10.5C8 9.1194 9.11918 8 10.5 8H13.1191C13.3951 8.00018 13.6191 8.22397 13.6191 8.5C13.6191 8.77603 13.3951 8.99982 13.1191 9H10.5C9.67168 9 9 9.67147 9 10.5V13.29C9 13.5662 8.77614 13.79 8.5 13.79C8.22386 13.79 8 13.5662 8 13.29Z" fill="black"/>
<path d="M13 8.17188V4.49902C12.9999 3.67094 12.3286 3 11.5 3H4.5C3.67157 3 3 3.67157 3 4.5V11.5C3 12.3284 3.67157 13 4.5 13H8.17188C8.57003 12.9999 8.95052 12.8424 9.23145 12.5615L9.33887 12.4541C9.37198 12.421 9.32427 12.4677 9.35742 12.4346C9.36581 12.4262 9.3685 12.4245 9.37695 12.416L9.70605 12.0869C9.74517 12.0478 9.71069 12.0813 9.75 12.042C9.76977 12.0222 9.75265 12.0393 9.77246 12.0195C9.78247 12.0095 9.78584 12.0071 9.7959 11.9971L9.83008 11.9629C9.84235 11.9506 9.82814 11.9639 9.84082 11.9512C9.84261 11.9494 9.84489 11.9481 9.84668 11.9463L10.1035 11.6895C10.1364 11.6566 10.095 11.697 10.1279 11.6641C10.1389 11.653 10.1422 11.6507 10.1533 11.6396C10.1643 11.6286 10.1667 11.6253 10.1777 11.6143C10.1798 11.6122 10.1825 11.6105 10.1846 11.6084L10.2988 11.4941C10.3009 11.492 10.3026 11.4894 10.3047 11.4873C10.3068 11.4852 10.3094 11.4836 10.3115 11.4814L10.4551 11.3379C10.4572 11.3358 10.4588 11.3332 10.4609 11.3311C10.463 11.3289 10.4657 11.3273 10.4678 11.3252L10.6357 11.1572C10.6379 11.1551 10.6395 11.1525 10.6416 11.1504C10.6437 11.1483 10.6463 11.1466 10.6484 11.1445L10.7715 11.0215C10.7738 11.0192 10.776 11.016 10.7783 11.0137C10.7806 11.0114 10.7838 11.0091 10.7861 11.0068L10.8477 10.9453C10.85 10.943 10.8522 10.9398 10.8545 10.9375C10.8568 10.9352 10.86 10.933 10.8623 10.9307L11.0371 10.7559C11.0395 10.7535 11.0416 10.7504 11.0439 10.748C11.0463 10.7457 11.0494 10.7436 11.0518 10.7412L11.1367 10.6562C11.1391 10.6539 11.1412 10.6508 11.1436 10.6484C11.1459 10.6461 11.149 10.644 11.1514 10.6416L11.2012 10.5918C11.2036 10.5894 11.2056 10.5864 11.208 10.584C11.2104 10.5816 11.2134 10.5795 11.2158 10.5771L11.2803 10.5127C11.2827 10.5103 11.2847 10.5073 11.2871 10.5049C11.2895 10.5025 11.2925 10.5005 11.2949 10.498L11.3164 10.4766C11.3188 10.4742 11.3208 10.4712 11.3232 10.4688C11.3257 10.4663 11.3286 10.4643 11.3311 10.4619L11.418 10.375C11.4204 10.3726 11.4224 10.3696 11.4248 10.3672C11.4272 10.3648 11.4302 10.3628 11.4326 10.3604L11.542 10.251C11.5444 10.2485 11.5464 10.2456 11.5488 10.2432C11.5513 10.2407 11.5542 10.2388 11.5566 10.2363C11.5591 10.2339 11.561 10.231 11.5635 10.2285C11.5659 10.2261 11.5689 10.2241 11.5713 10.2217C11.5737 10.2192 11.5757 10.2163 11.5781 10.2139C11.5806 10.2114 11.5835 10.2095 11.5859 10.207C11.5884 10.2046 11.5903 10.2017 11.5928 10.1992C11.5952 10.1968 11.5982 10.1948 11.6006 10.1924L11.6738 10.1191C11.7 10.093 11.7062 10.0858 11.7324 10.0596C11.7845 10.0074 11.7985 9.99444 11.8506 9.94238L12.1172 9.67578C12.1303 9.66262 12.1333 9.65865 12.1465 9.64551C12.1489 9.64308 12.1519 9.6411 12.1543 9.63867L12.2061 9.58691C12.2061 9.58691 12.2343 9.55773 12.2354 9.55664C12.2419 9.55006 12.259 9.53392 12.2656 9.52734L12.4355 9.35742C12.438 9.35498 12.4399 9.35205 12.4424 9.34961C12.4555 9.3365 12.4596 9.33342 12.4727 9.32031L12.5605 9.23242C12.8419 8.95103 13 8.56957 13 8.17188ZM14 8.17188C14 8.83505 13.7363 9.4707 13.2676 9.93945L13.1572 10.0498C13.1548 10.0522 13.1528 10.0552 13.1504 10.0576C13.1471 10.0609 13.138 10.069 13.1348 10.0723L12.9727 10.2344C12.9529 10.2541 12.9631 10.2449 12.9434 10.2646C12.9368 10.2712 12.9343 10.2727 12.9277 10.2793L12.7725 10.4346C12.77 10.437 12.7681 10.4399 12.7656 10.4424C12.7459 10.4621 12.7697 10.4373 12.75 10.457L12.5879 10.6191C12.5813 10.6257 12.5798 10.6282 12.5732 10.6348C12.5708 10.6372 12.5679 10.6392 12.5654 10.6416L12.4697 10.7373C12.4435 10.7635 12.4666 10.7414 12.4404 10.7676C12.4142 10.7938 12.407 10.8 12.3809 10.8262L12.3076 10.8994C12.3052 10.9018 12.3032 10.9048 12.3008 10.9072C12.2983 10.9097 12.2954 10.9116 12.293 10.9141C12.2905 10.9165 12.2886 10.9194 12.2861 10.9219C12.2837 10.9243 12.2808 10.9263 12.2783 10.9287C12.2759 10.9311 12.2739 10.9341 12.2715 10.9365C12.269 10.939 12.2661 10.9409 12.2637 10.9434C12.2612 10.9458 12.2593 10.9487 12.2568 10.9512C12.2544 10.9536 12.2515 10.9556 12.249 10.958C12.2466 10.9604 12.2446 10.9634 12.2422 10.9658C12.2398 10.9682 12.2368 10.9702 12.2344 10.9727L12.1396 11.0674C12.1372 11.0698 12.1352 11.0728 12.1328 11.0752C12.1304 11.0776 12.1274 11.0796 12.125 11.082L12.0381 11.1689C12.0357 11.1714 12.0337 11.1743 12.0312 11.1768C12.0288 11.1792 12.0258 11.1812 12.0234 11.1836L12.002 11.2051C11.9995 11.2075 11.9975 11.2105 11.9951 11.2129C11.9927 11.2153 11.9897 11.2173 11.9873 11.2197L11.9443 11.2627C11.9419 11.2651 11.9399 11.2681 11.9375 11.2705C11.9351 11.2729 11.9321 11.275 11.9297 11.2773C11.9274 11.2796 11.9251 11.2819 11.9229 11.2842C11.9205 11.2866 11.9184 11.2896 11.916 11.292C11.9136 11.2944 11.9106 11.2964 11.9082 11.2988L11.8584 11.3486C11.856 11.351 11.8539 11.3541 11.8516 11.3564C11.8492 11.3588 11.8461 11.3609 11.8438 11.3633L11.7588 11.4482C11.7564 11.4506 11.7543 11.4537 11.752 11.4561C11.7496 11.4584 11.7465 11.4605 11.7441 11.4629L11.5693 11.6377C11.567 11.64 11.5648 11.6432 11.5625 11.6455C11.5602 11.6478 11.557 11.65 11.5547 11.6523L11.4932 11.7139C11.4909 11.7162 11.4886 11.7194 11.4863 11.7217C11.484 11.724 11.4808 11.7262 11.4785 11.7285L11.3555 11.8516C11.3534 11.8537 11.3517 11.8563 11.3496 11.8584C11.3475 11.8605 11.3449 11.8621 11.3428 11.8643L11.1748 12.0322C11.1727 12.0343 11.1711 12.037 11.1689 12.0391C11.1668 12.0412 11.1642 12.0428 11.1621 12.0449L11.0186 12.1885C11.0164 12.1906 11.0148 12.1932 11.0127 12.1953C11.0106 12.1974 11.008 12.1991 11.0059 12.2012L10.8916 12.3154C10.8895 12.3175 10.8878 12.3202 10.8857 12.3223C10.8837 12.3243 10.881 12.326 10.8789 12.3281L10.8477 12.3594C10.8259 12.3811 10.8579 12.3501 10.8359 12.3721C10.814 12.394 10.8448 12.3622 10.8232 12.3838L10.7559 12.4512C10.7538 12.4532 10.752 12.456 10.75 12.458C10.7464 12.4616 10.7409 12.4661 10.7373 12.4697L10.7256 12.4814C10.7236 12.4835 10.7217 12.4863 10.7197 12.4883C10.7177 12.4903 10.7149 12.4921 10.7129 12.4941L10.6895 12.5176C10.6788 12.5282 10.6884 12.5196 10.6777 12.5303C10.6565 12.5515 10.6862 12.5208 10.665 12.542L10.5713 12.6357C10.5638 12.6432 10.5562 12.6518 10.5488 12.6592C10.547 12.661 10.5448 12.6623 10.543 12.6641L10.5137 12.6934C10.5119 12.6952 10.5106 12.6974 10.5088 12.6992C10.507 12.701 10.5047 12.7023 10.5029 12.7041C10.4628 12.7442 10.4979 12.7101 10.458 12.75C10.4555 12.7525 10.4488 12.7583 10.4463 12.7607L10.084 13.123C10.0587 13.1484 10.0907 13.1173 10.0654 13.1426C10.064 13.144 10.062 13.145 10.0605 13.1465L9.93848 13.2686C9.46939 13.7376 8.83436 13.9999 8.17188 14H4.5C3.11929 14 2 12.8807 2 11.5V4.5C2 3.11929 3.11929 2 4.5 2H11.5C12.8804 2 13.9999 3.11812 14 4.49902V8.17188Z" fill="black"/>
</svg>
