<svg width="16" height="16" viewBox="0 0 16 16" fill="none" xmlns="http://www.w3.org/2000/svg">
<path d="M6.48608 6.23199V4.99698C6.48608 4.89297 6.52475 4.81493 6.61491 4.76298L9.0758 3.333C9.4108 3.13802 9.81025 3.04705 10.2224 3.04705C11.7685 3.04705 12.7478 4.25608 12.7478 5.54303C12.7478 5.634 12.7478 5.73802 12.7348 5.84203L10.1838 4.334C10.0292 4.24304 9.87452 4.24304 9.7199 4.334L6.48608 6.23199ZM12.2323 11.0421V8.09096C12.2323 7.90891 12.155 7.77893 12.0004 7.68795L8.76655 5.78996L9.82301 5.17892C9.91319 5.12698 9.99054 5.12698 10.0807 5.17892L12.5415 6.60891C13.2503 7.02497 13.7268 7.90891 13.7268 8.76688C13.7268 9.75484 13.1472 10.665 12.2323 11.0421ZM5.72593 8.44203L4.66945 7.81807C4.57929 7.76612 4.54062 7.68808 4.54062 7.58406V4.72409C4.54062 3.33312 5.5971 2.28005 7.02726 2.28005C7.56842 2.28005 8.0708 2.46211 8.49608 2.78707L5.95796 4.26913C5.8034 4.3601 5.72605 4.49009 5.72605 4.67215L5.72593 8.44203ZM7.99999 9.768L6.48608 8.91004V7.09008L7.99999 6.23211L9.51377 7.09008V8.91004L7.99999 9.768ZM8.97272 13.7201C8.43154 13.7201 7.92917 13.538 7.50389 13.2131L10.042 11.7309C10.1965 11.64 10.2739 11.5101 10.2739 11.328V7.55797L11.3434 8.18193C11.4335 8.23388 11.4721 8.31192 11.4721 8.41594V11.2759C11.4721 12.6668 10.4027 13.7201 8.97272 13.7201ZM5.91917 10.8211L3.45827 9.39109C2.74959 8.97502 2.27296 8.09109 2.27296 7.23312C2.27296 6.23211 2.86563 5.33513 3.78034 4.95809V7.92208C3.78034 8.10414 3.85769 8.23412 4.01225 8.3251L7.2333 10.21L6.17682 10.8211C6.08667 10.8731 6.00932 10.8731 5.91917 10.8211ZM5.77753 12.9531C4.32163 12.9531 3.25222 11.848 3.25222 10.483C3.25222 10.379 3.26515 10.275 3.27796 10.171L5.81608 11.6531C5.97065 11.744 6.12534 11.744 6.27991 11.6531L9.51377 9.76816V11.0032C9.51377 11.1072 9.47509 11.1852 9.38494 11.2371L6.92404 12.6671C6.58904 12.8621 6.18974 12.9531 5.77753 12.9531ZM8.97272 14.5C10.5317 14.5 11.8329 13.382 12.1294 11.9C13.5723 11.5229 14.5 10.1579 14.5 8.767C14.5 7.85697 14.1135 6.97302 13.4178 6.33601C13.4822 6.06298 13.5209 5.78996 13.5209 5.51706C13.5209 3.6581 12.0263 2.267 10.2998 2.267C9.95203 2.267 9.61698 2.31895 9.28198 2.43601C8.70213 1.86399 7.9033 1.5 7.02726 1.5C5.46827 1.5 4.16706 2.61794 3.87062 4.09999C2.42766 4.47703 1.5 5.84203 1.5 7.233C1.5 8.14303 1.88648 9.02698 2.58223 9.664C2.51781 9.937 2.47914 10.21 2.47914 10.4829C2.47914 12.3418 3.9737 13.7329 5.70019 13.7329C6.04799 13.7329 6.383 13.6811 6.718 13.564C7.29772 14.136 8.09654 14.5 8.97272 14.5Z" fill="black"/>
</svg>
