<svg width="16" height="16" viewBox="0 0 16 16" fill="none" xmlns="http://www.w3.org/2000/svg">
<path d="M14 8C14 4.68629 11.3137 2 8 2C4.68629 2 2 4.68629 2 8C2 11.3137 4.68629 14 8 14C11.3137 14 14 11.3137 14 8ZM15 8C15 11.866 11.866 15 8 15C4.13401 15 1 11.866 1 8C1 4.13401 4.13401 1 8 1C11.866 1 15 4.13401 15 8Z" fill="black"/>
<path d="M9.26539 3.73125C9.43742 3.65928 9.63483 3.68902 9.77809 3.8084L12.4724 6.05352C12.6845 6.23029 12.7136 6.54548 12.5369 6.75762C12.3602 6.96968 12.0449 6.99863 11.8328 6.82207L9.87672 5.19122L9.50758 9.62286C9.4942 9.78297 9.40407 9.92677 9.26637 10.0096C9.12871 10.0922 8.95988 10.1041 8.81227 10.0408L6.10231 8.87872L4.96559 11.1522C4.84208 11.3991 4.54165 11.4992 4.29469 11.3758C4.04772 11.2523 3.94761 10.9519 4.07106 10.7049L5.41871 8.01055L5.47047 7.92754C5.60718 7.75095 5.8496 7.68323 6.06227 7.77422L8.56813 8.84844L8.95973 4.1502L8.97047 4.08184C9.00581 3.92553 9.11497 3.79423 9.26539 3.73125Z" fill="black"/>
<path d="M6.76373 8.2259C6.76373 8.72194 6.36161 9.12406 5.86557 9.12406C5.36952 9.12406 4.9674 8.72194 4.9674 8.2259C4.9674 7.72985 5.36952 7.32773 5.86557 7.32773C6.36161 7.32773 6.76373 7.72985 6.76373 8.2259Z" fill="black"/>
<path d="M9.90732 9.54524C9.90732 10.0413 9.50519 10.4434 9.00915 10.4434C8.51311 10.4434 8.11098 10.0413 8.11098 9.54524C8.11098 9.04919 8.51311 8.64707 9.00915 8.64707C9.50519 8.64707 9.90732 9.04919 9.90732 9.54524Z" fill="black"/>
<path d="M10.2963 4.1922C10.2963 4.68825 9.8942 5.09037 9.39815 5.09037C8.90211 5.09037 8.49999 4.68825 8.49999 4.1922C8.49999 3.69616 8.90211 3.29404 9.39815 3.29404C9.8942 3.29404 10.2963 3.69616 10.2963 4.1922Z" fill="black"/>
<path d="M13.0509 6.43764C13.0509 6.93368 12.6488 7.3358 12.1527 7.3358C11.6567 7.3358 11.2546 6.93368 11.2546 6.43764C11.2546 5.94159 11.6567 5.53947 12.1527 5.53947C12.6488 5.53947 13.0509 5.94159 13.0509 6.43764Z" fill="black"/>
<path d="M5.41648 10.9285C5.41648 11.4245 5.01436 11.8266 4.51832 11.8266C4.02227 11.8266 3.62015 11.4245 3.62015 10.9285C3.62015 10.4324 4.02227 10.0303 4.51832 10.0303C5.01436 10.0303 5.41648 10.4324 5.41648 10.9285Z" fill="black"/>
</svg>
