<svg width="16" height="16" viewBox="0 0 16 16" fill="none" xmlns="http://www.w3.org/2000/svg">
<path d="M3 3C3 1.96435 3.78722 1.113 4.7959 1.01074L5 1H8.78516C9.03673 1.00008 9.27916 1.09483 9.46387 1.26562L13.1787 4.70312C13.3833 4.8924 13.5 5.15879 13.5 5.4375V8H3V3ZM4 7H12.5V5.4375L8.78516 2H5C4.44772 2 4 2.44772 4 3V7Z" fill="black"/>
<path d="M7.75 4.66699V1.5H8.75V4.66699C8.75019 4.94298 8.97397 5.16699 9.25 5.16699H12.9746V6.16699H9.25C8.42169 6.16699 7.75019 5.49526 7.75 4.66699Z" fill="black"/>
<path d="M13 7C14.1046 7 15 7.89543 15 9V13C15 14.1046 14.1046 15 13 15H3C1.89543 15 1 14.1046 1 13V9C1 7.89543 1.89543 7 3 7H13ZM3 9C2.72386 9 2.5 9.22386 2.5 9.5V12.5859C2.50003 12.8621 2.72388 13.0859 3 13.0859C3.27612 13.0859 3.49997 12.8621 3.5 12.5859V12H4C4.82843 12 5.5 11.3284 5.5 10.5C5.5 9.67158 4.82843 9 4 9H3ZM7 9C6.72386 9 6.5 9.22386 6.5 9.5V12.5C6.5 12.7761 6.72386 13 7 13C7.59816 13 8.21077 12.8957 8.68848 12.583C9.19859 12.249 9.5 11.7122 9.5 11C9.5 10.2878 9.19859 9.75096 8.68848 9.41699C8.21077 9.10427 7.59816 9 7 9ZM11.0029 9C10.8699 8.99922 10.7419 9.05175 10.6475 9.14551C10.5531 9.23935 10.5 9.36691 10.5 9.5V12.5C10.5 12.7761 10.7239 13 11 13C11.2761 13 11.5 12.7761 11.5 12.5V11.5H12.5C12.7761 11.5 13 11.2761 13 11C13 10.7239 12.7761 10.5 12.5 10.5H11.5V10.0029L12.9971 10.0137C13.273 10.0153 13.4981 9.79259 13.5 9.5166C13.5017 9.24061 13.279 9.01554 13.0029 9.01367L11.0029 9ZM7.5 10.0352C7.7674 10.076 7.98314 10.1508 8.14062 10.2539C8.35427 10.3938 8.5 10.6077 8.5 11C8.5 11.3923 8.35427 11.6062 8.14062 11.7461C7.98317 11.8492 7.76734 11.9231 7.5 11.9639V10.0352ZM4 10C4.27614 10 4.5 10.2239 4.5 10.5C4.5 10.7761 4.27614 11 4 11H3.5V10H4Z" fill="#FF0000"/>
</svg>
