<svg width="16" height="16" viewBox="0 0 16 16" fill="none" xmlns="http://www.w3.org/2000/svg">
<g clip-path="url(#clip0_336_704)">
<path d="M14.2599 4.82487C14.9506 5.51558 14.8076 6.6721 13.9692 7.17338L10.0407 9.52188C9.67623 9.74001 9.4219 10.1029 9.33985 10.5197L8.94003 12.5464C8.90432 12.7275 8.77206 12.8745 8.59545 12.9283C8.41879 12.9821 8.22677 12.9339 8.09619 12.8033L5.98109 10.6882L3.14645 13.6237C2.95469 13.8221 2.63795 13.8276 2.43934 13.6361C2.24079 13.4443 2.23531 13.1276 2.42691 12.929L5.27398 9.98109L3.14645 7.85355C3.01588 7.72297 2.96768 7.53095 3.02146 7.3543C3.07523 7.1777 3.22222 7.04543 3.40332 7.00972L5.43073 6.61059C5.84737 6.52845 6.20981 6.27341 6.42786 5.90901L8.77637 1.98056C9.27764 1.14218 10.4342 0.999139 11.1249 1.68985L14.2599 4.82487ZM10.4178 2.39695C10.1875 2.16672 9.8018 2.21417 9.6347 2.49363L7.2862 6.42208C6.92268 7.02982 6.31823 7.45505 5.62339 7.59184L4.51647 7.80936L8.14039 11.4333L8.35791 10.3264C8.4947 9.63152 8.91993 9.02707 9.52767 8.66355L13.4561 6.31504C13.7356 6.14795 13.783 5.76221 13.5528 5.53198L10.4178 2.39695Z" fill="black"/>
</g>
<defs>
<clipPath id="clip0_336_704">
<rect width="16" height="16" fill="white"/>
</clipPath>
</defs>
</svg>
