<svg width="16" height="16" viewBox="0 0 16 16" fill="none" xmlns="http://www.w3.org/2000/svg">
<path d="M9.5 8C9.5 7.17157 8.82843 6.5 8 6.5C7.17157 6.5 6.5 7.17157 6.5 8C6.5 8.82843 7.17157 9.5 8 9.5V10.5C6.61929 10.5 5.5 9.38071 5.5 8C5.5 6.61929 6.61929 5.5 8 5.5C9.38071 5.5 10.5 6.61929 10.5 8C10.5 9.38071 9.38071 10.5 8 10.5V9.5C8.82843 9.5 9.5 8.82843 9.5 8Z" fill="black"/>
<path d="M2.5419 6.09482C5.61548 3.22629 10.3849 3.22566 13.4586 6.09413L14.7167 7.26941C15.14 7.66471 15.14 8.33529 14.7167 8.73058L14.0345 8L12.7763 6.82609C10.087 4.31605 5.91361 4.31558 3.22415 6.8254L1.96531 8L3.22346 9.17391C5.91291 11.6841 10.0869 11.6841 12.7763 9.17391L14.0345 8L14.7167 8.73058L13.4586 9.90587C10.481 12.6847 5.91169 12.7713 2.83469 10.1662L2.5419 9.90518L1.28306 8.73058C0.859942 8.33531 0.859942 7.66469 1.28306 7.26942L2.5419 6.09482Z" fill="black"/>
</svg>
