<svg width="16" height="16" viewBox="0 0 16 16" fill="none" xmlns="http://www.w3.org/2000/svg">
<path d="M10.5 8C10.5 9.38071 9.38071 10.5 8 10.5C6.61929 10.5 5.5 9.38071 5.5 8C5.5 6.61929 6.61929 5.5 8 5.5C9.38071 5.5 10.5 6.61929 10.5 8Z" fill="black"/>
<path d="M9.5 8C9.5 7.17157 8.82843 6.5 8 6.5C7.17158 6.5 6.5 7.17158 6.5 8C6.50001 8.82842 7.17158 9.5 8 9.5V10.5L7.74414 10.4873C6.56773 10.3677 5.63228 9.43227 5.5127 8.25586L5.5 8C5.5 6.61929 6.61929 5.5 8 5.5C9.38071 5.5 10.5 6.61929 10.5 8L10.4873 8.25586C10.3592 9.51639 9.29434 10.5 8 10.5V9.5C8.82842 9.5 9.49999 8.82842 9.5 8Z" fill="black"/>
<path d="M2.54191 6.09483C5.61549 3.22629 10.3849 3.22567 13.4586 6.09414L14.7167 7.26943C15.14 7.66473 15.14 8.33531 14.7167 8.7306L14.0345 8.00001L12.7763 6.8261C10.087 4.31606 5.91362 4.31558 3.22416 6.82541L1.96532 8.00001L3.22347 9.17392C5.91292 11.6841 10.0869 11.6841 12.7763 9.17392L14.0345 8.00001L14.7167 8.7306L13.4586 9.90589C10.4811 12.6847 5.9117 12.7713 2.8347 10.1662L2.54191 9.90519L1.28307 8.7306C0.859835 8.33522 0.860297 7.66397 1.28376 7.26874L2.54191 6.09483Z" fill="black"/>
</svg>
