<svg width="16" height="16" viewBox="0 0 16 16" fill="none" xmlns="http://www.w3.org/2000/svg">
<path d="M14 8C14 4.68629 11.3137 2 8 2C4.68629 2 2 4.68629 2 8C2 11.3137 4.68629 14 8 14V15C4.13401 15 1 11.866 1 8C1 4.13401 4.13401 1 8 1C11.866 1 15 4.13401 15 8C15 11.866 11.866 15 8 15V14C11.3137 14 14 11.3137 14 8Z" fill="black"/>
<path d="M8.75 12.25C8.75 12.6642 8.41421 13 8 13C7.58579 13 7.25 12.6642 7.25 12.25C7.25 11.8358 7.58579 11.5 8 11.5C8.41421 11.5 8.75 11.8358 8.75 12.25Z" fill="black"/>
<path d="M7.5 9.86005V7.99969C7.50008 7.75147 7.60068 7.54357 7.75684 7.39032C7.89777 7.25208 8.07114 7.1699 8.2168 7.11591C8.49379 7.01323 8.87267 6.94818 9.1416 6.88837C9.45368 6.81895 9.6841 6.74717 9.83398 6.64813C9.94859 6.57239 9.99991 6.49604 10 6.34442C10 5.25173 9.10761 4.36005 8 4.36005C6.89239 4.36005 6 5.25173 6 6.34442C5.99978 6.62038 5.77601 6.84442 5.5 6.84442C5.22399 6.84442 5.00022 6.62038 5 6.34442C5 4.69339 6.34618 3.36005 8 3.36005C9.65382 3.36005 11 4.69339 11 6.34442C10.9999 6.87821 10.7387 7.24827 10.3848 7.48212C10.0659 7.69276 9.67126 7.79437 9.3584 7.86395C9.00248 7.94311 8.75617 7.98236 8.56445 8.05341C8.53678 8.06366 8.51597 8.07406 8.5 8.08173V9.86005C8.5 10.1362 8.27614 10.36 8 10.36C7.72386 10.36 7.5 10.1362 7.5 9.86005Z" fill="black"/>
</svg>
