<svg width="16" height="16" viewBox="0 0 16 16" fill="none" xmlns="http://www.w3.org/2000/svg">
<path d="M9.5 4C9.5 3.72386 9.72386 3.5 10 3.5H12C12.2761 3.5 12.5 3.72386 12.5 4V6.7H10C9.72386 6.7 9.5 6.47614 9.5 6.2V4Z" fill="black"/>
<path d="M12 4H10V6.2002H12V4ZM13 6.72168L12.999 6.72266V6.72754C12.9989 6.73128 12.9984 6.73718 12.998 6.74414C12.9974 6.75799 12.9965 6.77804 12.9951 6.80371C12.9923 6.85549 12.9885 6.93087 12.9824 7.02344C12.9703 7.20832 12.9507 7.46571 12.9219 7.75684C12.865 8.33065 12.7677 9.0681 12.6055 9.63672C12.4601 10.1462 12.1456 10.6982 11.8906 11.0967C11.7595 11.3016 11.6369 11.4776 11.5469 11.6025C11.5017 11.6652 11.4637 11.7151 11.4375 11.75C11.4245 11.7674 11.4145 11.7815 11.4072 11.791C11.4036 11.7957 11.4005 11.7991 11.3984 11.8018C11.3976 11.8029 11.3971 11.804 11.3965 11.8047L11.3955 11.8057V11.8066H11.3945C11.2251 12.0246 10.9114 12.0638 10.6934 11.8945C10.4754 11.7251 10.4362 11.4114 10.6055 11.1934L10.6064 11.1914C10.6077 11.1898 10.6096 11.1871 10.6123 11.1836C10.618 11.1762 10.6273 11.1645 10.6387 11.1494C10.6614 11.1192 10.6946 11.0742 10.7354 11.0176C10.8173 10.9038 10.929 10.7434 11.0479 10.5576C11.2932 10.1741 11.5412 9.72513 11.6445 9.36328C11.7808 8.88585 11.8708 8.22275 11.9268 7.6582C11.9433 7.49146 11.9544 7.33594 11.9648 7.2002H10C9.44778 7.2002 9.00011 6.75239 9 6.2002V4C9 3.44772 9.44771 3 10 3H12C12.5523 3 13 3.44772 13 4V6.72168Z" fill="black"/>
<path d="M3.5 4C3.5 3.72386 3.72386 3.5 4 3.5H6C6.27614 3.5 6.5 3.72386 6.5 4V6.7H4C3.72386 6.7 3.5 6.47614 3.5 6.2V4Z" fill="black"/>
<path d="M6 4H4V6.2002H6V4ZM7 6.72168L6.99902 6.72266V6.72754C6.99885 6.73128 6.99838 6.73718 6.99805 6.74414C6.99738 6.75799 6.99649 6.77804 6.99512 6.80371C6.99235 6.85549 6.98848 6.93087 6.98242 7.02344C6.97031 7.20832 6.95074 7.46571 6.92188 7.75684C6.86498 8.33065 6.76766 9.0681 6.60547 9.63672C6.4601 10.1462 6.14555 10.6982 5.89062 11.0967C5.75955 11.3016 5.63691 11.4776 5.54688 11.6025C5.50175 11.6652 5.46371 11.7151 5.4375 11.75C5.42447 11.7674 5.41449 11.7815 5.40723 11.791C5.40365 11.7957 5.40047 11.7991 5.39844 11.8018C5.39758 11.8029 5.39705 11.804 5.39648 11.8047L5.39551 11.8057V11.8066H5.39453C5.22514 12.0246 4.91141 12.0638 4.69336 11.8945C4.47541 11.7251 4.43615 11.4114 4.60547 11.1934L4.60645 11.1914C4.6077 11.1898 4.60961 11.1871 4.6123 11.1836C4.61797 11.1762 4.62734 11.1645 4.63867 11.1494C4.66135 11.1192 4.69457 11.0742 4.73535 11.0176C4.8173 10.9038 4.92898 10.7434 5.04785 10.5576C5.29319 10.1741 5.54121 9.72513 5.64453 9.36328C5.78076 8.88585 5.87078 8.22275 5.92676 7.6582C5.94329 7.49146 5.95438 7.33594 5.96484 7.2002H4C3.44778 7.2002 3.00011 6.75239 3 6.2002V4C3 3.44772 3.44771 3 4 3H6C6.55228 3 7 3.44772 7 4V6.72168Z" fill="black"/>
</svg>
