<svg width="16" height="16" viewBox="0 0 16 16" fill="none" xmlns="http://www.w3.org/2000/svg">
<path d="M12.8333 5H14.5V6.77778H12.8333V5Z" fill="black"/>
<path d="M14.5003 4.5C14.7763 4.50018 15.0003 4.72397 15.0003 5V6.78906L14.9993 6.7998V6.81348C14.9989 6.82155 14.9982 6.83314 14.9974 6.84766C14.9958 6.87719 14.993 6.91941 14.9896 6.97168C14.9827 7.07624 14.9717 7.22191 14.9554 7.38672C14.9236 7.70766 14.8687 8.13451 14.7728 8.4707C14.6827 8.78642 14.4926 9.11517 14.3489 9.33984C14.2735 9.4578 14.2025 9.55893 14.1507 9.63086C14.1247 9.66696 14.1026 9.69636 14.0872 9.7168C14.0796 9.72691 14.074 9.73548 14.0696 9.74121C14.0675 9.74405 14.0651 9.74636 14.0638 9.74805L14.0628 9.75L14.0618 9.75098C13.8925 9.96907 13.5778 10.0092 13.3597 9.83984C13.1416 9.67048 13.1024 9.3558 13.2718 9.1377L13.2747 9.13379C13.2775 9.13015 13.2825 9.12407 13.2884 9.11621C13.3002 9.1005 13.3176 9.07686 13.3392 9.04688C13.3829 8.98613 13.4427 8.89993 13.5062 8.80078C13.6403 8.59105 13.7628 8.36451 13.8109 8.19629C13.8807 7.95132 13.9294 7.59964 13.9603 7.28809C13.9606 7.2845 13.9609 7.28091 13.9612 7.27734H12.8333C12.5572 7.27734 12.3333 7.05349 12.3333 6.77734V5C12.3333 4.72386 12.5572 4.5 12.8333 4.5H14.5003ZM13.3333 6.27734H14.0003V5.5H13.3333V6.27734Z" fill="black"/>
<path d="M9.5 5H11.1667V6.77778H9.5V5Z" fill="black"/>
<path d="M11.167 4.5C11.443 4.50018 11.667 4.72397 11.667 5V6.78906L11.666 6.7998V6.81348C11.6656 6.82155 11.6648 6.83314 11.6641 6.84766C11.6625 6.87719 11.6597 6.91941 11.6562 6.97168C11.6494 7.07624 11.6384 7.22191 11.6221 7.38672C11.5902 7.70766 11.5354 8.13451 11.4395 8.4707C11.3494 8.78642 11.1593 9.11517 11.0156 9.33984C10.9402 9.4578 10.8692 9.55893 10.8174 9.63086C10.7914 9.66696 10.7693 9.69636 10.7539 9.7168C10.7463 9.72691 10.7407 9.73548 10.7363 9.74121C10.7342 9.74405 10.7318 9.74636 10.7305 9.74805L10.7295 9.75L10.7285 9.75098C10.5592 9.96907 10.2445 10.0092 10.0264 9.83984C9.80826 9.67048 9.76911 9.3558 9.93848 9.1377L9.94141 9.13379C9.94419 9.13015 9.94918 9.12407 9.95508 9.11621C9.96687 9.1005 9.98425 9.07686 10.0059 9.04688C10.0496 8.98613 10.1094 8.89993 10.1729 8.80078C10.307 8.59105 10.4295 8.36451 10.4775 8.19629C10.5474 7.95132 10.5961 7.59964 10.627 7.28809C10.6273 7.2845 10.6276 7.28091 10.6279 7.27734H9.5C9.22386 7.27734 9 7.05349 9 6.77734V5C9 4.72386 9.22386 4.5 9.5 4.5H11.167ZM10 6.27734H10.667V5.5H10V6.27734Z" fill="black"/>
<path d="M3.16669 9.44443L1.50002 9.44443L1.50002 7.66665L3.16669 7.66665L3.16669 9.44443Z" fill="black"/>
<path d="M1.49969 9.94443C1.2237 9.94425 0.999695 9.72046 0.999695 9.44443L0.999695 7.65536L1.00067 7.64462L1.00067 7.63193C1.00106 7.62383 1.00183 7.61156 1.00262 7.59677C1.00421 7.56723 1.00702 7.52501 1.01044 7.47275C1.01728 7.36818 1.02828 7.22252 1.04462 7.05771C1.07644 6.73677 1.13131 6.30992 1.22723 5.97372C1.31734 5.65801 1.50735 5.32925 1.65106 5.10458C1.72652 4.98662 1.79749 4.8855 1.8493 4.81357C1.87531 4.77747 1.89743 4.74807 1.91278 4.72763C1.92037 4.71752 1.92598 4.70895 1.93036 4.70322C1.93253 4.70038 1.93492 4.69807 1.93622 4.69638L1.9372 4.69443L1.93817 4.69345C2.10753 4.47534 2.42221 4.4362 2.64032 4.60556C2.85805 4.775 2.89746 5.08877 2.72821 5.30673L2.72528 5.31064C2.7225 5.31428 2.71751 5.32035 2.71161 5.32822C2.69982 5.34392 2.68244 5.36756 2.66083 5.39755C2.61706 5.4583 2.55726 5.5445 2.49384 5.64365C2.35968 5.85338 2.23718 6.07992 2.18915 6.24814C2.11925 6.49311 2.07062 6.84479 2.03973 7.15634C2.03938 7.15993 2.03911 7.16352 2.03876 7.16708L3.16669 7.16708C3.44283 7.16708 3.66669 7.39094 3.66669 7.66708L3.66669 9.44443C3.66669 9.72057 3.44283 9.94443 3.16669 9.94443L1.49969 9.94443ZM2.66669 8.16708L1.99969 8.16708L1.99969 8.94443L2.66669 8.94443L2.66669 8.16708Z" fill="black"/>
<path d="M6.5 9.44443L4.83333 9.44443L4.83333 7.66665L6.5 7.66665L6.5 9.44443Z" fill="black"/>
<path d="M4.83301 9.94443C4.55701 9.94425 4.33301 9.72046 4.33301 9.44443L4.33301 7.65536L4.33398 7.64462L4.33398 7.63193C4.33438 7.62383 4.33515 7.61156 4.33594 7.59677C4.33752 7.56723 4.34033 7.52501 4.34375 7.47275C4.3506 7.36818 4.36159 7.22252 4.37793 7.05771C4.40975 6.73677 4.46462 6.30992 4.56055 5.97372C4.65065 5.65801 4.84067 5.32925 4.98438 5.10458C5.05984 4.98662 5.1308 4.8855 5.18262 4.81357C5.20863 4.77747 5.23075 4.74807 5.24609 4.72763C5.25369 4.71752 5.25929 4.70895 5.26367 4.70322C5.26584 4.70038 5.26823 4.69807 5.26953 4.69638L5.27051 4.69443L5.27148 4.69345C5.44085 4.47534 5.75552 4.4362 5.97363 4.60556C6.19137 4.775 6.23078 5.08877 6.06152 5.30673L6.05859 5.31064C6.05581 5.31428 6.05083 5.32035 6.04492 5.32822C6.03313 5.34392 6.01575 5.36756 5.99414 5.39755C5.95037 5.4583 5.89057 5.5445 5.82715 5.64365C5.69299 5.85338 5.57049 6.07992 5.52246 6.24814C5.45257 6.49311 5.40394 6.84479 5.37305 7.15634C5.37269 7.15993 5.37242 7.16352 5.37207 7.16708L6.5 7.16708C6.77614 7.16708 7 7.39094 7 7.66708L7 9.44443C7 9.72057 6.77614 9.94443 6.5 9.94443L4.83301 9.94443ZM6 8.16708L5.33301 8.16708L5.33301 8.94443L6 8.94443L6 8.16708Z" fill="black"/>
</svg>
