<svg width="16" height="16" viewBox="0 0 16 16" fill="none" xmlns="http://www.w3.org/2000/svg">
<path d="M8 10C9.2095 10 10.2186 10.8589 10.4502 12H14.7139C14.9898 12.0003 15.2139 12.224 15.2139 12.5C15.2139 12.776 14.9898 12.9998 14.7139 13H10.4502C10.2186 14.1412 9.20948 15 8 15C6.79052 15 5.78144 14.1412 5.5498 13H1.5C1.22387 13 1.00002 12.7762 1 12.5C1 12.2239 1.22386 12 1.5 12H5.5498C5.78141 10.8589 6.7905 10 8 10ZM8 11C7.17157 11 6.5 11.6716 6.5 12.5C6.50002 13.3284 7.17158 14 8 14C8.82842 14 9.49998 13.3284 9.5 12.5C9.5 11.6716 8.82843 11 8 11Z" fill="black"/>
<path d="M8.35352 8.64648C8.54879 8.84174 8.54878 9.15825 8.35352 9.35351C8.15826 9.54877 7.84175 9.54877 7.64649 9.35351L4.64649 6.35351C4.45123 6.15825 4.45123 5.84174 4.64649 5.64648C4.84175 5.45121 5.15826 5.45121 5.35352 5.64648L8.35352 8.64648Z" fill="black"/>
<path d="M11.3535 5.64648C11.5488 5.84174 11.5488 6.15825 11.3535 6.35351L8.35352 9.35351C8.15826 9.54877 7.84175 9.54877 7.64649 9.35351C7.45123 9.15825 7.45123 8.84174 7.64649 8.64648L10.6465 5.64648C10.8418 5.45121 11.1583 5.45121 11.3535 5.64648Z" fill="black"/>
<path d="M7.5 9V1.5C7.5 1.22386 7.72386 1 8 1C8.27614 1 8.5 1.22386 8.5 1.5V9C8.5 9.27614 8.27614 9.5 8 9.5C7.72386 9.5 7.5 9.27614 7.5 9Z" fill="black"/>
</svg>
