<svg width="16" height="16" viewBox="0 0 16 16" fill="none" xmlns="http://www.w3.org/2000/svg">
<path d="M8 10C9.20949 10 10.2186 10.8589 10.4502 12H14.7139C14.9898 12.0003 15.2139 12.224 15.2139 12.5C15.2139 12.776 14.9898 12.9997 14.7139 13H10.4502C10.2186 14.1411 9.20949 15 8 15C6.79051 15 5.78142 14.1411 5.5498 13H1.5C1.22386 13 1 12.7761 1 12.5C1 12.2239 1.22386 12 1.5 12H5.5498C5.78142 10.8589 6.79051 10 8 10ZM8 11C7.17157 11 6.5 11.6716 6.5 12.5C6.5 13.3284 7.17157 14 8 14C8.82843 14 9.5 13.3284 9.5 12.5C9.5 11.6716 8.82843 11 8 11Z" fill="black"/>
<path d="M11.3535 4.14651C11.5488 4.34177 11.5488 4.65828 11.3535 4.85354C11.1582 5.0488 10.8417 5.0488 10.6465 4.85354L7.64646 1.85354C7.4512 1.65828 7.4512 1.34177 7.64646 1.14651C7.84172 0.951245 8.15823 0.951245 8.35349 1.14651L11.3535 4.14651Z" fill="black"/>
<path d="M8.35352 1.14651C8.54879 1.34177 8.54878 1.65828 8.35352 1.85354L5.35352 4.85354C5.15826 5.0488 4.84175 5.0488 4.64649 4.85354C4.45123 4.65828 4.45123 4.34177 4.64649 4.14651L7.64649 1.14651C7.84175 0.951245 8.15826 0.951246 8.35352 1.14651Z" fill="black"/>
<path d="M7.5 9V1.5C7.5 1.22386 7.72386 1 8 1C8.27614 1 8.5 1.22386 8.5 1.5V9C8.5 9.27614 8.27614 9.5 8 9.5C7.72386 9.5 7.5 9.27614 7.5 9Z" fill="black"/>
</svg>
