<svg width="16" height="16" viewBox="0 0 16 16" fill="none" xmlns="http://www.w3.org/2000/svg">
<g id="rss">
<g id="Group 79">
<path id="Rectangle 82 (Stroke)" d="M12 13V14H4V13H12ZM13 12V4C13 3.44772 12.5523 3 12 3H4C3.44772 3 3 3.44772 3 4V12C3 12.5523 3.44772 13 4 13V14C2.96435 14 2.113 13.2128 2.01074 12.2041L2 12V4C2 2.89543 2.89543 2 4 2H12L12.2041 2.01074C13.2128 2.113 14 2.96435 14 4V12L13.9893 12.2041C13.8938 13.1457 13.1457 13.8938 12.2041 13.9893L12 14V13C12.5523 13 13 12.5523 13 12Z" fill="black"/>
<path id="Ellipse 73" d="M5.75 10.7927C5.75 11.2069 5.41421 11.5427 5 11.5427C4.58579 11.5427 4.25 11.2069 4.25 10.7927C4.25 10.3785 4.58579 10.0427 5 10.0427C5.41421 10.0427 5.75 10.3785 5.75 10.7927Z" fill="black"/>
<path id="Ellipse 76 (Stroke)" d="M7.5 11C7.5 9.61929 6.38071 8.5 5 8.5C4.72386 8.5 4.5 8.27614 4.5 8C4.5 7.72386 4.72386 7.5 5 7.5C6.933 7.5 8.5 9.067 8.5 11C8.5 11.2761 8.27614 11.5 8 11.5C7.72386 11.5 7.5 11.2761 7.5 11Z" fill="black"/>
<path id="Ellipse 77 (Stroke)" d="M10.5 11C10.5 7.96243 8.03757 5.5 5 5.5C4.72386 5.5 4.5 5.27614 4.5 5C4.5 4.72386 4.72386 4.5 5 4.5C8.58985 4.5 11.5 7.41015 11.5 11C11.5 11.2761 11.2761 11.5 11 11.5C10.7239 11.5 10.5 11.2761 10.5 11Z" fill="black"/>
</g>
</g>
</svg>
