<svg width="16" height="16" viewBox="0 0 16 16" fill="none" xmlns="http://www.w3.org/2000/svg">
<path d="M2.87085 7.71777L5.44409 9.27831C5.59353 9.36886 5.68517 9.53036 5.6853 9.70507V12.5859L7.49976 13.6338V8.28808L2.87085 5.61523V7.71777ZM8.49976 8.28808V13.6338L10.3142 12.5859V9.70507C10.3143 9.53046 10.4061 9.36889 10.5554 9.27831L13.1296 7.71777V5.61523L8.49976 8.28808ZM2.87085 10.9609L4.6853 12.0088V9.98632L2.87085 8.88671V10.9609ZM11.3142 9.98632V12.0088L13.1296 10.9609V8.88671L11.3142 9.98632ZM8.24976 5.18261C8.09506 5.27191 7.90445 5.27192 7.74976 5.18261L5.1853 3.70117L3.36987 4.74999L7.99976 7.42285L12.6296 4.74999L10.8142 3.70117L8.24976 5.18261ZM6.18433 3.12499L7.99976 4.17285L9.81421 3.12499L7.99976 2.07617L6.18433 3.12499ZM14.1296 11.25C14.1296 11.4284 14.034 11.5932 13.8796 11.6826L8.24976 14.9326C8.09506 15.0219 7.90445 15.0219 7.74976 14.9326L2.12085 11.6826C1.96625 11.5933 1.87085 11.4286 1.87085 11.25V4.74999C1.87085 4.57143 1.96625 4.40672 2.12085 4.31738L7.74976 1.06738C7.90445 0.978065 8.09506 0.978074 8.24976 1.06738L13.8796 4.31738C14.034 4.40676 14.1296 4.57156 14.1296 4.74999V11.25Z" fill="black"/>
</svg>
