<svg width="16" height="16" viewBox="0 0 16 16" fill="none" xmlns="http://www.w3.org/2000/svg">
<path d="M5 9V14H11V9H5ZM12 15H4V9C4 8.44772 4.44772 8 5 8H11C11.5523 8 12 8.44772 12 9V15Z" fill="black"/>
<path d="M13 14V15H3V14H13ZM1 13V3C1 1.89543 1.89543 1 3 1H10.5859C10.8511 1.00004 11.1055 1.10547 11.293 1.29297L14.707 4.70703C14.8945 4.89453 15 5.1489 15 5.41406V13C15 14.1046 14.1046 15 13 15V14C13.5523 14 14 13.5523 14 13V5.41406L10.5859 2H3C2.44772 2 2 2.44772 2 3V13C2 13.5523 2.44772 14 3 14V15L2.7959 14.9893C1.78722 14.887 1 14.0357 1 13Z" fill="black"/>
<path d="M9 4L9 2L6 2L6 4L9 4ZM5 1L10 1L10 4C10 4.55228 9.55228 5 9 5L6 5C5.44771 5 5 4.55228 5 4L5 1Z" fill="black"/>
</svg>
