<svg width="16" height="16" viewBox="0 0 16 16" fill="none" xmlns="http://www.w3.org/2000/svg">
<path d="M1.5 12V10.4004C1.5 10.1242 1.72386 9.90039 2 9.90039C2.27614 9.90039 2.5 10.1242 2.5 10.4004V12C2.5 12.8284 3.17157 13.5 4 13.5H5.59961C5.87575 13.5 6.09961 13.7239 6.09961 14C6.09961 14.2761 5.87575 14.5 5.59961 14.5H4C2.61929 14.5 1.5 13.3807 1.5 12ZM13.5 12V10.4004C13.5 10.1242 13.7239 9.90039 14 9.90039C14.2761 9.90039 14.5 10.1242 14.5 10.4004V12C14.5 13.3807 13.3807 14.5 12 14.5H10.4004C10.1242 14.5 9.90039 14.2761 9.90039 14C9.90039 13.7239 10.1242 13.5 10.4004 13.5H12C12.8284 13.5 13.5 12.8284 13.5 12ZM1.5 5.59961V4C1.5 2.61929 2.61929 1.5 4 1.5H5.59961C5.87575 1.5 6.09961 1.72386 6.09961 2C6.09961 2.27614 5.87575 2.5 5.59961 2.5H4C3.17157 2.5 2.5 3.17157 2.5 4V5.59961C2.5 5.87575 2.27614 6.09961 2 6.09961C1.72386 6.09961 1.5 5.87575 1.5 5.59961ZM13.5 5.59961V4C13.5 3.17157 12.8284 2.5 12 2.5H10.4004C10.1242 2.5 9.90039 2.27614 9.90039 2C9.90039 1.72386 10.1242 1.5 10.4004 1.5H12C13.3807 1.5 14.5 2.61929 14.5 4V5.59961C14.5 5.87575 14.2761 6.09961 14 6.09961C13.7239 6.09961 13.5 5.87575 13.5 5.59961Z" fill="black"/>
</svg>
