<svg width="16" height="16" viewBox="0 0 16 16" fill="none" xmlns="http://www.w3.org/2000/svg">
<path d="M11 6.5C11 4.01472 8.98528 2 6.5 2C4.01472 2 2 4.01472 2 6.5C2 8.98528 4.01472 11 6.5 11V12C3.46243 12 1 9.53757 1 6.5C1 3.46243 3.46243 1 6.5 1C9.53757 1 12 3.46243 12 6.5C12 9.53757 9.53757 12 6.5 12V11C8.98528 11 11 8.98528 11 6.5Z" fill="black"/>
<path d="M13.8535 13.1465C14.0488 13.3417 14.0488 13.6583 13.8535 13.8535C13.6583 14.0488 13.3417 14.0488 13.1465 13.8535L9.64648 10.3535L10.3535 9.64648L13.8535 13.1465Z" fill="black"/>
</svg>
