<svg width="16" height="16" viewBox="0 0 16 16" fill="none" xmlns="http://www.w3.org/2000/svg">
<path d="M12.25 1C13.9069 1 15.25 2.34315 15.25 4V10C15.25 10.9048 14.8473 11.7136 14.2139 12.2637V10.3711C14.2365 10.2507 14.25 10.1269 14.25 10V4C14.25 2.89543 13.3546 2 12.25 2H4.01855C4.56781 1.3876 5.36262 1 6.25 1H12.25Z" fill="black"/>
<path d="M4 3.5H10C11.3807 3.5 12.5 4.61929 12.5 6V12C12.5 13.3807 11.3807 14.5 10 14.5H4C2.61929 14.5 1.5 13.3807 1.5 12V6C1.5 4.61929 2.61929 3.5 4 3.5Z" stroke="black"/>
<path d="M10.6493 6.91495L6 11.5L3.79219 9.43817" stroke="black" stroke-linecap="round" stroke-linejoin="round"/>
</svg>
