<svg width="16" height="16" viewBox="0 0 16 16" fill="none" xmlns="http://www.w3.org/2000/svg">
<path fill-rule="evenodd" clip-rule="evenodd" d="M12.5 4C13.8807 4 15 5.11929 15 6.5V12.5C15 13.8807 13.8807 15 12.5 15H6C4.61929 15 3.5 13.8807 3.5 12.5V12H4.5V12.5C4.5 13.3284 5.17157 14 6 14H12.5C13.3284 14 14 13.3284 14 12.5V6.5C14 5.67157 13.3284 5 12.5 5H12V4H12.5Z" fill="black"/>
<path d="M1.5 3.5C1.5 2.39543 2.39543 1.5 3.5 1.5H9.5C10.6046 1.5 11.5 2.39543 11.5 3.5V9.5C11.5 10.6046 10.6046 11.5 9.5 11.5H3.5C2.39543 11.5 1.5 10.6046 1.5 9.5V3.5Z" stroke="black"/>
<path d="M9.56817 4.5L5.5 8.5L3.56817 6.70125" stroke="black" stroke-linecap="round" stroke-linejoin="round"/>
</svg>
