<svg width="16" height="16" viewBox="0 0 16 16" fill="none" xmlns="http://www.w3.org/2000/svg">
<path d="M3.70703 13.4717C3.80138 13.4903 3.89931 13.5 4 13.5H4.5V14.5H4C3.83368 14.5 3.67072 14.4834 3.5127 14.4521L3.60938 13.9619L3.70703 13.4717ZM6.5 13.5V14.5H5.5V13.5H6.5ZM8.5 13.5V14.5H7.5V13.5H8.5ZM10.5 13.5V14.5H9.5V13.5H10.5ZM12.3906 13.9619L12.4873 14.4521C12.3293 14.4834 12.1663 14.5 12 14.5H11.5V13.5H12C12.1007 13.5 12.1986 13.4903 12.293 13.4717L12.3906 13.9619ZM2.75195 12.833C2.86161 12.9968 3.0032 13.1384 3.16699 13.248L2.88867 13.6631L2.61035 14.0791C2.33794 13.8967 2.10327 13.6621 1.9209 13.3896L2.33691 13.1113L2.75195 12.833ZM13.6631 13.1113L14.0791 13.3896C13.8967 13.6621 13.6621 13.8967 13.3896 14.0791L13.1113 13.6631L12.833 13.248C12.9968 13.1384 13.1384 12.9968 13.248 12.833L13.6631 13.1113ZM1.5 12V11.5H2.5V12C2.5 12.1007 2.50968 12.1986 2.52832 12.293L2.03809 12.3906L1.54785 12.4873C1.51659 12.3293 1.5 12.1663 1.5 12ZM13.5 12V11.5H14.5V12C14.5 12.1663 14.4834 12.3293 14.4521 12.4873L13.9619 12.3906L13.4717 12.293C13.4903 12.1986 13.5 12.1007 13.5 12ZM2.5 9.5V10.5H1.5V9.5H2.5ZM14.5 9.5V10.5H13.5V9.5H14.5ZM2.5 7.5V8.5H1.5V7.5H2.5ZM14.5 7.5V8.5H13.5V7.5H14.5ZM2.5 5.5V6.5H1.5V5.5H2.5ZM14.5 5.5V6.5H13.5V5.5H14.5ZM1.5 4C1.5 3.83368 1.51659 3.67072 1.54785 3.5127L2.03809 3.60938L2.52832 3.70703C2.50968 3.80138 2.5 3.89931 2.5 4V4.5H1.5V4ZM13.5 4C13.5 3.89931 13.4903 3.80138 13.4717 3.70703L13.9619 3.60938L14.4521 3.5127C14.4834 3.67072 14.5 3.83368 14.5 4V4.5H13.5V4ZM2.88867 2.33691L3.16699 2.75195C3.0032 2.86161 2.86161 3.0032 2.75195 3.16699L2.33691 2.88867L1.9209 2.61035C2.10327 2.33794 2.33794 2.10327 2.61035 1.9209L2.88867 2.33691ZM13.3896 1.9209C13.6621 2.10327 13.8967 2.33794 14.0791 2.61035L13.6631 2.88867L13.248 3.16699C13.1384 3.0032 12.9968 2.86161 12.833 2.75195L13.1113 2.33691L13.3896 1.9209ZM4.5 1.5V2.5H4C3.89931 2.5 3.80138 2.50968 3.70703 2.52832L3.60938 2.03809L3.5127 1.54785C3.67072 1.51659 3.83368 1.5 4 1.5H4.5ZM12 1.5C12.1663 1.5 12.3293 1.51659 12.4873 1.54785L12.3906 2.03809L12.293 2.52832C12.1986 2.50968 12.1007 2.5 12 2.5H11.5V1.5H12ZM6.5 1.5V2.5H5.5V1.5H6.5ZM8.5 1.5V2.5H7.5V1.5H8.5ZM10.5 1.5V2.5H9.5V1.5H10.5Z" fill="black"/>
<path d="M10 4.50001C10.2761 4.50001 10.5 4.72388 10.5 5.00001C10.5 5.27615 10.2761 5.50001 10 5.50001L6.20703 5.50001L10.8535 10.1465C11.0488 10.3418 11.0488 10.6583 10.8535 10.8535C10.6583 11.0488 10.3417 11.0488 10.1465 10.8535L5.5 6.20704L5.5 10C5.5 10.2761 5.27614 10.5 5 10.5C4.72386 10.5 4.5 10.2762 4.5 10L4.5 5.00001C4.50001 4.72388 4.72387 4.50001 5 4.50001L10 4.50001Z" fill="black"/>
</svg>
