<svg width="16" height="16" viewBox="0 0 16 16" fill="none" xmlns="http://www.w3.org/2000/svg">
<path d="M14.5 10.5C14.7761 10.5 15 10.7239 15 11C15 11.2761 14.7761 11.5 14.5 11.5L5.5 11.5C5.22386 11.5 5 11.2761 5 11C5 10.7239 5.22386 10.5 5.5 10.5L14.5 10.5Z" fill="black"/>
<path d="M10.5 4.5C10.7761 4.5 11 4.72386 11 5C11 5.27614 10.7761 5.5 10.5 5.5H1.5C1.22386 5.5 1 5.27614 1 5C1 4.72386 1.22386 4.5 1.5 4.5H10.5Z" fill="black"/>
<path d="M14 5C14 4.17157 13.3284 3.5 12.5 3.5C11.6716 3.5 11 4.17157 11 5C11 5.82843 11.6716 6.5 12.5 6.5V7.5C11.1193 7.5 10 6.38071 10 5C10 3.61929 11.1193 2.5 12.5 2.5C13.8807 2.5 15 3.61929 15 5C15 6.38071 13.8807 7.5 12.5 7.5V6.5C13.3284 6.5 14 5.82843 14 5Z" fill="black"/>
<path d="M5 11C5 10.1716 4.32843 9.5 3.5 9.5C2.67157 9.5 2 10.1716 2 11C2 11.8284 2.67157 12.5 3.5 12.5V13.5C2.11929 13.5 1 12.3807 1 11C1 9.61929 2.11929 8.5 3.5 8.5C4.88071 8.5 6 9.61929 6 11C6 12.3807 4.88071 13.5 3.5 13.5V12.5C4.32843 12.5 5 11.8284 5 11Z" fill="black"/>
</svg>
