<svg width="16" height="16" viewBox="0 0 16 16" fill="none" xmlns="http://www.w3.org/2000/svg">
<path d="M3 12L2 12L2 4L3 4L3 12ZM4 13L12 13C12.5523 13 13 12.5523 13 12L13 4C13 3.44772 12.5523 3 12 3L4 3C3.44772 3 3 3.44771 3 4L2 4C2 2.96435 2.78722 2.113 3.7959 2.01074L4 2L12 2C13.1046 2 14 2.89543 14 4L14 12L13.9893 12.2041C13.887 13.2128 13.0356 14 12 14L4 14L3.7959 13.9893C2.85435 13.8938 2.1062 13.1457 2.01074 12.2041L2 12L3 12C3 12.5523 3.44772 13 4 13Z" fill="black"/>
<path d="M2.5 7.5L13.5 7.5C13.7761 7.5 14 7.72386 14 8C14 8.27614 13.7761 8.5 13.5 8.5L2.5 8.5C2.22386 8.5 2 8.27614 2 8C2 7.72386 2.22386 7.5 2.5 7.5Z" fill="black"/>
</svg>
