<svg width="16" height="16" viewBox="0 0 16 16" fill="none" xmlns="http://www.w3.org/2000/svg">
<path d="M12 13V14H4V13H12ZM13 12V4C13 3.44772 12.5523 3 12 3H4C3.44772 3 3 3.44772 3 4V12C3 12.5523 3.44772 13 4 13V14C2.96435 14 2.113 13.2128 2.01074 12.2041L2 12V4C2 2.89543 2.89543 2 4 2H12L12.2041 2.01074C13.2128 2.113 14 2.96435 14 4V12L13.9893 12.2041C13.8938 13.1457 13.1457 13.8938 12.2041 13.9893L12 14V13C12.5523 13 13 12.5523 13 12Z" fill="black"/>
<path d="M7.5 13.5V2.5C7.5 2.22386 7.72386 2 8 2C8.27614 2 8.5 2.22386 8.5 2.5V13.5C8.5 13.7761 8.27614 14 8 14C7.72386 14 7.5 13.7761 7.5 13.5Z" fill="black"/>
</svg>
