<svg width="16" height="16" viewBox="0 0 16 16" fill="none" xmlns="http://www.w3.org/2000/svg">
<path d="M10 13.5391V11H6V13.5391C6 13.8152 5.77614 14.0391 5.5 14.0391C5.22386 14.0391 5 13.8152 5 13.5391V11H2.5C2.22386 11 2 10.7761 2 10.5C2 10.2239 2.22386 10 2.5 10H5V6H2.5C2.22386 6 2 5.77614 2 5.5C2 5.22386 2.22386 5 2.5 5H5V2.5C5 2.22386 5.22386 2 5.5 2C5.77614 2 6 2.22386 6 2.5V5H10V2.5C10 2.22386 10.2239 2 10.5 2C10.7761 2 11 2.22386 11 2.5V5H13.5C13.7761 5 14 5.22386 14 5.5C14 5.77614 13.7761 6 13.5 6H11V10H13.5C13.7761 10 14 10.2239 14 10.5C14 10.7761 13.7761 11 13.5 11H11V13.5391C11 13.8152 10.7761 14.0391 10.5 14.0391C10.2239 14.0391 10 13.8152 10 13.5391ZM6 10H10V6H6V10Z" fill="black"/>
</svg>
