<svg width="16" height="16" viewBox="0 0 16 16" fill="none" xmlns="http://www.w3.org/2000/svg">
<path d="M13.4996 8C13.4996 4.96243 11.0372 2.5 7.99963 2.5C6.13476 2.50012 4.48612 3.42821 3.49084 4.84961C3.33236 5.07548 3.02062 5.12998 2.79455 4.97168C2.56869 4.8132 2.51418 4.50146 2.67248 4.27539C3.84691 2.59843 5.79492 1.50012 7.99963 1.5C11.5895 1.5 14.4996 4.41015 14.4996 8C14.4996 8.27614 14.2758 8.5 13.9996 8.5C13.7236 8.49981 13.4996 8.27603 13.4996 8Z" fill="black"/>
<path d="M1.5 8C1.5 7.72386 1.72386 7.5 2 7.5C2.27614 7.5 2.5 7.72386 2.5 8C2.5 11.0376 4.96243 13.5 8 13.5C9.83979 13.5 11.4685 12.597 12.4678 11.208C12.629 10.9839 12.9419 10.9326 13.166 11.0938C13.3901 11.255 13.4414 11.5678 13.2803 11.792C12.1012 13.431 10.1752 14.5 8 14.5C4.41015 14.5 1.5 11.5899 1.5 8Z" fill="black"/>
<path d="M2.5 2C2.5 1.72386 2.72386 1.5 3 1.5C3.27614 1.5 3.5 1.72386 3.5 2V4H5.5C5.77614 4 6 4.22386 6 4.5C6 4.77614 5.77614 5 5.5 5H3C2.72386 5 2.5 4.77614 2.5 4.5V2Z" fill="black"/>
<path d="M12.5 13.9473V12H10.5C10.2239 12 10 11.7761 10 11.5C10 11.2239 10.2239 11 10.5 11H13C13.2761 11 13.5 11.2239 13.5 11.5V13.9473C13.5 14.2234 13.2761 14.4473 13 14.4473C12.7239 14.4473 12.5 14.2234 12.5 13.9473Z" fill="black"/>
</svg>
