<svg width="16" height="16" viewBox="0 0 16 16" fill="none" xmlns="http://www.w3.org/2000/svg">
<path d="M14.5 3C14.7761 3 15 3.22386 15 3.5C15 3.77614 14.7761 4 14.5 4H7C6.72386 4 6.5 3.77614 6.5 3.5C6.5 3.22386 6.72386 3 7 3H14.5Z" fill="black"/>
<path d="M14.5 7.5C14.7761 7.50001 15 7.72386 15 8C15 8.27614 14.7761 8.49999 14.5 8.5H7C6.72386 8.5 6.5 8.27614 6.5 8C6.5 7.72386 6.72386 7.5 7 7.5H14.5Z" fill="black"/>
<path d="M14.5 12C14.7761 12 15 12.2239 15 12.5C15 12.7761 14.7761 13 14.5 13H7C6.72386 13 6.5 12.7761 6.5 12.5C6.5 12.2239 6.72386 12 7 12H14.5Z" fill="black"/>
<path d="M4.11818 2.17677C4.29651 1.96611 4.61247 1.93994 4.82326 2.11818C5.03392 2.29651 5.06009 2.61247 4.88185 2.82326L3.08595 4.94728C2.99761 5.05175 2.86998 5.11496 2.73341 5.12306C2.59676 5.13111 2.46236 5.0827 2.36232 4.98927L1.15919 3.86525C0.957425 3.67682 0.946444 3.36102 1.13478 3.1592C1.32321 2.95743 1.63901 2.94644 1.84084 3.13478L2.66115 3.90041L4.11818 2.17677Z" fill="black"/>
<path d="M3.5 8C3.5 7.72386 3.27614 7.5 3 7.5C2.72386 7.5 2.5 7.72386 2.5 8C2.5 8.27614 2.72386 8.5 3 8.5V9.5L2.84668 9.49219C2.09028 9.41539 1.5 8.77666 1.5 8C1.5 7.17157 2.17157 6.5 3 6.5L3.15332 6.50781C3.90972 6.58461 4.5 7.22334 4.5 8C4.5 8.82843 3.82843 9.5 3 9.5V8.5C3.27614 8.5 3.5 8.27614 3.5 8Z" fill="black"/>
<path d="M3.5 12.5C3.5 12.2239 3.27614 12 3 12C2.72386 12 2.5 12.2239 2.5 12.5C2.5 12.7761 2.72386 13 3 13V14L2.84668 13.9922C2.09027 13.9154 1.5 13.2767 1.5 12.5C1.5 11.6716 2.17157 11 3 11L3.15332 11.0078C3.90972 11.0846 4.5 11.7233 4.5 12.5L4.49219 12.6533C4.41539 13.4097 3.77666 14 3 14V13C3.27614 13 3.5 12.7761 3.5 12.5Z" fill="black"/>
</svg>
