<svg width="16" height="16" viewBox="0 0 16 16" fill="none" xmlns="http://www.w3.org/2000/svg">
<path d="M13 12.5V13.5H3V12.5H13ZM14 11.5V4.5C14 3.94772 13.5523 3.5 13 3.5H3C2.44772 3.5 2 3.94772 2 4.5V11.5C2 12.0523 2.44772 12.5 3 12.5V13.5L2.7959 13.4893C1.85435 13.3938 1.1062 12.6457 1.01074 11.7041L1 11.5V4.5C1 3.39543 1.89543 2.5 3 2.5H13C14.1046 2.5 15 3.39543 15 4.5V11.5L14.9893 11.7041C14.8938 12.6457 14.1457 13.3938 13.2041 13.4893L13 13.5V12.5C13.5523 12.5 14 12.0523 14 11.5Z" fill="black"/>
<path d="M12.5 10.5C12.7761 10.5 13 10.7239 13 11C13 11.2761 12.7761 11.5 12.5 11.5H7.5C7.22386 11.5 7 11.2761 7 11C7 10.7239 7.22386 10.5 7.5 10.5H12.5Z" fill="black"/>
<path d="M3.64651 5.14648C3.84177 4.95121 4.15828 4.95121 4.35354 5.14648L6.85354 7.64648C7.0488 7.84174 7.0488 8.15825 6.85354 8.35351L4.35354 10.8535C4.15828 11.0488 3.84177 11.0488 3.64651 10.8535C3.45125 10.6582 3.45125 10.3417 3.64651 10.1465L5.79299 7.99999L3.64651 5.85351C3.45125 5.65825 3.45125 5.34174 3.64651 5.14648Z" fill="black"/>
</svg>
