<svg width="16" height="16" viewBox="0 0 16 16" fill="none" xmlns="http://www.w3.org/2000/svg">
<path d="M7.50001 11.1338C7.20108 11.3067 7 11.6299 7 12.0001C7.00017 12.5522 7.44782 13.0001 8.00001 13.0001C8.55206 12.9999 8.99985 12.5521 9.00001 12.0001C9.00001 11.63 8.79881 11.3068 8.50001 11.1338V9.2061L11.5176 12.2237L9.41408 14.3282C8.63315 15.1091 7.36702 15.1089 6.58594 14.3282L4.48143 12.2237L7.50001 9.20512V11.1338ZM7.29297 7.99906L3.7744 11.5167L1.67185 9.41411C0.890796 8.63306 0.890796 7.36702 1.67185 6.58597L3.77538 4.48146L7.29297 7.99906ZM14.3282 6.58597C15.1088 7.36705 15.1091 8.63318 14.3282 9.41411L12.2246 11.5167L8.70704 7.99906L9.99904 6.70609L11.0342 7.74125C11.0122 7.82379 11 7.91055 11 8.00004C11.0002 8.55219 11.4478 9.00004 12 9.00004C12.5521 8.99988 12.9999 8.55209 13 8.00004C13 7.44785 12.5522 7.0002 12 7.00003C11.9105 7.00003 11.8238 7.01216 11.7412 7.03421L10.7061 5.99905L12.2237 4.48146L14.3282 6.58597ZM7.03418 3.74123C7.01213 3.82377 7 3.91052 7 4.00002C7.00011 4.36976 7.20155 4.69128 7.50001 4.86428V6.79202L4.48241 3.77443L5.77441 2.48145L7.03418 3.74123ZM9.29201 5.99905L8.50001 6.79105V5.20705L9.29201 5.99905ZM6.58594 1.67188C7.36699 0.890827 8.63303 0.890827 9.41408 1.67188L11.5166 3.77443L9.99904 5.29202L8.96486 4.25783C8.98683 4.17548 8.99999 4.08928 9.00001 4.00002C9.00001 3.44783 8.55216 3.00017 8.00001 3.00001C7.91052 3.00001 7.82376 3.01214 7.74122 3.03419L6.48145 1.77442L6.58594 1.67188Z" fill="black"/>
</svg>
