<svg width="16" height="16" viewBox="0 0 16 16" fill="none" xmlns="http://www.w3.org/2000/svg">
<path d="M13 12.5V13.5H3V12.5H13ZM14 11.5V4.5C14 3.94772 13.5523 3.5 13 3.5H3C2.44772 3.5 2 3.94772 2 4.5V11.5C2 12.0523 2.44772 12.5 3 12.5V13.5L2.7959 13.4893C1.85435 13.3938 1.1062 12.6457 1.01074 11.7041L1 11.5V4.5C1 3.39543 1.89543 2.5 3 2.5H13C14.1046 2.5 15 3.39543 15 4.5V11.5L14.9893 11.7041C14.8938 12.6457 14.1457 13.3938 13.2041 13.4893L13 13.5V12.5C13.5523 12.5 14 12.0523 14 11.5Z" fill="black"/>
<path d="M12.5 10.5C12.7761 10.5 13 10.7239 13 11C13 11.2761 12.7761 11.5 12.5 11.5H7.5C7.22386 11.5 7 11.2761 7 11C7 10.7239 7.22386 10.5 7.5 10.5H12.5Z" fill="black"/>
<path d="M5.5 7V6.75C5.5 6.33579 5.16421 6 4.75 6C4.33579 6 4 6.33579 4 6.75V9.25C4 9.66421 4.33579 10 4.75 10C5.16421 10 5.5 9.66421 5.5 9.25V9C5.5 8.72386 5.72386 8.5 6 8.5C6.27614 8.5 6.5 8.72386 6.5 9V9.25C6.5 10.2165 5.7165 11 4.75 11C3.7835 11 3 10.2165 3 9.25V6.75C3 5.7835 3.7835 5 4.75 5C5.7165 5 6.5 5.7835 6.5 6.75V7C6.5 7.27614 6.27614 7.5 6 7.5C5.72386 7.5 5.5 7.27614 5.5 7Z" fill="black"/>
</svg>
