<svg width="16" height="16" viewBox="0 0 16 16" fill="none" xmlns="http://www.w3.org/2000/svg">
<path d="M8.5 12.5C8.77614 12.5 9 12.7239 9 13C9 13.2761 8.77614 13.5 8.5 13.5H2.5C2.22386 13.5 2 13.2761 2 13C2 12.7239 2.22386 12.5 2.5 12.5H8.5ZM13.5 9.16699C13.7761 9.16699 14 9.39085 14 9.66699C13.9998 9.94299 13.776 10.167 13.5 10.167H2.5C2.22397 10.167 2.00018 9.94299 2 9.66699C2 9.39085 2.22386 9.16699 2.5 9.16699H13.5ZM8.5 5.83301C8.77603 5.83301 8.99982 6.05702 9 6.33301C9 6.60915 8.77614 6.83301 8.5 6.83301H2.5C2.22386 6.83301 2 6.60915 2 6.33301C2.00018 6.05702 2.22397 5.83301 2.5 5.83301H8.5ZM13.5 2.5C13.7761 2.5 14 2.72386 14 3C14 3.27614 13.7761 3.5 13.5 3.5H2.5C2.22386 3.5 2 3.27614 2 3C2 2.72386 2.22386 2.5 2.5 2.5H13.5Z" fill="black"/>
</svg>
