<svg width="16" height="16" viewBox="0 0 16 16" fill="none" xmlns="http://www.w3.org/2000/svg">
<g id="text-size">
<path id="Vector 75 (Stroke)" d="M4.00001 7C4.20186 7 4.38429 7.12129 4.46192 7.30762L6.96192 13.3076C7.06808 13.5625 6.94727 13.8557 6.69239 13.9619C6.43751 14.0681 6.14429 13.9473 6.03809 13.6924L5.16602 11.5996H2.83399L1.96192 13.6924C1.85572 13.9473 1.56251 14.0681 1.30763 13.9619C1.05275 13.8557 0.931937 13.5625 1.03809 13.3076L3.53809 7.30762L3.57227 7.24121C3.66187 7.09305 3.82331 7 4.00001 7ZM3.25001 10.5996H4.75001L4.00001 8.80078L3.25001 10.5996Z" fill="black"/>
<path id="Vector 76 (Stroke)" d="M10.5 2C10.7102 2 10.8978 2.13155 10.9697 2.3291L14.9697 13.3291C15.0641 13.5886 14.9303 13.8753 14.6709 13.9697C14.4114 14.0641 14.1247 13.9304 14.0303 13.6709L12.5498 9.59961H8.45018L6.96971 13.6709C6.87531 13.9304 6.58857 14.0641 6.32908 13.9697C6.06962 13.8753 5.93589 13.5886 6.03025 13.3291L10.0303 2.3291L10.0625 2.25781C10.1495 2.10051 10.3162 2 10.5 2ZM8.81443 8.59961H12.1855L10.5 3.96191L8.81443 8.59961Z" fill="black"/>
</g>
</svg>
