<svg width="16" height="16" viewBox="0 0 16 16" fill="none" xmlns="http://www.w3.org/2000/svg">
<g id="translate">
<path id="Vector 75 (Stroke)" d="M11 6.99999C11.1894 6.99999 11.3626 7.10697 11.4473 7.27636L14.4473 13.2764C14.5708 13.5233 14.4706 13.8238 14.2236 13.9473C13.9766 14.0708 13.6762 13.9706 13.5527 13.7236L12.8447 12.3076H9.15527L8.44727 13.7236C8.32377 13.9706 8.02336 14.0708 7.77637 13.9473C7.52938 13.8238 7.42924 13.5233 7.55273 13.2764L10.5527 7.27636C10.6374 7.10697 10.8106 6.99999 11 6.99999ZM9.65527 11.3076H12.3447L11 8.61718L9.65527 11.3076ZM8.5 4.49999C8.77614 4.49999 9 4.72385 9 4.99999C9 5.27614 8.77614 5.49999 8.5 5.49999H7.73633L5.82812 7.83105L7.87598 10.1709C8.0578 10.3787 8.03686 10.6941 7.8291 10.876C7.62131 11.0578 7.30587 11.0368 7.12402 10.8291L5.18652 8.61523L3.38672 10.8164C3.21185 11.0301 2.89732 11.0616 2.68359 10.8867C2.46987 10.7118 2.43842 10.3973 2.61328 10.1836L4.51953 7.85253L3.62402 6.82909C3.4422 6.6213 3.46314 6.30587 3.6709 6.12402C3.87869 5.9422 4.19413 5.96314 4.37598 6.17089L5.16113 7.06835L6.44531 5.49999H2.5C2.22386 5.49999 2 5.27614 2 4.99999C2 4.72385 2.22386 4.49999 2.5 4.49999H8.5ZM4.14648 2.14648C4.34175 1.95121 4.65825 1.95121 4.85352 2.14648L5.85352 3.14648C6.04878 3.34174 6.04878 3.65825 5.85352 3.85351C5.65825 4.04877 5.34175 4.04877 5.14648 3.85351L4.14648 2.85351C3.95122 2.65825 3.95122 2.34174 4.14648 2.14648Z" fill="black"/>
</g>
</svg>
