<svg width="16" height="16" viewBox="0 0 16 16" fill="none" xmlns="http://www.w3.org/2000/svg">
<g clip-path="url(#clip0_326_1191)">
<path d="M12.9633 3.57134C12.1519 2.60465 10.71 2.47902 9.74314 3.29031C8.77647 4.10162 8.65043 5.54282 9.46148 6.50971C9.84177 6.96293 10.3836 7.13051 11.1063 7.335C11.7801 7.52565 12.6353 7.75364 13.2438 8.47858C14.4101 9.86861 14.2288 11.9418 12.8387 13.1082C11.4487 14.2743 9.37616 14.0925 8.20987 12.7025C8.03256 12.491 8.06003 12.1756 8.2715 11.9981C8.48297 11.8207 8.79838 11.8484 8.97591 12.0597C9.78721 13.0266 11.229 13.1533 12.1959 12.3421C13.1629 11.5308 13.2891 10.0883 12.4777 9.12137C12.0974 8.66831 11.5561 8.50129 10.8336 8.29683C10.1596 8.10613 9.304 7.87776 8.69543 7.1525C7.52938 5.76253 7.71061 3.69058 9.10035 2.52426C10.4903 1.35798 12.5629 1.53879 13.7293 2.92855C13.9068 3.14 13.879 3.45543 13.6677 3.63297C13.4562 3.81047 13.1408 3.78288 12.9633 3.57134Z" fill="black"/>
<path d="M3.5 13.5V3H1C0.723858 3 0.5 2.77614 0.5 2.5C0.5 2.22386 0.723858 2 1 2H7C7.27614 2 7.5 2.22386 7.5 2.5C7.5 2.77614 7.27614 3 7 3H4.5V13.5C4.5 13.7761 4.27614 14 4 14C3.72386 14 3.5 13.7761 3.5 13.5Z" fill="black"/>
</g>
<defs>
<clipPath id="clip0_326_1191">
<rect width="16" height="16" fill="white"/>
</clipPath>
</defs>
</svg>
