<svg width="16" height="16" viewBox="0 0 16 16" fill="none" xmlns="http://www.w3.org/2000/svg">
<rect x="2.05" y="2.05" width="11.9" height="11.9" stroke="#0D00FF" stroke-width="0.1"/>
<rect x="3.05" y="1.05" width="9.9" height="13.9" stroke="#FF0000" stroke-width="0.1"/>
<rect x="1.05" y="3.05" width="13.9" height="9.9" stroke="#00FF4D" stroke-width="0.1"/>
<circle cx="8" cy="8" r="6.95" stroke="black" stroke-width="0.1"/>
<path d="M2 2L14 14M14 2L2 14M8 1V15M15 8H1" stroke="black" stroke-width="0.1"/>
<path d="M5 1V15M11 1V15M1 5H15M1 11H15" stroke="black" stroke-width="0.1"/>
<path d="M1.5 3.5H5.5M9.5 3.5H5.5M5.5 3.5V13.5M8.5 7.5L11.5 10.5M11.5 10.5L14.5 13.5M11.5 10.5L14.5 7.5M11.5 10.5L8.5 13.5" stroke="black" stroke-linecap="round"/>
</svg>
