<svg width="16" height="16" viewBox="0 0 16 16" fill="none" xmlns="http://www.w3.org/2000/svg">
<g id="typescript">
<g id="Group 66">
<path id="Subtract" d="M12 2C13.1046 2 14 2.89543 14 4V12C14 13.1046 13.1046 14 12 14H4C2.89543 14 2 13.1046 2 12V4C2 2.89543 2.89543 2 4 2H12ZM6.99414 8C6.71823 8.00026 6.49416 8.22403 6.49414 8.5C6.49414 8.77598 6.71822 8.99974 6.99414 9H7.74707V13.0928C7.74707 13.3688 7.97115 13.5925 8.24707 13.5928C8.5231 13.5926 8.74707 13.3688 8.74707 13.0928V9H9.5C9.77592 8.99974 10 8.77598 10 8.5C9.99998 8.22403 9.77591 8.00026 9.5 8H6.99414ZM13.3838 8.39844C12.7934 7.69488 11.7437 7.60405 11.04 8.19434C10.3367 8.78479 10.2447 9.83359 10.835 10.5371C11.1556 10.919 11.6049 11.0318 11.8721 11.1074C12.1873 11.1966 12.3218 11.2487 12.4141 11.3584C12.6495 11.639 12.6136 12.0585 12.333 12.2939C12.0525 12.5293 11.6339 12.4914 11.3984 12.2109C11.2209 11.9997 10.9048 11.972 10.6934 12.1494C10.4821 12.3267 10.4549 12.642 10.6318 12.8535C11.2222 13.5571 12.272 13.6499 12.9756 13.0596C13.6791 12.4691 13.7701 11.4194 13.1797 10.7158C12.8591 10.3342 12.4106 10.2201 12.1436 10.1445C11.828 10.0552 11.6929 10.0044 11.6006 9.89453C11.3653 9.61409 11.4024 9.19542 11.6826 8.95996C11.9631 8.72481 12.3818 8.76073 12.6172 9.04102C12.7947 9.25252 13.1098 9.27995 13.3213 9.10254C13.5324 8.92504 13.561 8.60985 13.3838 8.39844Z" fill="black"/>
</g>
</g>
</svg>
