<svg width="16" height="16" viewBox="0 0 16 16" fill="none" xmlns="http://www.w3.org/2000/svg">
<path d="M11.8535 9.64648C12.0488 9.84174 12.0488 10.1582 11.8535 10.3535L8.35349 13.8535C8.25972 13.9473 8.13258 14 7.99998 14C7.86737 14 7.74023 13.9473 7.64646 13.8535L4.14646 10.3535C3.9512 10.1582 3.9512 9.84174 4.14646 9.64648C4.34172 9.45121 4.65823 9.45121 4.85349 9.64648L7.99998 12.793L11.1465 9.64648C11.3417 9.45121 11.6582 9.45121 11.8535 9.64648Z" fill="black"/>
<path d="M4.14645 6.35352C3.95118 6.15826 3.95118 5.84175 4.14645 5.64649L7.64645 2.14649C7.84171 1.95123 8.15822 1.95123 8.35348 2.14649L11.8535 5.64649C12.0487 5.84175 12.0487 6.15826 11.8535 6.35352C11.6582 6.54879 11.3417 6.54879 11.1464 6.35352L7.99996 3.20704L4.85348 6.35352C4.65822 6.54879 4.34171 6.54879 4.14645 6.35352Z" fill="black"/>
</svg>
