<svg width="16" height="16" viewBox="0 0 16 16" fill="none" xmlns="http://www.w3.org/2000/svg">
<path d="M7.5 8C7.5 7.39009 7.11555 6.77335 6.43359 6.28516C5.75753 5.80125 4.85888 5.5 4 5.5C3.15578 5.5 2.54307 5.78989 2.13965 6.2207C1.73157 6.6567 1.5 7.27777 1.5 8C1.5 8.72223 1.73157 9.3433 2.13965 9.7793C2.54307 10.2101 3.15578 10.5 4 10.5C4.85888 10.5 5.75753 10.1987 6.43359 9.71484C7.11555 9.22665 7.5 8.60991 7.5 8ZM8.5 8C8.5 9.04695 7.85042 9.93072 7.01562 10.5283C6.17501 11.13 5.07387 11.5 4 11.5C2.91122 11.5 2.02349 11.1179 1.41016 10.4629C0.801762 9.81313 0.5 8.93437 0.5 8C0.5 7.06563 0.801761 6.18687 1.41016 5.53711C2.02349 4.88213 2.91122 4.5 4 4.5C5.07387 4.5 6.17501 4.87005 7.01562 5.47168C7.85042 6.06928 8.5 6.95305 8.5 8Z" fill="black"/>
<path d="M14.5 8C14.5 7.27777 14.2684 6.6567 13.8604 6.2207C13.4569 5.78989 12.8442 5.5 12 5.5C11.1411 5.5 10.2425 5.80125 9.56641 6.28516C8.88445 6.77335 8.5 7.39009 8.5 8C8.5 8.60991 8.88445 9.22665 9.56641 9.71484C10.2425 10.1987 11.1411 10.5 12 10.5C12.8442 10.5 13.4569 10.2101 13.8604 9.7793C14.2684 9.3433 14.5 8.72223 14.5 8ZM15.5 8C15.5 8.93437 15.1982 9.81313 14.5898 10.4629C13.9765 11.1179 13.0888 11.5 12 11.5C10.9261 11.5 9.82499 11.13 8.98438 10.5283C8.14958 9.93072 7.5 9.04695 7.5 8C7.5 6.95305 8.14958 6.06928 8.98438 5.47168C9.82499 4.87005 10.9261 4.5 12 4.5C13.0888 4.5 13.9765 4.88213 14.5898 5.53711C15.1982 6.18687 15.5 7.06563 15.5 8Z" fill="black"/>
</svg>
