<svg width="16" height="16" viewBox="0 0 16 16" fill="none" xmlns="http://www.w3.org/2000/svg">
<g id="voice-circle-filled">
<g id="Group 47">
<path id="Subtract" d="M8 1C11.866 1 15 4.13401 15 8C15 11.866 11.866 15 8 15C4.13401 15 1 11.866 1 8C1 4.13401 4.13401 1 8 1ZM7 4C6.72386 4 6.5 4.22386 6.5 4.5V11.5C6.5 11.7761 6.72386 12 7 12C7.27614 12 7.5 11.7761 7.5 11.5V4.5C7.5 4.22386 7.27614 4 7 4ZM9.5 6C9.22386 6 9 6.22386 9 6.5V9.5C9 9.77614 9.22386 10 9.5 10C9.77614 10 10 9.77614 10 9.5V6.5C10 6.22386 9.77614 6 9.5 6ZM4.5 6.5C4.22386 6.5 4 6.72386 4 7V9C4 9.27614 4.22386 9.5 4.5 9.5C4.77614 9.5 5 9.27614 5 9V7C5 6.72386 4.77614 6.5 4.5 6.5ZM12 7C11.7239 7 11.5 7.22386 11.5 7.5V8.5C11.5 8.77614 11.7239 9 12 9C12.2761 9 12.5 8.77614 12.5 8.5V7.5C12.5 7.22386 12.2761 7 12 7Z" fill="black"/>
</g>
</g>
</svg>
