<svg width="16" height="16" viewBox="0 0 16 16" fill="none" xmlns="http://www.w3.org/2000/svg">
<g id="voice-circle">
<g id="Group 47">
<path id="Ellipse 33 (Stroke)" d="M14 8C14 4.68629 11.3137 2 8 2C4.68629 2 2 4.68629 2 8C2 11.3137 4.68629 14 8 14V15C4.13401 15 1 11.866 1 8C1 4.13401 4.13401 1 8 1C11.866 1 15 4.13401 15 8C15 11.866 11.866 15 8 15V14C11.3137 14 14 11.3137 14 8Z" fill="black"/>
<path id="Vector 74 (Stroke)" d="M6.5 11.5V4.5C6.5 4.22386 6.72386 4 7 4C7.27614 4 7.5 4.22386 7.5 4.5V11.5C7.5 11.7761 7.27614 12 7 12C6.72386 12 6.5 11.7761 6.5 11.5ZM9 9.5V6.5C9 6.22386 9.22386 6 9.5 6C9.77614 6 10 6.22386 10 6.5V9.5C10 9.77614 9.77614 10 9.5 10C9.22386 10 9 9.77614 9 9.5ZM4 9V7C4 6.72386 4.22386 6.5 4.5 6.5C4.77614 6.5 5 6.72386 5 7V9C5 9.27614 4.77614 9.5 4.5 9.5C4.22386 9.5 4 9.27614 4 9ZM11.5 8.5V7.5C11.5 7.22386 11.7239 7 12 7C12.2761 7 12.5 7.22386 12.5 7.5V8.5C12.5 8.77614 12.2761 9 12 9C11.7239 9 11.5 8.77614 11.5 8.5Z" fill="black"/>
</g>
</g>
</svg>
