<svg width="16" height="16" viewBox="0 0 16 16" fill="none" xmlns="http://www.w3.org/2000/svg">
<path d="M7.11817 1.71217C7.49516 1.00846 8.50486 1.00846 8.88184 1.71217L14.7109 12.594C15.0456 13.2187 14.6425 13.9672 13.9678 14.0579L13.8301 14.0667V13.0667L8.00001 2.18385L2.16993 13.0667V14.0667C1.46163 14.0665 0.993366 13.3583 1.23145 12.721L1.28907 12.594L7.11817 1.71217ZM13.8301 13.0667V14.0667H2.16993V13.0667H13.8301Z" fill="black"/>
<path d="M8.5 5L8.5 9C8.5 9.27614 8.27614 9.5 8 9.5C7.72386 9.5 7.5 9.27614 7.5 9L7.5 5C7.50001 4.72386 7.72386 4.5 8 4.5C8.27614 4.5 8.5 4.72386 8.5 5Z" fill="black"/>
<path d="M7.2594 11.5C7.2594 11.0858 7.59519 10.75 8.0094 10.75C8.42361 10.75 8.7594 11.0858 8.7594 11.5C8.7594 11.9142 8.42361 12.25 8.0094 12.25C7.59519 12.25 7.2594 11.9142 7.2594 11.5Z" fill="black"/>
</svg>
