<svg width="16" height="16" viewBox="0 0 16 16" fill="none" xmlns="http://www.w3.org/2000/svg">
<path d="M12.4094 1.59764C12.737 1.60726 13.075 1.70715 13.3414 1.97342C13.6222 2.2545 13.6967 2.61141 13.6641 2.94607C13.6323 3.26994 13.5012 3.59474 13.343 3.88045C13.1147 4.29235 12.7953 4.68454 12.5078 4.96717C12.6146 5.13135 12.713 5.3313 12.7641 5.55622C12.8643 5.99814 12.7771 6.5071 12.3234 6.96091C11.8853 7.39906 11.1792 7.63857 10.5554 7.77342C10.2102 7.84801 9.86424 7.89357 9.55784 7.92185C9.64768 8.20462 9.67216 8.56406 9.50232 8.96094L9.45784 9.05622C9.23168 9.5083 8.822 9.76278 8.3828 9.91718C7.94794 10.07 7.43222 10.1433 6.92266 10.2C6.39663 10.2585 5.87501 10.2995 5.36094 10.382C4.91497 10.4536 4.50417 10.5522 4.14922 10.7054L4.00468 10.7726C3.62812 11.3796 3.30996 11.9726 3.04766 12.5172C3.55108 12.2211 4.1548 12 4.79999 12C5.02091 12 5.19999 12.179 5.19999 12.4C5.19999 12.6209 5.0209 12.8 4.79999 12.8C4.2843 12.8 3.76906 12.9981 3.32031 13.2882C2.87089 13.5789 2.51966 13.9416 2.33281 14.2218C2.32953 14.2268 2.32454 14.2304 2.32109 14.2351C2.31057 14.2495 2.29968 14.2631 2.2875 14.2757C2.28094 14.2826 2.27414 14.2889 2.26718 14.2953C2.25442 14.3068 2.24139 14.3176 2.22734 14.3273C2.2192 14.3329 2.21082 14.338 2.20234 14.3429C2.19083 14.3497 2.1793 14.3561 2.16718 14.3617C2.15263 14.3684 2.13784 14.374 2.12266 14.3789C2.11336 14.3819 2.10404 14.3844 2.09453 14.3867C2.0821 14.3897 2.06968 14.3919 2.05702 14.3937C2.0425 14.3958 2.02809 14.3979 2.01328 14.3984C2.0031 14.3988 1.99302 14.3981 1.98281 14.3977C1.96719 14.3969 1.95162 14.3963 1.93594 14.3937C1.92409 14.3918 1.9125 14.3889 1.90078 14.3859C1.89182 14.3836 1.88235 14.3826 1.87343 14.3797C1.86958 14.3784 1.86629 14.3756 1.8625 14.3742C1.84834 14.3689 1.83481 14.3624 1.82109 14.3554C1.81066 14.3502 1.80042 14.3451 1.79062 14.339C1.78671 14.3366 1.78198 14.3353 1.77812 14.3328C1.77131 14.3282 1.76581 14.3221 1.75937 14.3172C1.74717 14.3079 1.73517 14.2988 1.72422 14.2882C1.71614 14.2805 1.70887 14.2723 1.70156 14.2641C1.6917 14.2529 1.68195 14.2418 1.67343 14.2297C1.66694 14.2205 1.66189 14.2105 1.65625 14.2008C1.64934 14.1889 1.64238 14.1773 1.63671 14.1648C1.63094 14.1521 1.62626 14.139 1.62187 14.1257C1.61824 14.1149 1.61441 14.1041 1.61171 14.0929C1.60894 14.0813 1.6072 14.0696 1.60546 14.0577C1.60329 14.043 1.60129 14.0283 1.60078 14.0133C1.60043 14.0031 1.60113 13.9929 1.60156 13.9828C1.60223 13.9672 1.60291 13.9516 1.60546 13.9359C1.60722 13.9251 1.61062 13.9146 1.61328 13.9039C1.61578 13.8938 1.61698 13.8834 1.62031 13.8734C1.93418 12.9318 2.5453 11.5728 3.44374 10.1609C3.45526 10.0445 3.47206 9.88654 3.49531 9.69606C3.54703 9.27254 3.63069 8.6851 3.75937 8.03046C4.01392 6.73562 4.45451 5.11825 5.20468 3.99294L5.38594 3.73514C5.82161 3.1462 6.34463 2.64761 6.88828 2.28123C7.50376 1.86647 8.17768 1.59998 8.8008 1.59998C9.43608 1.60018 9.88248 1.88634 10.161 2.16482C10.2178 2.22177 10.2678 2.27997 10.3117 2.33435C10.6263 2.13506 11.0334 1.916 11.4539 1.76951C11.7557 1.66443 12.0875 1.58828 12.4094 1.59764ZM13.632 12.4429C13.7189 12.24 13.954 12.1454 14.157 12.232C14.36 12.3189 14.4546 12.554 14.368 12.757C13.9862 13.6489 13.3536 14.4 12.4 14.4C11.7047 14.3999 11.1811 14.0002 10.8 13.4382C10.4189 14.0002 9.89528 14.4 9.2 14.4C8.50472 14.3999 7.98111 14.0002 7.59999 13.4382C7.21887 14.0002 6.69529 14.4 5.99999 14.4C5.77913 14.3999 5.6 14.2209 5.59999 14C5.59999 13.7791 5.77913 13.6 5.99999 13.6C6.45631 13.6 6.8876 13.2474 7.23202 12.4429L7.25937 12.3898C7.33142 12.2729 7.45995 12.2 7.59999 12.2C7.76006 12.2 7.90497 12.2958 7.96797 12.4429L8.0336 12.5882C8.36648 13.29 8.77216 13.5999 9.2 13.6C9.65632 13.6 10.0876 13.2474 10.432 12.4429L10.4594 12.3898C10.5314 12.2729 10.6599 12.2 10.8 12.2C10.9601 12.2 11.105 12.2958 11.168 12.4429L11.2336 12.5882C11.5665 13.29 11.9722 13.5999 12.4 13.6C12.8563 13.6 13.2876 13.2474 13.632 12.4429ZM12.3859 2.39764C12.1976 2.39216 11.9686 2.43744 11.7172 2.52498C11.2138 2.70031 10.7112 3.01211 10.4398 3.21561C10.3422 3.28888 10.2158 3.31303 10.0977 3.28201C9.9796 3.25084 9.88176 3.16726 9.8328 3.05545C9.83136 3.05251 9.82888 3.04665 9.82576 3.04061C9.8176 3.02472 9.80328 2.99878 9.7836 2.96717C9.74352 2.90298 9.68088 2.81614 9.59528 2.73045C9.42648 2.56166 9.17296 2.40018 8.8008 2.39998C8.39232 2.39998 7.87338 2.58182 7.33515 2.94451C6.86948 3.25836 6.41254 3.69278 6.02968 4.21014L5.87031 4.4367C5.21307 5.4226 4.7958 6.90694 4.54453 8.1851C4.5069 8.37654 4.47304 8.56198 4.44297 8.73902C5.62425 7.21458 7.15326 5.75236 9.02496 4.8406C9.2236 4.7439 9.46264 4.82639 9.55936 5.02498C9.65608 5.22358 9.5736 5.46262 9.37496 5.55935C7.46522 6.48965 5.90918 8.05966 4.73125 9.68822C4.8985 9.65054 5.06708 9.61902 5.23437 9.59214C5.77367 9.50566 6.34178 9.45942 6.83437 9.40462C7.34309 9.34814 7.77698 9.28198 8.1172 9.16246C8.45296 9.04446 8.64504 8.89262 8.74216 8.69838L8.7836 8.6039C8.86208 8.38958 8.82528 8.21782 8.76872 8.08982C8.7344 8.01238 8.69088 7.94874 8.65624 7.90545C8.63968 7.88477 8.62576 7.86909 8.6172 7.86013L8.60856 7.85232L8.61016 7.8531L8.61168 7.85466C8.48912 7.74376 8.44776 7.56834 8.50704 7.41404C8.56656 7.25978 8.71512 7.15779 8.88048 7.15779C9.22256 7.15774 9.808 7.11646 10.3867 6.99138C10.9838 6.8623 11.4923 6.6608 11.7578 6.39529C12.007 6.14602 12.0262 5.92169 11.9836 5.73357C11.9466 5.5706 11.8563 5.41678 11.7656 5.30232L11.6766 5.20154C11.5946 5.11964 11.5521 5.00614 11.5602 4.8906C11.5684 4.77509 11.6262 4.66878 11.7187 4.5992C11.9646 4.41478 12.3794 3.96867 12.643 3.49294C12.774 3.25637 12.851 3.04108 12.868 2.86873C12.8838 2.7074 12.8462 2.60969 12.7758 2.53904C12.6905 2.45379 12.5682 2.403 12.3859 2.39764Z" fill="black"/>
</svg>
