<svg width="16" height="16" viewBox="0 0 16 16" fill="none" xmlns="http://www.w3.org/2000/svg">
<path d="M11 6.5C11 4.01472 8.98528 2 6.5 2C4.01472 2 2 4.01472 2 6.5C2 8.98528 4.01472 11 6.5 11V12C3.46243 12 1 9.53757 1 6.5C1 3.46243 3.46243 1 6.5 1C9.53757 1 12 3.46243 12 6.5C12 9.53757 9.53757 12 6.5 12V11C8.98528 11 11 8.98528 11 6.5Z" fill="black"/>
<path d="M13.3535 12.6465C13.5488 12.8417 13.5488 13.1583 13.3535 13.3535C13.1583 13.5488 12.8417 13.5488 12.6465 13.3535L9.64648 10.3535L10.3535 9.64648L13.3535 12.6465Z" fill="black"/>
<path d="M8.5 6C8.77614 6 9 6.22386 9 6.5C9 6.77614 8.77614 7 8.5 7H4.5C4.22386 7 4 6.77614 4 6.5C4 6.22386 4.22386 6 4.5 6H8.5Z" fill="black"/>
</svg>
